<svg width="12" height="20" viewBox="0 0 12 20" fill="none" xmlns="http://www.w3.org/2000/svg">
<path d="M4.88605 14.0852C3.38032 13.9178 2.01701 13.5411 0.857189 12.5993C0.714754 12.4737 0.572319 12.3691 0.429885 12.2435C-0.07881 11.7412 -0.139853 11.1552 0.267103 10.5691C0.613015 10.0668 1.18275 9.92034 1.79319 10.2133C1.91527 10.2761 2.01701 10.3389 2.11875 10.4226C4.27562 11.9505 7.26674 11.9923 9.44396 10.4854C9.66778 10.318 9.89161 10.1715 10.1561 10.1087C10.6852 9.9622 11.1532 10.1715 11.438 10.6319C11.7636 11.1552 11.7433 11.6784 11.3566 12.097C10.7462 12.7248 10.034 13.1853 9.22013 13.5202C8.46726 13.8132 7.633 13.9806 6.79874 14.0852C6.92083 14.2317 6.98187 14.2945 7.06327 14.3783C8.18239 15.5294 9.30152 16.6805 10.4207 17.8525C10.8073 18.2501 10.8887 18.7315 10.6648 19.192C10.441 19.6943 9.9323 20.0291 9.42361 19.9873C9.09804 19.9663 8.85387 19.7989 8.63005 19.5687C7.79579 18.6897 6.92083 17.8316 6.10692 16.9525C5.86275 16.7014 5.74066 16.7432 5.53718 16.9735C4.68257 17.8734 3.82797 18.7524 2.95301 19.6315C2.5664 20.0291 2.0984 20.0919 1.65075 19.8826C1.16241 19.6524 0.857189 19.1292 0.897884 18.6269C0.918232 18.292 1.08101 18.0199 1.30484 17.7897C2.40362 16.6595 3.52275 15.5084 4.62153 14.3783C4.70292 14.2736 4.76397 14.1899 4.88605 14.0852Z" fill="#E97239"/>
<path d="M5.80291 10.1088C3.117 10.1088 0.919434 7.80658 0.919434 5.04393C0.939781 2.23942 3.13734 0 5.86395 0C8.59055 0 10.7678 2.30221 10.7474 5.12764C10.7271 7.89029 8.50916 10.1297 5.80291 10.1088ZM8.24464 5.04393C8.24464 3.6626 7.16621 2.57429 5.8436 2.57429C4.50065 2.57429 3.42221 3.68353 3.44256 5.06486C3.44256 6.42525 4.52099 7.51357 5.86395 7.51357C7.18656 7.5345 8.24464 6.42525 8.24464 5.04393Z" fill="#E97239"/>
</svg>
