<svg width="22" height="22" viewBox="0 0 22 22" fill="none" xmlns="http://www.w3.org/2000/svg">
<rect width="22" height="22" rx="2" fill="#31478F"/>
<path fill-rule="evenodd" clip-rule="evenodd" d="M8.62165 14.0246V21.8031C8.62165 21.9015 8.72301 22 8.82436 22H11.8143C11.9156 22 12.017 21.9015 12.017 21.8031V13.9262H14.1961C14.2974 13.9262 14.3988 13.8277 14.3988 13.7292L14.6015 11.3662C14.6015 11.2677 14.5001 11.1692 14.3988 11.1692H12.017V9.49538C12.017 9.10154 12.3717 8.75692 12.7771 8.75692H14.4495C14.5508 8.75692 14.6522 8.65846 14.6522 8.56V6.19692C14.6522 6.09846 14.5508 6 14.4495 6H11.6623C9.98992 6 8.67233 7.28 8.67233 8.90462V11.2185H7.20271C7.10135 11.2185 7 11.3169 7 11.4154V13.68C7 13.7785 7.10135 13.8769 7.20271 13.8769H8.67233V14.0246H8.62165Z" fill="white"/>
</svg>
