<svg width="24" height="13" viewBox="0 0 24 13" fill="none" xmlns="http://www.w3.org/2000/svg">
<path d="M11.739 12.9415H13.1724C13.1724 12.9415 13.6079 12.8955 13.8256 12.6715C14.0312 12.4648 14.0252 12.0743 14.0252 12.0743C14.0252 12.0743 13.9949 10.248 14.89 9.97808C15.773 9.7139 16.904 11.7469 18.1015 12.528C19.0087 13.1195 19.6982 12.9874 19.6982 12.9874L22.9036 12.9472C22.9036 12.9472 24.5789 12.8496 23.7866 11.5976C23.7201 11.4942 23.3209 10.673 21.4037 8.9788C19.3958 7.20421 19.6619 7.49136 22.0871 4.43034C23.5628 2.56387 24.1495 1.42676 23.9681 0.938602C23.7927 0.47342 22.7101 0.594023 22.7101 0.594023L19.0994 0.616994C19.0994 0.616994 18.8333 0.582537 18.6337 0.697396C18.4402 0.806513 18.3132 1.06495 18.3132 1.06495C18.3132 1.06495 17.7386 2.50644 16.9826 3.73544C15.3739 6.32553 14.7328 6.46337 14.4727 6.30256C13.8619 5.92927 14.0131 4.7979 14.0131 3.99388C14.0131 1.48419 14.4122 0.433219 13.2329 0.163298C12.8398 0.0714098 12.5495 0.0139798 11.5455 0.0024938C10.2573 -0.0089922 9.16865 0.00823681 8.55175 0.295387C8.14049 0.484906 7.82599 0.909887 8.01953 0.938602C8.2554 0.967317 8.79972 1.07643 9.08397 1.44973C9.4529 1.9264 9.4408 3.00034 9.4408 3.00034C9.4408 3.00034 9.65248 5.95798 8.94487 6.32553C8.46103 6.57823 7.78971 6.06136 6.35634 3.71247C5.62453 2.50644 5.06812 1.17407 5.06812 1.17407C5.06812 1.17407 4.9532 0.909887 4.75967 0.777798C4.52985 0.616995 4.2093 0.565307 4.2093 0.565307L0.780099 0.588279C0.780099 0.588279 0.26602 0.599765 0.078533 0.812256C-0.0908104 1.00178 0.0664371 1.3923 0.0664371 1.3923C0.0664371 1.3923 2.75174 7.35927 5.79387 10.3629C8.57594 13.1195 11.739 12.9415 11.739 12.9415Z" fill="#547496"/>
</svg>
