<svg width="26" height="14" viewBox="0 0 26 14" fill="none" xmlns="http://www.w3.org/2000/svg">
<path d="M12.7173 13.8659H14.2701C14.2701 13.8659 14.7419 13.8166 14.9777 13.5767C15.2005 13.3551 15.1939 12.9367 15.1939 12.9367C15.1939 12.9367 15.1612 10.98 16.1309 10.6908C17.0875 10.4078 18.3127 12.586 19.61 13.4228C20.5928 14.0566 21.3397 13.9151 21.3397 13.9151L24.8122 13.872C24.8122 13.872 26.6271 13.7674 25.7688 12.426C25.6968 12.3152 25.2643 11.4353 23.1874 9.62014C21.0121 7.7188 21.3004 8.02646 23.9277 4.7468C25.5264 2.747 26.1619 1.52867 25.9654 1.00565C25.7754 0.507235 24.6026 0.636453 24.6026 0.636453L20.691 0.661066C20.691 0.661066 20.4028 0.624146 20.1865 0.747211C19.9769 0.864121 19.8393 1.14102 19.8393 1.14102C19.8393 1.14102 19.2169 2.68547 18.3979 4.00226C16.655 6.77736 15.9605 6.92503 15.6788 6.75274C15.017 6.35279 15.1808 5.1406 15.1808 4.27915C15.1808 1.5902 15.6133 0.464163 14.3356 0.174962C13.9098 0.0765105 13.5953 0.0149783 12.5076 0.00267193C11.1121 -0.0096345 9.9327 0.00882515 9.2644 0.316486C8.81886 0.519542 8.47816 0.974879 8.68782 1.00565C8.94335 1.03641 9.53303 1.15332 9.84097 1.55328C10.2406 2.064 10.2275 3.21465 10.2275 3.21465C10.2275 3.21465 10.4569 6.38355 9.69028 6.77736C9.16612 7.0481 8.43885 6.49431 6.88603 3.97765C6.09324 2.68547 5.49046 1.25793 5.49046 1.25793C5.49046 1.25793 5.36597 0.974879 5.15631 0.833355C4.90733 0.661066 4.56008 0.605687 4.56008 0.605687L0.845107 0.630299C0.845107 0.630299 0.288189 0.642606 0.0850774 0.870275C-0.098378 1.07333 0.0719735 1.49175 0.0719735 1.49175C0.0719735 1.49175 2.98105 7.88494 6.2767 11.1031C9.29061 14.0566 12.7173 13.8659 12.7173 13.8659Z" fill="#84C552"/>
</svg>
