<svg width="12" height="25" viewBox="0 0 12 25" fill="none" xmlns="http://www.w3.org/2000/svg">
<path fill-rule="evenodd" clip-rule="evenodd" d="M2.41509 12.3019V24.2264C2.41509 24.3774 2.56604 24.5283 2.71698 24.5283H7.16981C7.32075 24.5283 7.4717 24.3774 7.4717 24.2264V12.1509H10.717C10.8679 12.1509 11.0189 12 11.0189 11.8491L11.3208 8.22642C11.3208 8.07547 11.1698 7.92453 11.0189 7.92453H7.4717V5.35849C7.4717 4.75472 8 4.22642 8.60377 4.22642H11.0943C11.2453 4.22642 11.3962 4.07547 11.3962 3.92453V0.301887C11.3962 0.150944 11.2453 0 11.0943 0H6.9434C4.45283 0 2.49057 1.96226 2.49057 4.45283V8H0.301886C0.150943 8 0 8.15094 0 8.30189V11.7736C0 11.9245 0.150943 12.0755 0.301886 12.0755H2.49057V12.3019H2.41509Z" fill="#84C552"/>
</svg>
