<svg width="20" height="21" viewBox="0 0 20 21" fill="none" xmlns="http://www.w3.org/2000/svg">
<path d="M17 1.27136H3C1.89543 1.27136 1 2.16679 1 3.27136V17.2714C1 18.3759 1.89543 19.2714 3 19.2714H17C18.1046 19.2714 19 18.3759 19 17.2714V3.27136C19 2.16679 18.1046 1.27136 17 1.27136Z" stroke="#6D6D6D" stroke-width="2" stroke-linecap="round" stroke-linejoin="round"/>
<path d="M6.5 8.27134C7.32843 8.27134 8 7.59975 8 6.77129C8 5.94284 7.32843 5.27124 6.5 5.27124C5.67157 5.27124 5 5.94284 5 6.77129C5 7.59975 5.67157 8.27134 6.5 8.27134Z" stroke="#6D6D6D" stroke-width="2" stroke-linecap="round" stroke-linejoin="round"/>
<path d="M19 13.2713L14 8.2713L3 19.2713" stroke="#6D6D6D" stroke-width="2" stroke-linecap="round" stroke-linejoin="round"/>
</svg>
