<svg width="56" height="23" viewBox="0 0 56 23" fill="none" xmlns="http://www.w3.org/2000/svg">
<path d="M8.65965 11.5033C8.11057 11.5033 7.70098 11.1454 7.70098 10.5069V9.43385H2.28275V10.5069C2.28275 11.1462 1.87396 11.5033 1.32488 11.5033C0.774997 11.5033 0.366211 11.1454 0.366211 10.5069V8.7435C0.366211 8.10428 0.800798 7.74712 1.32488 7.74712C1.70787 7.74712 2.23195 5.01286 2.23195 3.35169V1.33256C2.23195 0.693345 2.65364 0.336182 3.19063 0.336182H7.50989C8.04607 0.336182 8.46856 0.694144 8.46856 1.33256V7.74632H8.66046C9.19744 7.74632 9.61913 8.10428 9.61913 8.7427V10.5061C9.61752 11.1454 9.20873 11.5033 8.65965 11.5033ZM6.55122 2.02292H4.1493V3.22385C4.1493 4.74439 3.81711 6.84023 3.40832 7.74712H6.55203V2.02292H6.55122Z" fill="white"/>
<path d="M11.2954 4.88511C11.2954 2.22756 13.0846 0.182861 15.6913 0.182861C18.2593 0.182861 20.0871 2.29148 20.0871 4.88511C20.0871 7.52988 18.3109 9.58657 15.6913 9.58657C13.0966 9.58657 11.2954 7.52988 11.2954 4.88511ZM18.0932 4.88511C18.0932 3.339 17.2877 1.94631 15.6913 1.94631C14.0948 1.94631 13.2894 3.339 13.2894 4.88511C13.2894 6.44401 14.069 7.82392 15.6913 7.82392C17.3135 7.82392 18.0932 6.44321 18.0932 4.88511Z" fill="white"/>
<path d="M26.3124 0.182861C27.2452 0.182861 29.0594 0.489687 29.0594 1.61391C29.0594 2.07415 28.7401 2.46966 28.2676 2.46966C27.7435 2.46966 27.3855 2.02221 26.3124 2.02221C24.728 2.02221 23.9104 3.36377 23.9104 4.92267C23.9104 6.44321 24.7409 7.74641 26.3124 7.74641C27.3855 7.74641 27.8201 7.20947 28.3442 7.20947C28.9191 7.20947 29.1876 7.78477 29.1876 8.07801C29.1876 9.30451 27.2581 9.58577 26.3124 9.58577C23.7186 9.58577 21.9165 7.52908 21.9165 4.88431C21.9165 2.22676 23.7057 0.182861 26.3124 0.182861Z" fill="white"/>
<path d="M33.0119 2.09963H31.6187C31.0051 2.09963 30.7495 1.65217 30.7495 1.2175C30.7495 0.770052 31.0688 0.336182 31.6187 0.336182H36.3209C36.87 0.336182 37.1901 0.770851 37.1901 1.2175C37.1901 1.65217 36.9345 2.09963 36.3209 2.09963H34.9285V8.51338C34.9285 9.1526 34.5197 9.50977 33.9698 9.50977C33.4199 9.50977 33.0111 9.1518 33.0111 8.51338V2.09963H33.0119Z" fill="white"/>
<path d="M45.1666 1.61386L41.806 8.9481C41.627 9.33163 41.3077 9.51061 40.9884 9.51061C40.4901 9.51061 39.966 9.13986 39.966 8.59093C39.966 8.4503 40.0039 8.30968 40.0684 8.15626L40.8094 6.53345L38.4325 1.62665C38.3559 1.47324 38.3301 1.31982 38.3301 1.1792C38.3301 0.643052 38.8542 0.259521 39.3524 0.259521C39.6717 0.259521 39.9781 0.425717 40.17 0.822032L41.8568 4.25943L43.4282 0.822032C43.6072 0.425717 43.9394 0.259521 44.2716 0.259521C44.7699 0.259521 45.2682 0.643052 45.2682 1.1792C45.269 1.31982 45.2303 1.46045 45.1666 1.61386Z" fill="white"/>
<path d="M55.0985 1.33256V8.51338C55.0985 9.1526 54.6897 9.50977 54.1398 9.50977C53.5907 9.50977 53.1811 9.1518 53.1811 8.51338V2.02292H49.1691V8.51338C49.1691 9.1526 48.7603 9.50977 48.2104 9.50977C47.6605 9.50977 47.2517 9.1518 47.2517 8.51338V1.33256C47.2517 0.693345 47.6734 0.336182 48.2104 0.336182H54.139C54.6768 0.336182 55.0985 0.694144 55.0985 1.33256Z" fill="white"/>
<path d="M0.520264 17.6622C0.520264 15.0047 2.30941 12.96 4.91613 12.96C7.48414 12.96 9.31199 15.0686 9.31199 17.6622C9.31199 20.307 7.53575 22.3645 4.91613 22.3645C2.3215 22.3645 0.520264 20.307 0.520264 17.6622ZM7.31805 17.6622C7.31805 16.1161 6.51338 14.7234 4.91613 14.7234C3.31888 14.7234 2.51421 16.1161 2.51421 17.6622C2.51421 19.2211 3.29388 20.601 4.91613 20.601C6.53837 20.601 7.31805 19.2211 7.31805 17.6622Z" fill="white"/>
<path d="M13.3217 14.877H11.9292C11.3156 14.877 11.0601 14.4295 11.0601 13.9948C11.0601 13.5474 11.3793 13.1135 11.9292 13.1135H16.6315C17.1814 13.1135 17.5007 13.5482 17.5007 13.9948C17.5007 14.4295 17.2451 14.877 16.6315 14.877H15.239V21.2907C15.239 21.9299 14.8302 22.2871 14.2804 22.2871C13.7313 22.2871 13.3217 21.9291 13.3217 21.2907V14.877Z" fill="white"/>
<path d="M19.6067 13.9829C19.6067 13.4587 19.9897 13.0377 20.5654 13.0377C21.1152 13.0377 21.5232 13.3956 21.5232 13.9829V16.7427L24.6669 13.3948C24.8072 13.2414 25.0499 13.0369 25.4079 13.0369C25.8933 13.0369 26.3537 13.4076 26.3537 13.9565C26.3537 14.2889 26.1489 14.5574 25.7272 14.9785L23.3124 17.3548L26.2642 20.4342C26.5585 20.741 26.8012 21.0223 26.8012 21.405C26.8012 22.0051 26.3287 22.2864 25.8046 22.2864C25.4337 22.2864 25.191 22.069 24.8338 21.6855L21.524 18.1083V21.3667C21.524 21.8653 21.141 22.2864 20.5662 22.2864C20.0171 22.2864 19.6075 21.9284 19.6075 21.3667V13.9829H19.6067Z" fill="white"/>
<path d="M29.0989 14.1106C29.0989 13.5098 29.4569 13.1143 30.0954 13.1143H32.3571C34.2357 13.1143 35.6282 14.3408 35.6282 16.1681C35.6282 18.0338 34.1841 19.1964 32.4337 19.1964H31.0154V21.2915C31.0154 21.9307 30.6066 22.2878 30.0567 22.2878C29.5077 22.2878 29.0989 21.9299 29.0989 21.2915V14.1106ZM31.0154 17.5089H32.3192C33.1238 17.5089 33.635 16.9216 33.635 16.1545C33.635 15.3883 33.1238 14.8002 32.3192 14.8002H31.0154V17.5089Z" fill="white"/>
<path d="M41.1214 16.5893C42.9742 16.5893 44.3159 17.4578 44.3159 19.3747C44.3159 21.1764 43.1145 22.2112 41.3512 22.2112H38.9106C38.3228 22.2112 37.8882 21.8404 37.8882 21.2404V14.034C37.8882 13.3956 38.297 13.0376 38.8469 13.0376C39.3967 13.0376 39.8055 13.3956 39.8055 14.034V16.5893H41.1214ZM39.8047 20.5244H41.1206C41.8108 20.5244 42.3219 20.0642 42.3219 19.3491C42.3219 18.7482 41.8616 18.276 40.9674 18.276H39.8047V20.5244ZM46.3219 13.0376C46.871 13.0376 47.2806 13.3956 47.2806 14.034V21.2915C47.2806 21.9307 46.8718 22.2879 46.3219 22.2879C45.772 22.2879 45.3632 21.9299 45.3632 21.2915V14.034C45.3632 13.3948 45.772 13.0376 46.3219 13.0376Z" fill="white"/>
<path d="M51.6483 14.877H50.2559C49.6423 14.877 49.3867 14.4295 49.3867 13.9948C49.3867 13.5474 49.706 13.1135 50.2559 13.1135H54.9581C55.5072 13.1135 55.8273 13.5482 55.8273 13.9948C55.8273 14.4295 55.5717 14.877 54.9581 14.877H53.5657V21.2907C53.5657 21.9299 53.1569 22.2871 52.607 22.2871C52.0571 22.2871 51.6483 21.9291 51.6483 21.2907V14.877Z" fill="white"/>
</svg>
