<svg width="440" height="265" viewBox="0 0 440 265" fill="none" xmlns="http://www.w3.org/2000/svg">
<path d="M171.093 132.021C181.541 132.021 190.011 123.552 190.011 113.104C190.011 102.656 181.541 94.1859 171.093 94.1859C160.646 94.1859 152.176 102.656 152.176 113.104C152.176 123.552 160.646 132.021 171.093 132.021Z" fill="#84C552"/>
<path d="M28.8125 196.576C37.325 168.848 56.8846 144.694 81.7305 129.73C70.6793 151.207 63.6333 174.736 61.0625 198.752C50.8047 194.361 39.5968 193.712 28.8125 196.576Z" fill="#F9A130"/>
<path d="M81.1166 217.68C73.1154 217.681 68.4144 214.728 63.502 211.644C58.9147 208.763 54.1716 205.786 46.1283 204.703C29.5471 202.473 12.9222 211.284 4.93196 215.517C3.60867 216.218 2.46648 216.824 1.59299 217.237C1.15415 217.445 0.631063 217.345 0.30003 216.99C-0.0310023 216.635 -0.0950188 216.107 0.142516 215.683C12.4606 193.727 25.1848 174.011 37.9619 157.082C51.119 139.65 64.3586 125.143 77.3144 113.963C90.8168 102.31 104.106 94.1958 116.813 89.846C130.184 85.268 143.05 84.8098 155.056 88.4832C155.644 88.6634 155.976 89.2876 155.796 89.8764C155.616 90.4651 154.992 90.7979 154.403 90.6168C142.857 87.0832 130.453 87.5339 117.536 91.9569C105.101 96.214 92.0592 104.187 78.7733 115.651C65.9371 126.729 52.8053 141.12 39.7435 158.426C27.6603 174.435 15.6193 192.96 3.9237 213.526C12.1321 209.175 29.1588 200.168 46.4256 202.491C54.9482 203.638 60.1226 206.888 64.6888 209.754C70.9422 213.681 76.344 217.072 88.8289 214.626C89.4329 214.507 90.02 214.901 90.1387 215.506C90.2575 216.111 89.8633 216.697 89.2585 216.816C86.1891 217.417 83.5055 217.68 81.1166 217.68Z" fill="#2F2E78"/>
<path d="M136.106 47.0816C133.152 46.9173 131.753 29.0938 162.507 29.6741C193.261 30.2545 146.55 47.6619 136.106 47.0816Z" fill="#F9A130"/>
<path d="M230.261 249.094C240.603 249.094 248.987 240.71 248.987 230.367C248.987 220.025 240.603 211.641 230.261 211.641C219.918 211.641 211.534 220.025 211.534 230.367C211.534 240.71 219.918 249.094 230.261 249.094Z" fill="#F9A130"/>
<path d="M139.922 253.797C165.591 253.797 186.4 232.988 186.4 207.319C186.4 181.649 165.591 160.84 139.922 160.84C114.252 160.84 93.4434 181.649 93.4434 207.319C93.4434 232.988 114.252 253.797 139.922 253.797Z" fill="#F9A130"/>
<path d="M154.493 60.6931C155.772 60.6931 156.81 59.656 156.81 58.3767C156.81 57.0974 155.772 56.0603 154.493 56.0603C153.214 56.0603 152.177 57.0974 152.177 58.3767C152.177 59.656 153.214 60.6931 154.493 60.6931Z" fill="#2F2E78"/>
<path d="M172.345 59.8753C173.624 59.8753 174.661 58.8382 174.661 57.5589C174.661 56.2796 173.624 55.2425 172.345 55.2425C171.065 55.2425 170.028 56.2796 170.028 57.5589C170.028 58.8382 171.065 59.8753 172.345 59.8753Z" fill="#2F2E78"/>
<path d="M150.183 67.7655C152.062 67.7655 153.586 66.2423 153.586 64.3633C153.586 62.4844 152.062 60.9612 150.183 60.9612C148.304 60.9612 146.781 62.4844 146.781 64.3633C146.781 66.2423 148.304 67.7655 150.183 67.7655Z" fill="#F9A130"/>
<path d="M176.325 67.7655C178.204 67.7655 179.727 66.2423 179.727 64.3633C179.727 62.4844 178.204 60.9612 176.325 60.9612C174.446 60.9612 172.923 62.4844 172.923 64.3633C172.923 66.2423 174.446 67.7655 176.325 67.7655Z" fill="#F9A130"/>
<path d="M142.56 158.778C141.645 158.778 140.555 158.501 139.339 157.831C138.799 157.534 138.604 156.855 138.901 156.315C139.199 155.775 139.877 155.579 140.417 155.877C141.649 156.556 142.603 156.626 143.087 156.465C143.263 156.406 143.326 156.334 143.333 156.318C143.341 156.274 143.262 155.954 142.675 155.543C139.512 153.33 135.438 149.726 135.267 149.574C134.805 149.165 134.763 148.46 135.171 147.998C135.58 147.537 136.286 147.495 136.746 147.903C136.788 147.94 140.897 151.575 143.955 153.714C145.701 154.937 145.852 156.497 145.226 157.5C144.761 158.247 143.83 158.778 142.56 158.778Z" fill="#2F2E78"/>
<path d="M142.263 168.473C142.044 168.473 141.823 168.409 141.628 168.275C141.122 167.923 140.995 167.229 141.347 166.722C143.484 163.639 138.484 156.574 136.563 154.342C136.161 153.875 136.214 153.17 136.681 152.768C137.149 152.367 137.852 152.419 138.254 152.885C138.339 152.983 140.34 155.318 141.98 158.257C144.333 162.474 144.737 165.75 143.181 167.993C142.964 168.306 142.617 168.473 142.263 168.473Z" fill="#2F2E78"/>
<path d="M140.953 170.77C140.565 170.77 140.189 170.567 139.983 170.207C139.698 169.708 139.841 169.082 140.296 168.751C140.354 168.52 140.474 167.39 138.894 163.678C137.929 161.411 136.833 159.38 136.822 159.36C136.529 158.817 136.73 158.141 137.273 157.848C137.814 157.554 138.492 157.756 138.785 158.298C138.839 158.399 140.129 160.792 141.185 163.377C141.821 164.932 142.24 166.24 142.429 167.261C142.744 168.962 142.433 170.093 141.505 170.623C141.331 170.722 141.141 170.77 140.953 170.77Z" fill="#2F2E78"/>
<path d="M139.247 172.016C138.63 172.016 138.131 171.517 138.131 170.9C138.131 170.632 138.225 170.386 138.383 170.194C138.098 168.984 136.363 165.345 133.694 160.841C133.38 160.311 133.555 159.627 134.085 159.312C134.615 158.998 135.3 159.173 135.614 159.703C135.628 159.727 137.022 162.083 138.313 164.556C140.963 169.633 140.849 170.626 140.45 171.326C140.204 171.758 139.754 172.016 139.247 172.016Z" fill="#2F2E78"/>
<path d="M138.042 172.018C136.094 172.018 134.343 169.244 133.145 167.038C131.79 164.541 130.771 161.971 130.729 161.862C130.504 161.289 130.785 160.641 131.358 160.415C131.93 160.188 132.579 160.47 132.805 161.043C132.814 161.066 133.709 163.327 134.895 165.577C136.884 169.356 137.892 169.743 138.032 169.779C138.599 169.585 139.222 169.874 139.437 170.439C139.655 171.015 139.366 171.659 138.789 171.877C138.538 171.973 138.287 172.018 138.042 172.018Z" fill="#2F2E78"/>
<path d="M134.754 171.36C134.7 171.36 134.644 171.356 134.588 171.348C132.202 170.992 129.929 167.775 127.64 161.512C126.049 157.158 125.048 152.964 125.007 152.788C124.865 152.188 125.236 151.587 125.835 151.444C126.434 151.303 127.036 151.673 127.178 152.272C127.189 152.314 128.194 156.53 129.742 160.762C132.473 168.227 134.394 169.062 134.917 169.14C135.527 169.231 135.947 169.799 135.856 170.408C135.774 170.963 135.298 171.36 134.754 171.36Z" fill="#2F2E78"/>
<path d="M203.276 105.469C200.645 105.469 198.039 104.731 195.579 102.946C194.01 101.807 192.515 100.637 191.069 99.5056C184.411 94.2942 178.66 89.7937 169.229 90.8255C168.615 90.8929 168.065 90.4498 167.998 89.8375C167.931 89.2251 168.374 88.6742 168.986 88.6068C179.319 87.4773 185.695 92.4664 192.445 97.7486C193.875 98.868 195.353 100.025 196.89 101.141C200.6 103.833 205.191 103.91 210.536 101.371C215.462 99.0297 220.031 94.9428 222.995 91.9264C223.427 91.4867 224.134 91.4808 224.573 91.913C225.012 92.3451 225.018 93.0518 224.586 93.4906C219.656 98.5066 211.354 105.468 203.276 105.469Z" fill="#2F2E78"/>
<path d="M200.432 118.307C196.053 118.307 191.661 117.616 187.439 116.177C186.855 115.978 186.544 115.345 186.743 114.761C186.941 114.177 187.576 113.866 188.159 114.065C195.632 116.611 204.082 116.717 211.951 114.365C219.805 112.017 226.826 107.298 231.721 101.078C232.102 100.594 232.803 100.511 233.288 100.891C233.772 101.272 233.855 101.974 233.475 102.458C225.504 112.587 213.024 118.307 200.432 118.307Z" fill="#2F2E78"/>
<path d="M232.598 102.885C232.47 102.885 232.338 102.863 232.209 102.815C231.794 102.661 230.53 102.19 227.04 98.0555C225.281 95.9725 223.68 93.8035 223.245 93.101C222.921 92.5771 223.083 91.8889 223.607 91.5646C224.131 91.2403 224.818 91.402 225.143 91.926C225.493 92.4928 226.998 94.5447 228.746 96.616C231.707 100.125 232.799 100.653 232.988 100.723C233.565 100.938 233.859 101.581 233.645 102.158C233.478 102.607 233.052 102.885 232.598 102.885Z" fill="#2F2E78"/>
<path d="M225.772 94.0097C225.605 94.0097 225.436 93.9726 225.276 93.8926C224.724 93.618 224.499 92.9483 224.773 92.3966C224.916 92.1094 225.201 90.7996 225.43 89.7483C226.355 85.4997 227.125 82.4235 228.629 81.5433C229.086 81.2754 229.609 81.2106 230.101 81.3605C232.77 82.1759 232.34 86.3715 232.109 88.6255C232.089 88.826 232.065 89.0644 232.056 89.1983C232.096 89.4173 232.071 89.6506 231.97 89.868C231.712 90.4273 231.049 90.6707 230.49 90.4121C229.721 90.0558 229.791 89.3609 229.89 88.3981C230.245 84.9345 229.879 83.9102 229.613 83.6095C228.848 84.5436 227.99 88.4806 227.611 90.2226C227.235 91.9519 227.027 92.8784 226.772 93.3897C226.576 93.7831 226.181 94.0097 225.772 94.0097ZM231.429 88.3888C231.53 88.436 231.62 88.4958 231.699 88.5666C231.623 88.4992 231.534 88.4377 231.429 88.3888ZM231.427 88.388C231.427 88.388 231.428 88.388 231.429 88.3888C231.429 88.3888 231.428 88.3888 231.427 88.388ZM231.425 88.3871C231.426 88.3871 231.426 88.388 231.427 88.388C231.427 88.388 231.426 88.388 231.425 88.3871Z" fill="#2F2E78"/>
<path d="M231.191 88.0578C230.986 88.0578 230.78 88.0014 230.594 87.8843C230.074 87.5541 229.92 86.8651 230.25 86.3445C230.419 86.0775 234.436 79.7887 237.967 78.1993C240.813 76.9181 241.946 78.7662 241.994 78.8462C242.307 79.3769 242.131 80.0608 241.6 80.3742C241.095 80.6732 240.45 80.5275 240.119 80.0532C240.028 79.9791 239.659 79.8848 238.883 80.2343C236.458 81.326 233.189 85.8779 232.134 87.5398C231.922 87.8742 231.561 88.0578 231.191 88.0578ZM240.073 79.9825C240.073 79.9825 240.073 79.9833 240.073 79.9825C240.073 79.9833 240.073 79.9825 240.073 79.9825ZM240.072 79.9816C240.072 79.9816 240.072 79.9825 240.073 79.9825C240.073 79.9816 240.073 79.9816 240.072 79.9816Z" fill="#2F2E78"/>
<path d="M235.817 86.7294C235.575 86.7294 235.333 86.651 235.128 86.4901C234.644 86.1094 234.56 85.4078 234.941 84.9234C234.997 84.8527 236.316 83.1807 237.924 81.5659C240.446 79.0348 242.178 78.1048 243.544 78.5496C244.131 78.7399 244.451 79.37 244.26 79.9563C244.072 80.5366 243.452 80.8567 242.871 80.6773C242.87 80.6773 242.87 80.6773 242.869 80.6773C242.778 80.6773 241.862 80.7472 239.378 83.2716C237.922 84.7516 236.709 86.2888 236.696 86.304C236.474 86.5828 236.147 86.7294 235.817 86.7294Z" fill="#2F2E78"/>
<path d="M237.491 88.9927C237.136 88.9927 236.788 88.8242 236.571 88.51C236.254 88.0501 236.329 87.4352 236.725 87.0646C236.797 86.9829 236.987 86.7496 237.171 86.5238C241.612 81.0757 243.624 79.5578 245.143 80.508C245.666 80.8348 245.825 81.523 245.498 82.0452C245.22 82.49 244.68 82.6719 244.202 82.5135C243.758 82.6753 242.458 83.569 238.9 87.9339C238.363 88.5934 238.294 88.6785 238.123 88.7956C237.93 88.9287 237.709 88.9927 237.491 88.9927ZM236.857 86.9576C236.857 86.9576 236.856 86.9585 236.855 86.9585C236.856 86.9585 236.857 86.9585 236.857 86.9576Z" fill="#2F2E78"/>
<path d="M230.389 100.523C229.866 100.523 229.399 100.153 229.295 99.6202C229.177 99.0154 229.572 98.4291 230.178 98.312C232.104 97.9372 235.117 96.106 238.24 93.4122C241.233 90.8297 243.77 87.943 244.858 85.8777C245.17 85.2847 245.302 84.8677 245.349 84.6032C244.584 85.1322 243.234 86.6829 241.319 89.2284C241.046 89.5915 240.811 89.9048 240.634 90.1272C240.379 90.4464 239.85 91.1102 239.038 90.7808C238.467 90.5492 238.193 89.8981 238.424 89.327C238.506 89.1265 238.638 88.9631 238.802 88.8443C238.946 88.6725 239.257 88.2581 239.536 87.8874C242.223 84.3143 243.969 82.3475 245.5 82.1891C246.002 82.1378 246.479 82.2843 246.843 82.6044C247.348 83.0466 247.864 83.8898 247.457 85.3933C246.236 89.9149 236.292 99.3969 230.604 100.503C230.532 100.516 230.46 100.523 230.389 100.523ZM239.875 88.7112C239.876 88.7112 239.876 88.7112 239.876 88.7121C239.876 88.7112 239.876 88.7112 239.875 88.7112ZM239.711 88.659C239.765 88.6716 239.821 88.6893 239.875 88.7112C239.819 88.6893 239.764 88.6716 239.711 88.659Z" fill="#2F2E78"/>
<path d="M139.61 110.758C139.161 110.758 138.739 110.485 138.568 110.042C138.348 109.466 138.636 108.821 139.211 108.6L148.461 105.058C149.037 104.837 149.682 105.125 149.903 105.7C150.123 106.276 149.835 106.921 149.26 107.141L140.01 110.684C139.878 110.735 139.743 110.758 139.61 110.758Z" fill="#2F2E78"/>
<path d="M136.425 147.841C135.976 147.841 135.554 147.568 135.383 147.124C135.366 147.078 133.569 142.391 129.682 132.673C125.527 122.286 130.613 116.778 130.832 116.548C131.257 116.101 131.963 116.084 132.409 116.509C132.854 116.933 132.872 117.635 132.452 118.082C132.265 118.284 128.164 122.868 131.754 131.844C135.648 141.58 137.45 146.279 137.467 146.325C137.688 146.901 137.4 147.546 136.825 147.767C136.693 147.817 136.558 147.841 136.425 147.841Z" fill="#2F2E78"/>
<path d="M124.025 154.435C123.558 154.435 123.123 154.139 122.967 153.671C122.95 153.618 121.144 148.212 116.481 135.194C111.642 121.687 116.541 112.612 116.753 112.233C117.052 111.694 117.732 111.501 118.27 111.799C118.808 112.098 119.002 112.775 118.704 113.313C118.658 113.398 114.102 121.936 118.581 134.441C123.256 147.489 125.066 152.912 125.084 152.966C125.279 153.55 124.963 154.182 124.378 154.377C124.262 154.416 124.142 154.435 124.025 154.435Z" fill="#2F2E78"/>
<path d="M123.239 104.836C122.969 104.836 122.7 104.739 122.486 104.543C122.031 104.127 122 103.421 122.416 102.966C129.2 95.5553 137.612 91.999 143.475 90.3211C149.82 88.5042 154.521 88.4352 154.718 88.4326C154.722 88.4326 154.726 88.4326 154.73 88.4326C155.34 88.4326 155.839 88.9246 155.845 89.5369C155.852 90.1527 155.357 90.6572 154.742 90.6648C154.696 90.6656 150.09 90.7398 144.02 92.4867C138.454 94.088 130.475 97.4682 124.062 104.474C123.842 104.715 123.54 104.836 123.239 104.836Z" fill="#2F2E78"/>
<path d="M155.516 93.4207C154.934 93.4207 154.445 92.9709 154.404 92.3821L153.813 83.9193C153.77 83.3044 154.234 82.7712 154.849 82.7283C155.461 82.6853 155.997 83.1486 156.04 83.7635L156.63 92.2263C156.673 92.8412 156.21 93.3744 155.595 93.4173C155.568 93.4199 155.542 93.4207 155.516 93.4207Z" fill="#2F2E78"/>
<path d="M169.106 90.8322C168.613 90.8322 168.161 90.502 168.029 90.0026L166.578 84.5409C166.419 83.9454 166.774 83.3339 167.37 83.1764C167.966 83.018 168.577 83.3726 168.734 83.9682L170.185 89.4298C170.344 90.0253 169.989 90.6368 169.394 90.7943C169.298 90.8196 169.201 90.8322 169.106 90.8322Z" fill="#2F2E78"/>
<path d="M160.931 93.982C157.987 93.982 155.492 93.4429 155.274 93.3949C154.673 93.2609 154.294 92.6654 154.427 92.0631C154.561 91.4617 155.156 91.0835 155.758 91.2158C158.497 91.8214 166.063 92.63 168.148 89.1437C168.465 88.6147 169.15 88.442 169.679 88.7587C170.208 89.0754 170.38 89.7602 170.064 90.2892C168.281 93.271 164.311 93.982 160.931 93.982Z" fill="#2F2E78"/>
<path d="M160.429 85.6269C151.349 85.6269 145.768 81.5138 142.621 77.9087C138.95 73.703 137.758 69.3558 137.709 69.1721C137.55 68.5766 137.904 67.9651 138.498 67.8059C139.094 67.6467 139.704 67.9996 139.864 68.5935C139.875 68.6339 141 72.6905 144.361 76.5079C148.816 81.5694 154.926 83.8606 162.522 83.3189C169.999 82.7849 175.778 79.7989 179.234 74.6843C182.761 69.4644 183.673 62.244 181.615 55.8407C179.893 50.4844 178.059 47.4453 176.822 45.839C175.496 44.1164 174.567 43.6414 174.557 43.6363L174.577 43.6456L175.494 41.6114C175.96 41.8219 180.149 43.9867 183.739 55.1576C186.003 62.1986 184.984 70.1593 181.083 75.9335C178.396 79.9101 173.022 84.8056 162.681 85.5444C161.908 85.6008 161.158 85.6269 160.429 85.6269Z" fill="#2F2E78"/>
<path d="M149.021 56.2233C148.861 56.2233 148.699 56.1887 148.545 56.1155C147.988 55.8518 147.75 55.1864 148.014 54.6296C148.924 52.7091 150.535 51.6292 152.674 51.5088C154.164 51.4237 155.372 51.8457 155.505 51.8937C156.085 52.1043 156.383 52.7445 156.173 53.324C155.963 53.9018 155.324 54.2 154.747 53.9928C154.725 53.9852 153.801 53.666 152.74 53.7409C151.462 53.8302 150.576 54.4342 150.03 55.5856C149.84 55.9874 149.439 56.2233 149.021 56.2233Z" fill="#2F2E78"/>
<path d="M176.182 54.4515C175.896 54.4515 175.611 54.3429 175.393 54.1247C173.345 52.077 171.044 53.7617 170.947 53.8349C170.454 54.2047 169.754 54.1045 169.384 53.6117C169.015 53.119 169.115 52.419 169.608 52.0492C170.964 51.0317 174.25 49.8255 176.97 52.5462C177.406 52.9817 177.406 53.6884 176.97 54.1239C176.753 54.342 176.467 54.4515 176.182 54.4515Z" fill="#2F2E78"/>
<path d="M165.334 67.3349C164.088 67.3349 162.939 66.9146 162.234 66.4993C161.702 66.1868 161.525 65.5028 161.838 64.9722C162.15 64.4415 162.834 64.2638 163.365 64.5763C163.619 64.722 165.932 65.9703 167.433 64.0616C168.019 63.3153 168.224 62.6836 168.042 62.1858C167.611 61.0074 165.232 60.1633 164.148 59.9393C163.544 59.8146 163.156 59.2242 163.281 58.6211C163.406 58.018 163.996 57.6288 164.599 57.7543C165.064 57.8503 169.169 58.7693 170.137 61.4192C170.457 62.2944 170.553 63.7028 169.187 65.4405C168.065 66.8691 166.645 67.3349 165.334 67.3349Z" fill="#2F2E78"/>
<path d="M162.346 79.0577C156.421 79.0577 152.38 72.7024 152.209 72.4278C151.994 72.0832 151.982 71.6494 152.179 71.2948C152.376 70.9402 152.749 70.7204 153.155 70.7204C153.155 70.7204 153.155 70.7204 153.156 70.7204C153.267 70.7204 164.281 70.7397 170.312 70.7397C170.677 70.7397 171.02 70.9192 171.228 71.2199C171.437 71.5206 171.485 71.9038 171.357 72.2467C171.257 72.5154 168.826 78.8328 162.642 79.0535C162.543 79.056 162.444 79.0577 162.346 79.0577ZM155.42 72.9559C156.899 74.6355 159.491 76.9317 162.562 76.823C164.496 76.7539 166.198 75.8585 167.622 74.1613C167.965 73.7527 168.252 73.3434 168.484 72.9711C164.191 72.9685 158.523 72.9609 155.42 72.9559Z" fill="#2F2E78"/>
<path d="M139.573 66.4573C139.316 66.4573 139.057 66.3688 138.848 66.1886C137.552 65.0775 137.425 64.0095 137.547 63.3078C137.604 62.9861 138.011 61.3309 140.554 60.3622C141.13 60.1424 141.775 60.4321 141.994 61.0074C142.213 61.5827 141.925 62.2263 141.351 62.4461C140.647 62.719 139.81 63.3095 139.746 63.6911C139.715 63.8671 139.928 64.1746 140.3 64.4938C140.768 64.8948 140.822 65.5989 140.421 66.0673C140.2 66.325 139.887 66.4573 139.573 66.4573Z" fill="#2F2E78"/>
<path d="M139.556 70.2199C137.363 70.2199 134.613 69.4037 133.245 66.3941C131.374 62.2785 134.366 58.9177 136.21 57.7157C136.726 57.3787 137.418 57.5245 137.754 58.0408C138.09 58.5563 137.946 59.2462 137.431 59.5831C137.406 59.5999 136.423 60.262 135.684 61.3537C134.766 62.7089 134.633 64.0558 135.277 65.4709C136.835 68.9 140.885 67.8539 141.056 67.8075C141.651 67.6466 142.263 67.9996 142.423 68.5951C142.583 69.1898 142.231 69.8021 141.635 69.9622C141.08 70.1113 140.354 70.2199 139.556 70.2199Z" fill="#2F2E78"/>
<path d="M137.606 61.34C137.161 61.34 136.74 61.0713 136.567 60.6325C136.518 60.5078 135.361 57.5378 134.797 53.5772C134.036 48.2386 134.745 43.6538 136.848 40.319C139.407 36.2624 143.939 33.9764 150.32 33.5249C156.523 33.086 165.095 31.7552 170.704 27.9116C173.826 25.7721 174.526 23.8727 174.532 23.8542C174.727 23.2696 175.359 22.9537 175.944 23.1483C176.529 23.3429 176.844 23.9755 176.65 24.56C176.519 24.9509 173.201 34.1423 150.478 35.7511C144.845 36.1496 140.895 38.0869 138.737 41.5092C134.296 48.5511 138.6 59.7034 138.645 59.8154C138.871 60.3891 138.589 61.0368 138.015 61.2626C137.88 61.3148 137.742 61.34 137.606 61.34Z" fill="#2F2E78"/>
<path d="M142.919 50.909C142.676 50.909 142.431 50.8298 142.226 50.6672C141.743 50.284 141.662 49.5823 142.046 49.0997C145.447 44.8164 150.198 44.6303 156.214 44.3944C160.471 44.2277 165.299 44.0381 170.954 42.4226C174.129 41.5154 176.193 39.888 177.09 37.5834C179.161 32.2633 174.686 24.8652 174.64 24.7911C174.318 24.2663 174.483 23.579 175.007 23.2564C175.532 22.9338 176.219 23.0972 176.541 23.6219C176.751 23.9622 181.641 32.0283 179.172 38.3853C178.01 41.3772 175.451 43.4578 171.567 44.5671C165.653 46.2568 160.468 46.4598 156.301 46.6232C150.645 46.8448 146.558 47.0048 143.793 50.4861C143.574 50.7641 143.248 50.909 142.919 50.909Z" fill="#2F2E78"/>
<path d="M199.243 143.821C198.928 143.821 198.614 143.688 198.393 143.43C192.594 136.63 183.748 105.541 183.374 104.221C183.207 103.628 183.551 103.012 184.144 102.844C184.737 102.676 185.354 103.021 185.521 103.614C185.612 103.932 194.606 135.551 200.09 141.982C200.49 142.452 200.434 143.156 199.966 143.555C199.756 143.734 199.499 143.821 199.243 143.821Z" fill="#2F2E78"/>
<path d="M167.523 154.828C167.175 154.828 166.831 154.665 166.614 154.36C166.256 153.859 166.372 153.163 166.873 152.804C175.249 146.822 196.916 142.935 197.834 142.772C198.439 142.665 199.02 143.069 199.127 143.676C199.234 144.283 198.829 144.862 198.223 144.969C198.003 145.008 176.136 148.93 168.171 154.62C167.974 154.761 167.748 154.828 167.523 154.828Z" fill="#2F2E78"/>
<path d="M256.877 203.054C256.493 203.054 256.119 202.855 255.912 202.499C253.986 199.188 252.693 192.51 251.195 184.778C248.782 172.321 245.777 156.819 239.027 151.016C228.3 141.794 198.45 144.948 198.151 144.98C197.537 145.047 196.987 144.606 196.92 143.993C196.852 143.381 197.295 142.83 197.907 142.763C197.985 142.754 205.721 141.922 214.73 142.289C226.97 142.789 235.633 145.156 240.481 149.323C247.821 155.633 250.907 171.558 253.386 184.354C254.846 191.887 256.106 198.393 257.842 201.377C258.152 201.91 257.971 202.593 257.438 202.903C257.261 203.005 257.068 203.054 256.877 203.054Z" fill="#2F2E78"/>
<path d="M248.608 206.59C248.064 206.59 247.587 206.191 247.505 205.637C247.455 205.291 242.337 170.957 234.492 160.48C229.914 154.366 222.317 153.69 214.968 153.035L214.821 153.022C208.562 152.464 201.977 152.218 194.689 152.269C194.687 152.269 194.684 152.269 194.682 152.269C194.069 152.269 193.571 151.774 193.566 151.161C193.562 150.545 194.058 150.042 194.674 150.038C202.033 149.985 208.689 150.235 215.02 150.8L215.167 150.813C222.637 151.479 231.105 152.233 236.28 159.143C244.462 170.07 249.503 203.879 249.714 205.312C249.803 205.922 249.382 206.489 248.772 206.578C248.717 206.587 248.662 206.59 248.608 206.59Z" fill="#2F2E78"/>
<path d="M237.904 219.634C235.677 219.634 234.119 219.616 233.727 219.573C233.114 219.505 232.673 218.953 232.741 218.341C232.81 217.728 233.361 217.288 233.974 217.355C235.187 217.49 251.959 217.32 263.552 217.165C263.525 216.735 263.398 216.155 263.009 215.516C262.163 214.121 259.931 212.224 254.108 211.097C244.899 209.314 243.297 207.712 242.931 206.516C242.711 205.799 242.991 205.188 243.296 204.882C243.733 204.446 244.439 204.446 244.874 204.882C245.164 205.172 245.262 205.582 245.165 205.953C245.583 206.34 247.379 207.522 254.531 208.906C259.918 209.949 263.431 211.815 264.974 214.453C266.229 216.6 265.679 218.42 265.612 218.62C265.462 219.071 265.044 219.377 264.568 219.383C262.25 219.415 245.838 219.634 237.904 219.634ZM244.874 206.459L244.873 206.46C244.874 206.46 244.874 206.46 244.874 206.459Z" fill="#2F2E78"/>
<path d="M228.535 215.644C228.047 215.644 227.598 215.321 227.461 214.827C226.345 210.812 229.656 206.194 229.798 206C230.16 205.501 230.858 205.392 231.357 205.754C231.855 206.116 231.965 206.814 231.604 207.311C231.586 207.336 230.857 208.355 230.255 209.75C229.731 210.965 229.193 212.727 229.611 214.23C229.776 214.824 229.428 215.439 228.834 215.604C228.734 215.631 228.634 215.644 228.535 215.644Z" fill="#2F2E78"/>
<path d="M264.457 213.141C262.514 213.141 260.795 213.084 260.776 213.084C260.16 213.063 259.678 212.547 259.698 211.931C259.718 211.316 260.225 210.833 260.85 210.853C263.912 210.954 267.52 210.927 268.929 210.728C268.84 210.385 268.641 209.94 268.302 209.448C267.415 208.16 265.635 206.652 263.295 206.28C257.048 205.289 252.526 203.536 252.338 203.462C251.764 203.237 251.48 202.59 251.705 202.016C251.93 201.442 252.578 201.16 253.15 201.384C253.215 201.409 257.664 203.126 263.645 204.076C266.682 204.558 268.991 206.513 270.14 208.182C271.008 209.442 271.368 210.694 271.155 211.706C270.929 212.781 269.614 212.907 268.653 212.998C267.848 213.075 266.749 213.121 265.387 213.135C265.075 213.14 264.763 213.141 264.457 213.141Z" fill="#2F2E78"/>
<path d="M226.96 208.263C226.402 208.263 225.92 207.845 225.853 207.278L225.715 206.098C224.584 196.377 222.691 180.107 214.358 174.94C209.116 171.69 200.364 171.981 193.332 172.214C192.003 172.258 190.747 172.3 189.582 172.315C183.824 172.391 178.09 172.664 172.536 173.127C171.921 173.18 171.382 172.722 171.331 172.108C171.28 171.494 171.736 170.955 172.35 170.904C177.956 170.436 183.744 170.161 189.553 170.084C190.695 170.069 191.94 170.028 193.258 169.984C200.592 169.74 209.718 169.438 215.534 173.043C224.784 178.778 226.755 195.718 227.933 205.84L228.07 207.016C228.142 207.628 227.704 208.182 227.092 208.254C227.047 208.261 227.003 208.263 226.96 208.263Z" fill="#2F2E78"/>
<path d="M226.96 208.263C226.409 208.263 225.929 207.856 225.855 207.294C225.774 206.683 226.203 206.122 226.814 206.041C226.911 206.029 236.651 204.75 248.574 204.359C249.194 204.334 249.705 204.822 249.725 205.438C249.745 206.054 249.263 206.569 248.646 206.59C236.833 206.977 227.202 208.241 227.106 208.253C227.057 208.26 227.008 208.263 226.96 208.263Z" fill="#2F2E78"/>
<path d="M248.806 203.638C248.262 203.638 247.786 203.239 247.704 202.685C247.613 202.075 248.034 201.508 248.643 201.418C248.752 201.402 251.379 201.018 256.836 200.823C257.45 200.807 257.969 201.282 257.991 201.898C258.013 202.513 257.532 203.031 256.916 203.052C251.604 203.243 248.996 203.621 248.97 203.625C248.916 203.634 248.86 203.638 248.806 203.638Z" fill="#2F2E78"/>
<path d="M133.565 248.056C126.574 248.056 119.61 246.525 113.086 243.484C101.339 238.006 92.4283 228.282 87.9952 216.102C83.562 203.922 84.1373 190.744 89.615 178.997C95.0926 167.25 104.817 158.339 116.997 153.906C118.98 153.184 121.024 152.586 123.072 152.129C123.673 151.994 124.27 152.373 124.405 152.975C124.539 153.576 124.16 154.172 123.559 154.307C121.605 154.744 119.654 155.315 117.761 156.004C106.141 160.233 96.864 168.734 91.6382 179.941C86.4124 191.148 85.8633 203.719 90.0926 215.339C94.3219 226.958 102.823 236.236 114.03 241.461C120.253 244.363 126.898 245.823 133.566 245.823C138.906 245.823 144.26 244.887 149.427 243.006C161.047 238.777 170.325 230.276 175.55 219.069C180.776 207.862 181.325 195.291 177.096 183.672C171.563 168.469 158.332 157.183 142.568 154.218C141.962 154.104 141.563 153.52 141.677 152.915C141.791 152.309 142.375 151.909 142.98 152.025C159.516 155.134 173.391 166.969 179.193 182.908C183.627 195.088 183.051 208.265 177.574 220.012C172.096 231.759 162.371 240.67 150.191 245.103C144.774 247.075 139.161 248.056 133.565 248.056Z" fill="#2F2E78"/>
<path d="M133.727 232.693C122.577 232.693 111.744 227.061 105.544 217.272C100.806 209.791 99.2667 200.901 101.211 192.237C103.155 183.574 108.346 176.194 115.827 171.455C117.86 170.168 120.027 169.101 122.265 168.287C124.901 167.326 127.658 166.71 130.457 166.454C131.073 166.397 131.614 166.85 131.67 167.463C131.726 168.077 131.274 168.619 130.661 168.676C128.052 168.915 125.484 169.489 123.028 170.383C120.94 171.143 118.919 172.138 117.02 173.341C110.042 177.76 105.201 184.645 103.387 192.726C101.574 200.807 103.008 209.101 107.428 216.077C115.155 228.278 130.597 233.557 144.148 228.631C144.152 228.63 144.157 228.628 144.162 228.626C146.251 227.867 148.27 226.872 150.166 225.671C164.593 216.532 168.896 197.359 159.758 182.932C155.434 176.104 148.664 171.299 140.695 169.399C140.096 169.256 139.726 168.655 139.869 168.055C140.012 167.455 140.615 167.086 141.213 167.229C149.751 169.264 157.007 174.416 161.644 181.739C171.44 197.206 166.828 217.76 151.361 227.557C149.333 228.841 147.172 229.905 144.937 230.72C144.931 230.721 144.927 230.723 144.922 230.725C141.265 232.056 137.478 232.693 133.727 232.693ZM144.541 229.677H144.543H144.541ZM144.544 229.675H144.546H144.544Z" fill="#2F2E78"/>
<path d="M133.593 204.503C136.353 204.503 138.591 202.266 138.591 199.505C138.591 196.745 136.353 194.508 133.593 194.508C130.833 194.508 128.596 196.745 128.596 199.505C128.596 202.266 130.833 204.503 133.593 204.503Z" fill="#2F2E78"/>
<path d="M141.108 207.817L133.887 197.149C133.6 196.725 133.062 196.551 132.581 196.726C132.1 196.901 131.8 197.38 131.853 197.889L133.178 210.702C133.213 211.044 133.404 211.351 133.696 211.534C133.875 211.646 134.08 211.704 134.288 211.704C134.417 211.704 134.545 211.682 134.669 211.637L140.566 209.49C140.889 209.372 141.139 209.113 141.245 208.785C141.351 208.459 141.301 208.101 141.108 207.817Z" fill="#2F2E78"/>
<path d="M222.434 248.567C212.549 248.567 204.507 240.526 204.507 230.641C204.507 220.757 212.548 212.715 222.434 212.715C232.319 212.715 240.36 220.757 240.36 230.641C240.361 240.526 232.319 248.567 222.434 248.567ZM222.434 214.945C213.78 214.945 206.739 221.986 206.739 230.64C206.739 239.294 213.78 246.335 222.434 246.335C231.088 246.335 238.129 239.294 238.129 230.64C238.129 221.986 231.089 214.945 222.434 214.945Z" fill="#2F2E78"/>
<path d="M222.164 235.343C224.924 235.343 227.161 233.105 227.161 230.345C227.161 227.585 224.924 225.348 222.164 225.348C219.403 225.348 217.166 227.585 217.166 230.345C217.166 233.105 219.403 235.343 222.164 235.343Z" fill="#2F2E78"/>
<path d="M170.311 170.391C169.835 170.391 169.395 170.084 169.246 169.605C168.531 167.303 167.747 164.715 166.917 161.974C164.714 154.703 162.218 146.463 160.486 141.876C154.549 126.165 147.783 114.481 134.059 108.522C130.192 106.843 125.996 105.664 121.586 105.018C120.976 104.929 120.554 104.362 120.644 103.752C120.733 103.142 121.3 102.72 121.91 102.809C126.514 103.484 130.9 104.717 134.947 106.474C141.987 109.531 147.716 114.238 152.462 120.864C157.071 127.3 160.16 134.698 162.574 141.087C164.333 145.743 166.841 154.022 169.053 161.326C169.882 164.064 170.665 166.649 171.377 168.943C171.56 169.532 171.23 170.157 170.641 170.34C170.533 170.375 170.421 170.391 170.311 170.391Z" fill="#2F2E78"/>
<path d="M155.221 157.831C154.736 157.831 154.291 157.513 154.149 157.025C152.893 152.683 151.552 148.463 150.164 144.483C146.294 133.38 141.556 122.076 130.097 116.537C124.154 113.665 119.122 112.612 113.274 113.019C112.657 113.062 112.126 112.598 112.084 111.983C112.041 111.368 112.505 110.835 113.12 110.793C119.384 110.357 124.752 111.475 131.069 114.528C143.295 120.438 148.248 132.204 152.273 143.749C153.673 147.766 155.026 152.024 156.294 156.404C156.465 156.996 156.125 157.614 155.532 157.786C155.428 157.816 155.324 157.831 155.221 157.831Z" fill="#2F2E78"/>
<path d="M123.829 154.237C123.504 154.237 123.181 154.096 122.962 153.824C122.574 153.345 122.647 152.642 123.127 152.255C127.358 148.83 135.694 145.802 136.046 145.676C136.626 145.466 137.265 145.768 137.474 146.347C137.683 146.927 137.382 147.566 136.803 147.775C136.72 147.806 128.467 150.803 124.53 153.989C124.324 154.156 124.075 154.237 123.829 154.237Z" fill="#2F2E78"/>
<path d="M150.991 156.599C150.565 156.599 150.158 156.354 149.972 155.941L133.227 118.644C132.974 118.082 133.226 117.422 133.788 117.169C134.35 116.917 135.01 117.168 135.263 117.73L152.008 155.027C152.261 155.588 152.009 156.249 151.447 156.502C151.298 156.568 151.143 156.599 150.991 156.599Z" fill="#2F2E78"/>
<path d="M224.794 214.267C224.266 214.267 223.797 213.89 223.699 213.353C223.685 213.28 222.351 206.064 220.174 198.23C217.34 188.029 214.403 181.439 211.683 179.172C210.4 178.103 205.988 176.293 190.856 176.182C182.106 176.116 173.979 176.667 173.897 176.673C173.283 176.714 172.75 176.251 172.708 175.636C172.666 175.021 173.13 174.489 173.745 174.447C173.826 174.442 182.034 173.888 190.872 173.95C203.112 174.041 210.386 175.188 213.111 177.458C220.422 183.551 225.673 211.752 225.894 212.95C226.005 213.556 225.604 214.138 224.997 214.249C224.929 214.261 224.862 214.267 224.794 214.267Z" fill="#2F2E78"/>
<path d="M259.828 222.729H236.801C236.184 222.729 235.685 222.229 235.685 221.613C235.685 220.996 236.184 220.497 236.801 220.497H259.828C260.445 220.497 260.944 220.996 260.944 221.613C260.944 222.229 260.445 222.729 259.828 222.729Z" fill="#2F2E78"/>
<path d="M150.902 64.3911C149.019 64.3911 146.926 64.0719 144.59 63.2658C144.564 63.2573 144.539 63.2472 144.515 63.2371L144.347 63.1655C141.536 61.9661 136.833 59.9588 137.534 53.761C137.99 48.6464 141.977 48.7357 143.892 48.7778C146.109 48.8267 148.371 49.0103 150.765 49.204C156.214 49.6454 161.848 50.1028 167.955 49.0827C175.816 47.7704 177.956 46.159 178.149 46.0007C178.421 45.689 178.821 45.5812 179.224 45.6781C179.634 45.7766 179.929 46.1253 180.025 46.5364C180.051 46.6459 180.656 49.2546 180.818 52.3577C181.045 56.7175 180.291 59.8089 178.576 61.5466C177.15 62.9912 175.164 63.4443 172.676 62.8943C170.774 62.4731 169.577 61.678 168.521 60.9763C167.355 60.2014 166.513 59.6421 164.943 59.7625C163.883 59.8442 162.583 60.5299 161.078 61.3234C158.501 62.6812 155.258 64.3911 150.902 64.3911ZM145.354 61.1684C152.16 63.5016 156.527 61.1987 160.039 59.3481C161.763 58.4393 163.251 57.6542 164.772 57.5371C167.107 57.3552 168.455 58.2514 169.757 59.1173C170.695 59.7398 171.664 60.3842 173.16 60.7152C174.873 61.0943 176.125 60.8533 176.989 59.979C179.182 57.757 178.733 51.9416 178.158 48.5765C176.603 49.338 173.667 50.3925 168.322 51.2846C161.943 52.3493 155.909 51.8607 150.584 51.4286C148.224 51.2374 145.995 51.0563 143.843 51.0091C141.466 50.9552 140.006 51.1296 139.756 53.9707C139.756 53.9808 139.755 53.9909 139.753 54.0002C139.232 58.5555 142.415 59.9142 145.223 61.1128L145.354 61.1684Z" fill="#2F2E78"/>
<path d="M154.728 88.3686C145.305 89.2118 136.385 92.7479 128.417 97.7605C119.628 103.29 111.927 110.461 105.113 118.258C97.7078 126.731 91.2531 136.028 85.5716 145.732C79.9567 155.323 75.0872 165.353 70.9818 175.679C67.3564 184.798 64.2971 194.192 62.289 203.806C62.0666 204.869 61.8594 205.936 61.6657 207.005C61.3961 208.491 63.6721 209.128 63.9433 207.632C65.6288 198.331 68.3841 189.232 71.6868 180.386C75.4663 170.263 80.0401 160.432 85.2911 150.99C90.6837 141.295 96.8074 131.961 103.855 123.384C110.397 115.422 117.76 107.986 126.218 102.056C133.805 96.7354 142.337 92.6156 151.541 91.1247C152.599 90.9537 153.662 90.8257 154.729 90.7305C156.23 90.5966 156.244 88.233 154.728 88.3686Z" fill="#2F2E78"/>
<path d="M83.4894 239.444H51.6024C50.9858 239.444 50.4863 238.944 50.4863 238.328C50.4863 237.711 50.9858 237.211 51.6024 237.211H83.4894C84.1059 237.211 84.6054 237.711 84.6054 238.328C84.6054 238.944 84.1059 239.444 83.4894 239.444Z" fill="#2F2E78"/>
<path d="M78.7655 229.995H56.326C55.7095 229.995 55.21 229.496 55.21 228.879C55.21 228.262 55.7095 227.763 56.326 227.763H78.7655C79.3821 227.763 79.8816 228.262 79.8816 228.879C79.8816 229.496 79.3821 229.995 78.7655 229.995Z" fill="#2F2E78"/>
<path d="M258.658 263.548C253.161 263.548 251.712 262.684 251.362 261.4C250.987 260.025 251.743 258.887 253.61 258.019C254.912 257.412 256.698 256.922 258.765 256.353C262.573 255.307 267.313 254.005 270.098 251.513C271.279 250.456 272.919 246.272 274.019 232.346C274.798 222.497 275.077 210.825 275.301 201.446C275.456 194.94 275.579 189.8 275.82 186.903C276.738 175.898 284.124 156.402 288.538 144.754L289.086 143.307C290.526 139.502 292.209 136.441 293.693 133.741C297.433 126.937 300.135 122.021 296.564 110.594C293.698 101.422 291.932 93.502 291.317 87.0541C290.492 78.4051 291.703 72.0641 294.917 68.2063C301.637 60.1419 305.085 53.7731 304.378 50.7331C304.189 49.9186 303.75 49.7021 303.7 49.6802C303.726 49.692 303.742 49.6954 303.742 49.6954L304.465 47.5845C304.619 47.6368 305.976 48.1506 306.498 50.018C307.579 53.8801 304.26 60.4796 296.632 69.6348C291.551 75.7333 292.245 89.2896 298.694 109.929C302.549 122.263 299.504 127.802 295.649 134.816C294.129 137.581 292.557 140.44 291.173 144.097L290.625 145.545C286.253 157.083 278.936 176.396 278.045 187.088C277.809 189.919 277.681 195.286 277.533 201.5C277.308 210.906 277.028 222.612 276.245 232.521C274.988 248.423 272.984 251.925 271.586 253.175C268.41 256.017 263.39 257.396 259.356 258.505C257.68 258.965 256.097 259.4 254.975 259.856C253.89 260.299 253.601 260.618 253.529 260.727C254.1 261.066 257.478 262.209 275.772 259.955C277.39 259.755 278.673 259.808 279.705 259.851C281.057 259.908 281.47 259.887 281.6 259.642C282.209 258.492 282.046 257.885 281.691 256.557C281.067 254.231 280.125 250.715 282.774 241.942C290.121 217.604 289.601 204.419 289.255 195.695C289.127 192.447 289.025 189.881 289.33 187.483C289.431 186.676 292.071 181.43 305.706 156.067C307.065 153.539 308.048 151.712 308.238 151.342C308.52 150.794 309.193 150.579 309.741 150.861C310.288 151.143 310.504 151.816 310.222 152.364C310.022 152.751 309.087 154.49 307.671 157.123C303.421 165.031 292.178 185.944 291.534 187.831C291.264 190.028 291.361 192.493 291.484 195.606C291.835 204.48 292.364 217.889 284.909 242.586C282.444 250.751 283.287 253.897 283.845 255.979C284.245 257.472 284.591 258.761 283.571 260.685C282.763 262.21 281.232 262.148 279.613 262.08C278.662 262.041 277.481 261.993 276.044 262.17C271.946 262.674 266.045 263.313 261.203 263.494C260.271 263.532 259.425 263.548 258.658 263.548ZM291.542 187.77C291.542 187.772 291.541 187.774 291.541 187.776C291.541 187.774 291.542 187.771 291.542 187.77Z" fill="#2F2E78"/>
<path d="M332.828 117.996C332.392 117.996 331.977 117.738 331.798 117.31C327.527 107.099 326.672 99.2711 326.707 94.5027C326.747 89.0992 327.907 85.6769 328.628 84.7891C329.092 84.2188 329.638 84.2534 329.853 84.2946C330.277 84.3763 330.622 84.6905 330.754 85.1142C330.913 85.6238 330.687 86.1612 330.242 86.4148C329.864 87.2116 328.954 89.9003 328.938 94.6653C328.923 99.2021 329.764 106.664 333.858 116.449C334.095 117.018 333.827 117.672 333.259 117.909C333.118 117.968 332.971 117.996 332.828 117.996ZM328.623 85.7763C328.623 85.7771 328.624 85.778 328.624 85.7788C328.624 85.778 328.623 85.7771 328.623 85.7763Z" fill="#2F2E78"/>
<path d="M306.954 27.2919C308.085 27.2919 309.002 26.3751 309.002 25.2442C309.002 24.1133 308.085 23.1965 306.954 23.1965C305.823 23.1965 304.906 24.1133 304.906 25.2442C304.906 26.3751 305.823 27.2919 306.954 27.2919Z" fill="#2F2E78"/>
<path d="M291.213 28.6068C292.344 28.6068 293.26 27.69 293.26 26.5591C293.26 25.4282 292.344 24.5114 291.213 24.5114C290.082 24.5114 289.165 25.4282 289.165 26.5591C289.165 27.69 290.082 28.6068 291.213 28.6068Z" fill="#2F2E78"/>
<path d="M301.321 5.65694C313.697 8.16117 322.725 14.6639 324.942 27.26C326.714 37.3274 319.531 57.3258 335.961 58.0106C338.329 45.2402 341.856 27.2313 336.709 14.8585C331.523 2.39294 311.619 -6.20548 301.321 5.65694Z" fill="#B456A1"/>
<path d="M312.01 34.9242C313.671 34.9242 315.017 33.5778 315.017 31.9171C315.017 30.2563 313.671 28.91 312.01 28.91C310.349 28.91 309.003 30.2563 309.003 31.9171C309.003 33.5778 310.349 34.9242 312.01 34.9242Z" fill="#B456A1"/>
<path d="M327.198 64.1232C323.858 64.1232 321.491 63.3096 319.77 61.6586C316.667 58.681 315.88 53.0391 317.312 43.2134C314.293 47.0822 310.326 49.3363 305.834 49.7364C300.52 50.2089 295.807 48.4518 292.201 44.6546C287.637 39.8484 285.228 31.9802 286.204 25.0757C287.41 16.5573 289.691 13.5106 290.603 12.6026C291.683 8.62516 296.305 4.99054 302.794 3.05404C307.036 1.78803 311.656 1.41656 315.803 2.00871C320.601 2.69437 324.748 4.64434 327.796 7.64806C334.351 14.1104 337.202 28.151 339.492 39.4339C341.034 47.0275 342.627 54.8788 344.738 56.0049C344.915 56.0993 345.149 56.1734 345.548 56.0092C346.072 55.7935 346.675 56.0041 346.949 56.5002C347.224 56.9964 347.083 57.6188 346.621 57.9482C346.415 58.0956 341.511 61.5693 336.158 62.8404C332.573 63.6928 329.628 64.1232 327.198 64.1232ZM320.6 37.2944C320.556 37.5682 320.507 37.8428 320.453 38.1182C318.062 50.417 318.328 57.1808 321.316 60.0481C323.641 62.2794 328.059 62.4715 335.642 60.6697C338.464 59.9992 341.221 58.6153 343.066 57.5506C340.447 55.3614 339.109 48.7652 337.305 39.877C335.075 28.8923 332.299 15.2205 326.229 9.23668C323.524 6.57073 319.81 4.83471 315.488 4.21728C311.654 3.66977 307.373 4.01513 303.433 5.19185C297.649 6.91861 293.45 10.1287 292.709 13.3826C292.689 13.6184 292.624 15.0479 293.773 16.1429C295.227 17.5302 298.117 17.9151 302.13 17.2564C307.839 16.3189 312.924 17.7989 316.444 21.4242C320.067 25.154 321.573 30.7774 320.648 36.9845C320.646 37.0881 320.631 37.1917 320.6 37.2944ZM290.982 15.9854C290.154 17.6102 289.108 20.4918 288.414 25.3882C287.677 30.603 289.061 38.1073 293.819 43.1182C296.94 46.4041 301.026 47.9237 305.636 47.5143C314.459 46.7284 317.994 37.922 318.426 36.7511C319.276 31.2019 317.99 26.2221 314.842 22.98C311.846 19.8946 307.459 18.6446 302.491 19.4599C297.661 20.2534 294.197 19.668 292.193 17.7222C291.625 17.1688 291.24 16.5666 290.982 15.9854Z" fill="#2F2E78"/>
<path d="M298.382 34.7029C297.705 34.7029 296.942 34.5597 296.258 34.0922C295.18 33.3552 294.634 32.0614 294.634 30.2462C294.634 29.6296 295.133 29.1301 295.75 29.1301C296.366 29.1301 296.866 29.6296 296.866 30.2462C296.866 30.9546 296.978 31.8761 297.514 32.2467C298.099 32.6519 299.153 32.3975 299.475 32.2762C300.05 32.0597 300.693 32.347 300.912 32.9206C301.132 33.4934 300.85 34.1352 300.278 34.3584C300.139 34.4123 299.347 34.7029 298.382 34.7029Z" fill="#2F2E78"/>
<path d="M299.214 42.1683C297.79 42.1683 296.658 41.7573 295.856 41.3184C294.497 40.5755 293.79 39.6119 293.713 39.5041C293.356 39.0012 293.475 38.3046 293.977 37.9483C294.479 37.5928 295.171 37.7091 295.529 38.2069C295.621 38.3307 297.541 40.8535 301.248 39.5698C305.025 38.2625 305.532 34.8822 305.552 34.7391C305.635 34.1309 306.195 33.7022 306.803 33.7813C307.411 33.8614 307.841 34.4139 307.765 35.0229C307.74 35.2217 307.098 39.9075 301.979 41.6798C300.964 42.0302 300.04 42.1683 299.214 42.1683Z" fill="#2F2E78"/>
<path d="M277.259 97.7985C274.307 97.7985 270.842 95.0845 266.96 89.7324C264.185 85.9074 262.215 82.1456 262.132 81.9873C261.848 81.4406 262.06 80.7667 262.606 80.482C263.152 80.1973 263.826 80.4096 264.111 80.9554C264.13 80.9925 266.098 84.7476 268.78 88.4411C272.116 93.036 275.127 95.5663 277.258 95.5663C281.392 95.5663 284.887 88.2129 288.586 80.4273C289.941 77.5769 291.342 74.6304 292.861 71.8432C293.156 71.3024 293.834 71.1028 294.375 71.3976C294.916 71.6924 295.115 72.3705 294.82 72.9112C293.33 75.6437 291.943 78.5615 290.602 81.3842C286.417 90.1923 282.803 97.7985 277.259 97.7985Z" fill="#2F2E78"/>
<path d="M277.89 110.221C273.453 110.221 268.017 106.346 261.717 98.6889C256.924 92.8634 253.321 86.8459 253.285 86.7861C252.97 86.2571 253.143 85.5723 253.673 85.2564C254.203 84.9406 254.887 85.1141 255.202 85.6431C259.043 92.0818 270.688 108.651 278.343 107.97C287.85 107.131 292.727 96.6236 292.775 96.5174C293.029 95.9564 293.69 95.708 294.252 95.9615C294.813 96.2159 295.062 96.8754 294.808 97.4364C294.754 97.5569 293.446 100.421 290.816 103.424C287.286 107.455 283.039 109.795 278.538 110.193C278.325 110.212 278.109 110.221 277.89 110.221Z" fill="#2F2E78"/>
<path d="M255.053 86.3271C254.588 86.3271 254.154 86.034 253.996 85.569C253.798 84.9853 254.111 84.3518 254.695 84.1539C256.974 83.3823 262.555 80.5092 262.61 80.4797C263.158 80.1975 263.831 80.4123 264.114 80.9598C264.396 81.5073 264.181 82.1803 263.634 82.4634C263.399 82.5847 257.847 85.4426 255.411 86.2681C255.293 86.3077 255.172 86.3271 255.053 86.3271Z" fill="#2F2E78"/>
<path d="M261.314 82.7057C260.713 82.7057 260.218 82.2331 260.2 81.6292C260.183 81.0775 260.375 80.2006 260.745 78.5699C261.113 76.9484 261.944 73.2877 261.663 72.1767C261.317 72.3232 260.606 73.0358 259.539 76.0564C259.236 76.9147 258.987 77.5928 258.136 77.57C257.52 77.554 257.033 77.0419 257.049 76.4253C257.055 76.1937 257.132 75.9806 257.257 75.8054C257.303 75.6883 257.374 75.4845 257.435 75.3135C258.1 73.4283 259.484 69.5048 262.204 69.9428C262.715 70.0245 263.143 70.3025 263.442 70.7447C264.392 72.1514 263.825 75.0801 262.921 79.0635C262.7 80.0406 262.423 81.2569 262.43 81.5601C262.443 82.1742 261.958 82.6888 261.344 82.7048C261.334 82.7048 261.324 82.7057 261.314 82.7057Z" fill="#2F2E78"/>
<path d="M258.951 75.3887C258.371 75.3887 257.882 74.9406 257.839 74.3535C257.833 74.2785 257.458 69.5657 255.46 67.2704C254.964 66.7018 254.537 66.5443 254.532 66.5443C254.015 66.8787 253.324 66.7313 252.989 66.2141C252.654 65.6969 252.802 65.0062 253.319 64.671C253.992 64.2347 255.556 63.9828 257.142 65.8048C259.639 68.6712 260.049 73.9677 260.065 74.1918C260.11 74.8067 259.648 75.3407 259.033 75.3853C259.005 75.3879 258.978 75.3887 258.951 75.3887Z" fill="#2F2E78"/>
<path d="M255.417 72.3184C254.905 72.3184 254.444 71.9637 254.329 71.444C253.725 68.7309 252.487 66.07 251.782 65.9689C251.172 65.8822 250.749 65.317 250.835 64.7063C250.923 64.0965 251.486 63.6719 252.098 63.7595C254.794 64.1445 256.155 69.3686 256.508 70.9605C256.641 71.562 256.261 72.1583 255.659 72.2914C255.578 72.3099 255.496 72.3184 255.417 72.3184Z" fill="#2F2E78"/>
<path d="M253.03 73.5332C252.651 73.5332 252.282 73.3394 252.072 72.9907C251.872 72.658 251.879 72.4415 251.913 71.4013C252.005 68.5104 251.849 67.3674 251.673 66.9412C251.226 66.8308 250.876 66.4492 250.829 65.9641C250.77 65.3509 251.219 64.8059 251.833 64.7461C252.32 64.6989 252.789 64.8615 253.153 65.2026C254.12 66.1089 254.248 68.1878 254.143 71.472C254.134 71.755 254.124 72.0709 254.125 72.209C254.21 72.6555 254.014 73.1263 253.602 73.374C253.424 73.4818 253.226 73.5332 253.03 73.5332ZM253.988 71.846C253.988 71.846 253.988 71.8468 253.989 71.8468C253.988 71.846 253.988 71.846 253.988 71.846ZM253.986 71.8443C253.986 71.8452 253.987 71.8452 253.987 71.846C253.987 71.8452 253.987 71.8443 253.986 71.8443ZM252.047 66.9681C252.047 66.9681 252.047 66.9681 252.047 66.9681V66.9681Z" fill="#2F2E78"/>
<path d="M254.611 86.2884C254.383 86.2884 254.153 86.2185 253.954 86.0736C251.442 84.2399 250.2 80.4436 249.682 78.3445C248.914 75.2279 248.718 71.8098 249.171 69.426C249.661 66.8468 250.794 66.0365 251.658 65.8107C252.266 65.6524 252.831 65.8082 253.204 66.2395C254.015 67.1761 253.525 68.801 252.039 72.3278C251.896 72.6656 251.725 73.0707 251.65 73.2729C251.623 73.5862 251.468 73.8591 251.24 74.0428C251.571 77.9949 252.967 82.5906 255.269 84.2711C255.767 84.6341 255.876 85.3324 255.512 85.8302C255.295 86.1292 254.956 86.2876 254.611 86.2884Z" fill="#2F2E78"/>
<path d="M356.109 119.106C355.588 119.106 355.123 118.741 355.016 118.211C348.609 86.4636 341.092 78.6629 341.016 78.587C340.58 78.1516 340.579 77.4449 341.015 77.0094C341.45 76.5731 342.157 76.5731 342.593 77.0085C342.919 77.3345 350.665 85.3669 357.204 117.769C357.326 118.373 356.935 118.962 356.33 119.084C356.256 119.099 356.182 119.106 356.109 119.106Z" fill="#2F2E78"/>
<path d="M342.527 113.459C341.992 113.459 341.519 113.072 341.428 112.527C340.265 105.546 332.714 90.2951 324.24 77.8052C323.893 77.2956 324.026 76.6015 324.536 76.2553C325.047 75.91 325.74 76.0422 326.086 76.5518C334.859 89.4798 342.4 104.787 343.629 112.159C343.73 112.767 343.32 113.342 342.712 113.443C342.649 113.454 342.588 113.459 342.527 113.459Z" fill="#2F2E78"/>
<path d="M358.96 264.865C358.15 264.865 357.473 264.627 356.917 264.157C356.297 263.633 355.954 262.941 355.922 262.155C355.825 259.724 358.726 256.844 362.085 253.51C363.801 251.806 365.576 250.044 366.648 248.564C367.15 247.871 367.927 246.637 367.489 246.157C366.903 245.513 365.87 243.803 363.776 240.306C357.434 229.712 344.235 207.669 333.011 202.778C330.508 201.688 327.641 198.46 324.489 193.184C321.815 188.71 318.954 182.785 316.215 176.05C311.124 163.538 307.264 150.285 306.679 143.391C305.002 142.281 300.943 138.15 298.302 123.448C298.193 122.842 298.597 122.261 299.203 122.153C299.809 122.044 300.389 122.447 300.499 123.054C303.361 138.991 307.81 141.496 308.127 141.655C308.582 141.783 308.834 142.165 308.862 142.641C309.243 149.118 313.117 162.511 318.283 175.21C324.079 189.455 329.918 198.996 333.903 200.733C345.784 205.908 359.23 228.367 365.692 239.16C367.294 241.836 368.678 244.147 369.14 244.654C370.285 245.911 370.055 247.666 368.456 249.873C367.278 251.501 365.438 253.327 363.658 255.093C361.311 257.424 358.095 260.616 358.152 262.066C358.157 262.201 358.194 262.314 358.359 262.453C358.931 262.938 360.977 262.515 364.866 259.735C368.237 257.326 371.942 253.931 374.455 251.506C375.375 250.62 376.16 250.044 376.791 249.582C377.641 248.959 377.871 248.758 377.875 248.527C377.884 247.943 377.599 247.564 376.893 246.689C376.035 245.625 374.861 244.169 373.859 241.387C373.487 240.352 373.063 239.094 372.573 237.638C370.233 230.688 366.318 219.056 360.475 210.222C353.419 199.552 348.413 196.296 344.758 193.918C341.716 191.94 339.314 190.377 337.45 185.852C336.155 182.706 336.65 176.741 337.276 169.189C338.228 157.708 339.532 141.985 334.827 128.878C334.619 128.297 334.92 127.659 335.5 127.451C336.079 127.243 336.719 127.544 336.927 128.124C341.794 141.686 340.468 157.689 339.499 169.372C338.922 176.338 338.423 182.353 339.513 185.001C341.112 188.884 343.046 190.142 345.974 192.047C349.794 194.532 355.025 197.934 362.337 208.991C368.34 218.069 372.313 229.873 374.688 236.926C375.175 238.37 375.594 239.619 375.959 240.631C376.833 243.06 377.83 244.295 378.631 245.288C379.402 246.245 380.131 247.149 380.107 248.565C380.085 249.936 379.17 250.606 378.111 251.382C377.534 251.805 376.816 252.331 376.005 253.114C373.437 255.59 369.646 259.064 366.164 261.551C363.055 263.773 360.699 264.865 358.96 264.865Z" fill="#2F2E78"/>
<path d="M303.906 63.2598C303.29 63.2598 302.748 63.2194 302.303 63.1444C301.522 63.013 300.209 62.6138 300.206 61.4076C300.204 60.791 300.702 60.2906 301.318 60.2881C301.319 60.2881 301.32 60.2881 301.321 60.2881C301.742 60.2881 302.109 60.5214 302.298 60.8651C303.184 61.165 306.475 61.1894 309.981 59.8947C312.48 58.9716 315.717 57.1311 316.946 53.6034C317.149 53.0214 317.784 52.7139 318.367 52.9169C318.949 53.1199 319.256 53.7559 319.053 54.3379C316.691 61.1161 308.38 63.2598 303.906 63.2598Z" fill="#2F2E78"/>
<path d="M386.856 263.801H368.666C368.049 263.801 367.55 263.301 367.55 262.685C367.55 262.068 368.049 261.569 368.666 261.569H386.856C387.472 261.569 387.972 262.068 387.972 262.685C387.971 263.301 387.472 263.801 386.856 263.801Z" fill="#2F2E78"/>
<path d="M335.55 195.732C328.242 186.449 304.669 148.16 318.246 137.356C337.09 122.361 336.189 188.703 335.55 195.732Z" fill="#B456A1"/>
<path d="M336.118 202.915C340.637 201.519 344.205 197.949 345.599 193.429C346.048 191.974 343.769 191.351 343.322 192.802C342.175 196.521 339.209 199.489 335.49 200.639C334.043 201.086 334.66 203.366 336.118 202.915Z" fill="#2F2E78"/>
<path d="M276.66 191.158C280.832 192.776 285.471 192.514 289.496 190.606C290.869 189.954 289.672 187.918 288.305 188.566C284.83 190.214 280.854 190.264 277.289 188.88C275.87 188.33 275.256 190.614 276.66 191.158Z" fill="#2F2E78"/>
<path d="M308.386 126.885C308.229 126.885 308.069 126.851 307.917 126.781C307.358 126.522 307.115 125.859 307.375 125.3C308.388 123.115 310.545 121.824 313.613 121.565C315.776 121.382 317.651 121.776 317.73 121.793C318.332 121.922 318.716 122.516 318.587 123.118C318.458 123.721 317.863 124.103 317.262 123.975C317.201 123.962 311.039 122.704 309.399 126.24C309.21 126.646 308.807 126.885 308.386 126.885Z" fill="#2F2E78"/>
<path d="M307.218 128.919C306.607 128.919 306.109 128.427 306.103 127.816C306.081 125.791 309.02 125.097 311.9 124.685C314.359 124.333 316.776 124.247 316.878 124.243C317.485 124.219 318.01 124.704 318.032 125.32C318.053 125.936 317.571 126.452 316.955 126.474C312.982 126.611 309.03 127.297 308.325 127.959C308.251 128.497 307.792 128.914 307.231 128.92C307.226 128.919 307.222 128.919 307.218 128.919Z" fill="#2F2E78"/>
<path d="M307.029 130.784C306.646 130.784 306.273 130.587 306.065 130.232C305.814 129.804 305.81 129.297 306.054 128.874C306.429 128.222 307.159 127.662 312.296 127.41C314.772 127.289 317.128 127.299 317.227 127.299C317.844 127.303 318.341 127.804 318.337 128.42C318.335 129.034 317.835 129.531 317.221 129.531C317.219 129.531 317.218 129.531 317.216 129.531C312.674 129.51 309.147 129.802 308.049 130.116C307.958 130.324 307.802 130.506 307.592 130.63C307.415 130.734 307.221 130.784 307.029 130.784Z" fill="#2F2E78"/>
<path d="M310.372 132.57C309.172 132.57 308.061 132.406 307.344 131.937C306.802 131.583 306.462 131.078 306.361 130.478C306.258 129.871 306.667 129.295 307.274 129.192C307.867 129.093 308.428 129.478 308.552 130.06C308.679 130.146 309.438 130.548 312.202 130.214C313.967 130 315.576 129.601 315.592 129.597C316.191 129.447 316.796 129.812 316.944 130.41C317.093 131.008 316.729 131.614 316.131 131.762C315.407 131.943 312.72 132.57 310.372 132.57Z" fill="#2F2E78"/>
<path d="M312.604 135.045C310.943 135.045 309.562 134.612 308.678 133.513C308.291 133.033 308.367 132.33 308.847 131.945C309.327 131.558 310.029 131.634 310.415 132.114C312.228 134.365 320.642 130.79 324.685 129.072C325.268 128.824 325.817 128.591 326.319 128.383C329.779 126.949 334.416 126.308 338.901 125.689C347.177 124.546 354.993 123.465 354.993 117.992C354.993 117.375 355.492 116.876 356.109 116.876C356.725 116.876 357.225 117.375 357.225 117.992C357.225 121.397 355.255 123.822 351.201 125.405C347.887 126.7 343.474 127.309 339.207 127.899C334.862 128.5 330.37 129.12 327.174 130.444C326.677 130.649 326.135 130.88 325.559 131.125C321.468 132.862 316.333 135.045 312.604 135.045Z" fill="#2F2E78"/>
<path d="M317.495 124C317.301 124 317.105 123.95 316.925 123.843C314.326 122.298 313.841 120.262 314.489 119.025C315.005 118.043 316.326 117.421 318.12 118.244C318.441 118.391 318.765 118.542 319.089 118.693C321.544 119.837 324.326 121.134 325.69 120.566C327.376 119.865 329.434 118.581 331.613 117.222C336.87 113.943 342.83 110.226 348.347 111.247C348.953 111.359 349.354 111.941 349.242 112.546C349.13 113.153 348.544 113.552 347.942 113.441C343.274 112.578 337.707 116.051 332.794 119.115C330.535 120.524 328.402 121.855 326.548 122.626C324.276 123.571 321.16 122.119 318.147 120.715C317.826 120.566 317.507 120.417 317.191 120.272C316.803 120.094 316.56 120.082 316.461 120.098C316.448 120.339 316.745 121.14 318.066 121.925C318.596 122.241 318.77 122.925 318.455 123.455C318.246 123.805 317.875 124 317.495 124Z" fill="#2F2E78"/>
<path d="M300.346 63.2997C317.373 75.2126 338.458 78.3039 358.579 80.9404C378.835 83.5946 399.987 86.2344 417.332 97.9334C425.606 103.515 432.593 111.025 436.54 120.269C437.135 121.662 439.17 120.461 438.579 119.077C431.286 101.996 414.363 91.2538 397.237 85.8469C376.392 79.2659 354.254 79.2187 333.046 74.3425C321.892 71.7776 310.973 67.8625 301.539 61.2612C300.289 60.3869 299.108 62.4337 300.346 63.2997Z" fill="#2F2E78"/>
<path d="M438.464 120.363C425.532 114.343 410.673 117.635 398.493 123.891C385.626 130.501 374.705 140.259 361.881 146.943C354.775 150.646 347.062 153.384 338.995 153.694C337.479 153.752 337.472 156.113 338.995 156.055C353.246 155.509 365.849 148.038 377.32 140.214C388.974 132.266 400.647 123.375 414.756 120.453C422.242 118.903 430.258 119.136 437.272 122.402C438.641 123.04 439.842 121.005 438.464 120.363Z" fill="#2F2E78"/>
<path d="M337.921 62.3646C356.844 67.7083 375.207 74.9708 392.636 84.0771C397.502 86.6193 402.29 89.3046 407.001 92.123C408.309 92.9055 409.498 90.8637 408.193 90.0837C391.276 79.9632 373.312 71.604 354.686 65.151C349.358 63.3055 343.976 61.62 338.549 60.0878C337.084 59.6734 336.458 61.951 337.921 62.3646Z" fill="#2F2E78"/>
<path d="M308.386 143.717C311.214 140.37 315.301 138.337 319.692 138.208C321.208 138.163 321.215 135.802 319.692 135.846C314.714 135.993 309.938 138.235 306.717 142.047C305.74 143.201 307.403 144.88 308.386 143.717Z" fill="#2F2E78"/>
<path d="M291.481 33.0348C291.362 33.0348 291.24 33.0322 291.116 33.0272C289.165 32.9438 287.687 31.8505 286.953 29.9502C285.944 27.3348 286.611 23.5073 288.381 21.7586C290.315 19.8491 292.726 21.3964 294.323 22.4215C294.992 22.8503 295.824 23.3843 296.207 23.3969C297.952 23.4517 298.784 22.3836 299.993 20.6349C300.444 19.983 300.91 19.3091 301.471 18.7212C303.159 16.9532 306.63 16.5985 309.543 17.8966C312.266 19.1095 313.77 21.4326 313.566 24.1121C313.253 28.2403 310.735 30.608 306.658 30.608C303.893 30.608 302.421 30.3562 301.239 30.1549C300.104 29.9611 299.208 29.8078 297.464 29.9283C296.736 29.9788 296.44 30.2812 295.842 30.9601C295.065 31.8412 294.013 33.0348 291.481 33.0348ZM289.949 23.3464C288.916 24.3673 288.277 27.1823 289.035 29.1466C289.446 30.2121 290.158 30.7521 291.212 30.7976C292.946 30.8734 293.458 30.2905 294.168 29.4844C294.822 28.7415 295.637 27.8166 297.311 27.7012C299.32 27.5622 300.384 27.7441 301.615 27.9547C302.771 28.1527 304.083 28.3767 306.658 28.3767C309.583 28.3767 311.115 26.9262 311.341 23.9436C311.519 21.5851 309.722 20.4202 308.634 19.9358C306.609 19.0328 304.118 19.1803 303.084 20.2635C302.645 20.7234 302.248 21.297 301.828 21.9043C300.653 23.6067 299.192 25.7226 296.136 25.6282C295.138 25.5962 294.157 24.967 293.118 24.3007C290.974 22.9235 290.407 22.8932 289.949 23.3464Z" fill="#2F2E78"/>
<path d="M307.915 102.809C301.624 99.2373 297.031 92.8078 295.694 85.6978C294.99 81.9612 295.358 77.6132 298.206 75.0938C300.989 72.6334 305.134 72.7235 308.834 73.0453C311.124 73.2449 313.452 73.49 315.568 74.3846C317.686 75.2791 319.598 76.9292 320.265 79.1294C321.218 82.2712 319.487 85.542 317.764 88.3376C314.837 93.0866 311.754 97.7388 308.519 102.283" fill="#F0504B"/>
<path d="M304.261 95.2177C303.995 95.2177 303.728 95.1234 303.515 94.9313C299.604 91.4138 296.882 87.2712 295.644 82.9535C295.367 81.9857 295.302 80.9412 295.466 80.0888C295.709 78.8295 296.431 77.9661 297.499 77.657C298.642 77.3276 300.4 77.7328 301.596 79.9624C301.729 80.2092 301.851 80.4602 301.969 80.7028C302.121 81.017 302.27 81.3236 302.431 81.5974C303.931 79.4974 306.08 77.8473 308.502 76.9688C310.098 76.3901 311.465 76.3657 312.567 76.8972C313.917 77.5483 314.818 79.0695 314.861 80.7727C314.9 82.2678 314.332 83.6307 313.832 84.6516C311.981 88.4336 308.969 91.6606 305.327 93.7723C305.439 94.1353 305.363 94.5464 305.09 94.8488C304.871 95.093 304.567 95.2177 304.261 95.2177ZM298.248 79.7838C298.204 79.7838 298.161 79.7897 298.119 79.8015C297.544 79.9675 297.483 81.2722 297.789 82.3386C298.779 85.7913 300.837 89.1395 303.777 92.1028C303.826 92.0632 303.879 92.027 303.936 91.9958C307.321 90.1082 310.123 87.1516 311.826 83.6703C312.214 82.8785 312.655 81.8408 312.629 80.83C312.611 80.1123 312.284 79.2397 311.596 78.9078C311.056 78.6475 310.27 78.7014 309.262 79.067C306.87 79.9346 304.802 81.7144 303.586 83.9491C303.439 84.2178 303.189 84.4149 302.894 84.4941C302.597 84.5733 302.282 84.527 302.022 84.3661C300.945 83.704 300.423 82.6275 299.962 81.6782C299.849 81.4457 299.742 81.2259 299.631 81.0187C299.287 80.3777 298.701 79.7838 298.248 79.7838Z" fill="#2F2E78"/>
<path d="M259.326 73.533C258.945 73.533 258.573 73.3367 258.364 72.9846L235.179 33.7273C234.865 33.1967 235.041 32.5127 235.572 32.1994C236.102 31.886 236.787 32.0621 237.1 32.5927L260.287 71.85C260.6 72.3807 260.424 73.0646 259.893 73.378C259.715 73.4833 259.519 73.533 259.326 73.533Z" fill="#2F2E78"/>
<path d="M233.105 38.2633C233.035 38.2633 232.965 38.2566 232.895 38.2439C232.458 38.1648 232.112 37.8506 231.99 37.4244L230.792 33.2287L226.658 31.8372C226.236 31.694 225.939 31.3327 225.881 30.8938C225.822 30.455 226.014 30.0288 226.381 29.7811L230.001 27.346L230.048 22.9844C230.053 22.5405 230.304 22.1463 230.702 21.9543C231.101 21.7622 231.565 21.8111 231.915 22.084C231.916 22.0848 231.917 22.0857 231.918 22.0857L235.352 24.7752L239.514 23.4713C239.936 23.339 240.391 23.4553 240.697 23.7771C241.004 24.098 241.099 24.557 240.946 24.9731L239.45 29.0694L241.976 32.6256C242.233 32.9862 242.262 33.4536 242.051 33.8445C241.84 34.2353 241.437 34.467 240.989 34.4518L236.631 34.2943L234.03 37.7958C233.809 38.0948 233.467 38.2633 233.105 38.2633ZM229.434 30.4171L232.009 31.2838C232.389 31.4119 232.682 31.7185 232.792 32.1042L233.538 34.718L235.158 32.5372C235.397 32.2154 235.783 32.031 236.181 32.0461L238.896 32.1438L237.323 29.9294C237.09 29.6017 237.034 29.1814 237.171 28.8049L238.104 26.2535L235.511 27.0655C235.127 27.1851 234.711 27.1093 234.395 26.8625L232.255 25.1871L232.227 27.9036C232.222 28.3071 232.019 28.6802 231.685 28.9043L229.434 30.4171ZM240.156 33.9169C240.157 33.9178 240.157 33.9186 240.158 33.9195L240.156 33.9169ZM236.95 33.8664L236.949 33.8681C236.949 33.8672 236.95 33.8672 236.95 33.8664ZM241.07 32.2222H241.072C241.071 32.2222 241.071 32.2222 241.07 32.2222ZM230.442 27.0495C230.44 27.0503 230.439 27.0512 230.438 27.052L230.442 27.0495ZM235.77 25.1037H235.772H235.77ZM238.851 24.2066C238.851 24.2075 238.851 24.2075 238.85 24.2083L238.851 24.2066Z" fill="#2F2E78"/>
<path d="M171.613 130.067C162.435 130.067 154.969 122.601 154.969 113.423C154.969 104.245 162.435 96.7784 171.613 96.7784C172.23 96.7784 172.729 97.2779 172.729 97.8945C172.729 98.511 172.23 99.0105 171.613 99.0105C163.666 99.0105 157.2 105.476 157.2 113.424C157.2 121.371 163.666 127.836 171.613 127.836C179.56 127.836 186.026 121.371 186.026 113.424C186.026 112.807 186.526 112.307 187.142 112.307C187.759 112.307 188.258 112.807 188.258 113.424C188.257 122.6 180.791 130.067 171.613 130.067Z" fill="#2F2E78"/>
</svg>
