<svg width="25" height="13" viewBox="0 0 25 13" fill="none" xmlns="http://www.w3.org/2000/svg">
<path d="M11.7439 12.9415H13.1773C13.1773 12.9415 13.6127 12.8955 13.8305 12.6715C14.0361 12.4648 14.0301 12.0743 14.0301 12.0743C14.0301 12.0743 13.9998 10.248 14.8949 9.97808C15.7779 9.7139 16.9089 11.7469 18.1064 12.528C19.0136 13.1195 19.7031 12.9874 19.7031 12.9874L22.9085 12.9472C22.9085 12.9472 24.5838 12.8496 23.7915 11.5976C23.725 11.4942 23.3258 10.673 21.4086 8.9788C19.4007 7.20421 19.6668 7.49136 22.092 4.43034C23.5677 2.56387 24.1544 1.42676 23.9729 0.938602C23.7975 0.47342 22.715 0.594023 22.715 0.594023L19.1043 0.616994C19.1043 0.616994 18.8382 0.582537 18.6386 0.697396C18.4451 0.806513 18.3181 1.06495 18.3181 1.06495C18.3181 1.06495 17.7435 2.50644 16.9875 3.73544C15.3788 6.32553 14.7377 6.46337 14.4776 6.30256C13.8668 5.92927 14.018 4.7979 14.018 3.99388C14.018 1.48419 14.4171 0.433219 13.2378 0.163298C12.8447 0.0714098 12.5543 0.0139798 11.5504 0.0024938C10.2622 -0.0089922 9.17353 0.00823681 8.55663 0.295387C8.14537 0.484906 7.83088 0.909887 8.02441 0.938602C8.26028 0.967317 8.8046 1.07643 9.08886 1.44973C9.45778 1.9264 9.44569 3.00034 9.44569 3.00034C9.44569 3.00034 9.65737 5.95798 8.94975 6.32553C8.46591 6.57823 7.79459 6.06136 6.36122 3.71247C5.62941 2.50644 5.073 1.17407 5.073 1.17407C5.073 1.17407 4.95809 0.909887 4.76455 0.777798C4.53473 0.616995 4.21419 0.565307 4.21419 0.565307L0.784981 0.588279C0.784981 0.588279 0.270903 0.599765 0.0834158 0.812256C-0.0859276 1.00178 0.0713199 1.3923 0.0713199 1.3923C0.0713199 1.3923 2.75662 7.35927 5.79876 10.3629C8.58083 13.1195 11.7439 12.9415 11.7439 12.9415Z" fill="white"/>
</svg>
