<svg width="17" height="28" viewBox="0 0 17 28" fill="none" xmlns="http://www.w3.org/2000/svg">
<path d="M6.84044 19.7197C4.73242 19.4853 2.8238 18.9579 1.20006 17.6394C1.00065 17.4636 0.801243 17.317 0.601836 17.1412C-0.110333 16.438 -0.195794 15.6176 0.373942 14.7972C0.858217 14.094 1.65585 13.8889 2.51045 14.2991C2.68137 14.387 2.8238 14.4749 2.96624 14.5921C5.98584 16.731 10.1734 16.7896 13.2215 14.68C13.5348 14.4456 13.8482 14.2405 14.2185 14.1526C14.9592 13.9475 15.6144 14.2405 16.0132 14.8851C16.469 15.6176 16.4405 16.3501 15.8992 16.9361C15.0446 17.8152 14.0476 18.4598 12.9081 18.9286C11.8541 19.3388 10.6862 19.5732 9.5182 19.7197C9.68912 19.9248 9.77458 20.0127 9.88853 20.1299C11.4553 21.7415 13.0221 23.353 14.5888 24.9938C15.1301 25.5505 15.244 26.2245 14.9307 26.8691C14.6173 27.5723 13.9052 28.0411 13.193 27.9825C12.7372 27.9532 12.3954 27.7188 12.082 27.3965C10.914 26.1659 9.68912 24.9645 8.54965 23.7339C8.20781 23.3823 8.03689 23.4409 7.75202 23.7632C6.55557 25.0231 5.35913 26.2538 4.1342 27.4844C3.59295 28.0411 2.93775 28.129 2.31104 27.836C1.62736 27.5137 1.20006 26.7812 1.25703 26.078C1.28552 25.6091 1.51341 25.2282 1.82677 24.9059C3.36505 23.3237 4.93183 21.7122 6.47011 20.1299C6.58406 19.9834 6.66952 19.8662 6.84044 19.7197Z" fill="white"/>
<path d="M8.12394 14.1522C4.36368 14.1522 1.28711 10.9292 1.28711 7.06147C1.3156 3.13517 4.39217 0 8.2094 0C12.0266 0 15.0747 3.22308 15.0462 7.17867C15.0177 11.0464 11.9127 14.1815 8.12394 14.1522ZM11.5424 7.06147C11.5424 5.12762 10.0326 3.60398 8.18091 3.60398C6.30078 3.60398 4.79098 5.15692 4.81947 7.09077C4.81947 8.99531 6.32927 10.5189 8.2094 10.5189C10.061 10.5482 11.5424 8.99531 11.5424 7.06147Z" fill="white"/>
</svg>
