<svg width="12" height="23" viewBox="0 0 12 23" fill="none" xmlns="http://www.w3.org/2000/svg">
<path fill-rule="evenodd" clip-rule="evenodd" d="M2.33601 11.5354V22.7169C2.33601 22.8585 2.4817 23 2.6274 23H6.92541C7.07111 23 7.2168 22.8585 7.2168 22.7169V11.3938H10.3493C10.4949 11.3938 10.6406 11.2523 10.6406 11.1108L10.932 7.71385C10.932 7.57231 10.7863 7.43077 10.6406 7.43077H7.2168V5.02462C7.2168 4.45846 7.72674 3.96308 8.30952 3.96308H10.7135C10.8592 3.96308 11.0049 3.82154 11.0049 3.68V0.283077C11.0049 0.141539 10.8592 0 10.7135 0H6.70687C4.3029 0 2.40886 1.84 2.40886 4.17538V7.50154H0.296273C0.150578 7.50154 0.00488281 7.64308 0.00488281 7.78462V11.04C0.00488281 11.1815 0.150578 11.3231 0.296273 11.3231H2.40886V11.5354H2.33601Z" fill="white"/>
</svg>
