<svg width="42" height="34" viewBox="0 0 42 34" fill="none" xmlns="http://www.w3.org/2000/svg">
<path d="M7.55859 32.8239V30.6431C7.55859 29.8207 7.04571 29.2724 6.21533 29.2599C5.77572 29.2474 5.32389 29.397 5.01861 29.883C4.78659 29.4967 4.40804 29.2599 3.89516 29.2599C3.52882 29.2599 3.17469 29.3721 2.89382 29.7708V29.3471H2.14893V32.8239H2.89382V30.8924C2.89382 30.2818 3.22353 29.9702 3.7242 29.9702C4.21266 29.9702 4.4691 30.2942 4.4691 30.8924V32.8239H5.21399V30.8924C5.21399 30.2818 5.55591 29.9702 6.04437 29.9702C6.54504 29.9702 6.78927 30.2942 6.78927 30.8924V32.8239H7.55859ZM18.6588 29.3347H17.4498V28.2879H16.7049V29.3471H15.9967V30.045H16.6927V31.6276C16.6927 32.4376 16.998 32.9112 17.8772 32.9112C18.1947 32.9112 18.5733 32.8115 18.8053 32.637L18.5977 31.989C18.3779 32.1261 18.1337 32.1884 17.9383 32.1884C17.5719 32.1884 17.4498 31.9516 17.4498 31.6027V30.0325H18.6588V29.3347ZM24.9843 29.2474C24.5569 29.2474 24.276 29.4468 24.0806 29.7584V29.3347H23.3479V32.8115H24.0928V30.855C24.0928 30.2818 24.3371 29.9578 24.8255 29.9578C24.9721 29.9578 25.1308 29.9827 25.2896 30.045L25.5216 29.3347C25.3506 29.2848 25.143 29.2474 24.9843 29.2474ZM15.4105 29.6213C15.0564 29.3845 14.5557 29.2599 14.0184 29.2599C13.1514 29.2599 12.6019 29.6836 12.6019 30.369C12.6019 30.9422 13.0171 31.2911 13.7742 31.3908L14.1283 31.4407C14.5313 31.503 14.7267 31.6027 14.7267 31.8021C14.7267 32.0762 14.458 32.2258 13.9452 32.2258C13.4323 32.2258 13.0537 32.0638 12.8095 31.8644L12.4554 32.4501C12.8583 32.7616 13.3712 32.8987 13.9329 32.8987C14.9221 32.8987 15.4838 32.4252 15.4838 31.7647C15.4838 31.1541 15.032 30.8301 14.2871 30.7179L13.9329 30.6681C13.6154 30.6307 13.359 30.5559 13.359 30.3316C13.359 30.0824 13.6032 29.9204 14.0062 29.9204C14.4458 29.9204 14.861 30.0824 15.0686 30.2194L15.4105 29.6213ZM35.3029 29.2474C34.8755 29.2474 34.5947 29.4468 34.3993 29.7584V29.3347H33.6666V32.8115H34.4115V30.855C34.4115 30.2818 34.6557 29.9578 35.1442 29.9578C35.2907 29.9578 35.4495 29.9827 35.6082 30.045L35.8402 29.3347C35.6693 29.2848 35.4495 29.2474 35.3029 29.2474ZM25.7414 31.0793C25.7414 32.1385 26.4619 32.9112 27.5609 32.9112C28.0738 32.9112 28.4157 32.799 28.7942 32.4999L28.4401 31.8893C28.1592 32.0887 27.8662 32.2008 27.5487 32.2008C26.9503 32.1884 26.5229 31.7522 26.5229 31.0918C26.5229 30.4188 26.9625 29.9827 27.5487 29.9827C27.8662 29.9827 28.1592 30.0948 28.4401 30.2942L28.7942 29.6836C28.4279 29.3845 28.086 29.2724 27.5609 29.2724C26.4619 29.2474 25.7414 30.0201 25.7414 31.0793ZM32.6897 31.0793V29.3347H31.9448V29.7584C31.7128 29.4468 31.3586 29.2474 30.8702 29.2474C29.9177 29.2474 29.1606 30.0076 29.1606 31.0793C29.1606 32.1385 29.9055 32.9112 30.8702 32.9112C31.3586 32.9112 31.7128 32.7118 31.9448 32.4002V32.8239H32.6897V31.0793ZM29.9299 31.0793C29.9299 30.4687 30.3207 29.9702 30.9679 29.9702C31.5784 29.9702 31.9936 30.4562 31.9936 31.0793C31.9936 31.7148 31.5784 32.1884 30.9679 32.1884C30.3207 32.2008 29.9299 31.6899 29.9299 31.0793ZM20.9667 29.2474C19.9654 29.2474 19.2693 29.9951 19.2693 31.0793C19.2693 32.1884 20.002 32.9112 21.0156 32.9112C21.5284 32.9112 22.0047 32.7741 22.4199 32.4252L22.0535 31.8644C21.7727 32.1012 21.4063 32.2258 21.0644 32.2258C20.5882 32.2258 20.1486 32.0015 20.0387 31.3784H22.5786C22.5908 31.2787 22.5908 31.1915 22.5908 31.0918C22.5786 29.9951 21.9314 29.2474 20.9667 29.2474ZM20.9545 29.9328C21.4308 29.9328 21.736 30.2444 21.8215 30.7802H20.0509C20.1241 30.2693 20.4294 29.9328 20.9545 29.9328ZM39.5769 31.0793V27.939H38.832V29.7584C38.6 29.4468 38.2459 29.2474 37.7574 29.2474C36.8049 29.2474 36.0478 30.0076 36.0478 31.0793C36.0478 32.1385 36.7927 32.9112 37.7574 32.9112C38.2459 32.9112 38.6 32.7118 38.832 32.4002V32.8239H39.5769V31.0793ZM36.8171 31.0793C36.8171 30.4687 37.2079 29.9702 37.8551 29.9702C38.4657 29.9702 38.8809 30.4562 38.8809 31.0793C38.8809 31.7148 38.4657 32.1884 37.8551 32.1884C37.2079 32.2008 36.8171 31.6899 36.8171 31.0793ZM11.7471 31.0793V29.3347H11.0022V29.7584C10.7702 29.4468 10.4038 29.2474 9.9276 29.2474C8.97511 29.2474 8.218 30.0076 8.218 31.0793C8.218 32.1385 8.9629 32.9112 9.9276 32.9112C10.4161 32.9112 10.7702 32.7118 11.0022 32.4002V32.8239H11.7471V31.0793ZM8.98732 31.0793C8.98732 30.4687 9.37809 29.9702 10.0253 29.9702C10.6359 29.9702 11.0511 30.4562 11.0511 31.0793C11.0511 31.7148 10.6359 32.1884 10.0253 32.1884C9.37809 32.2008 8.98732 31.6899 8.98732 31.0793ZM40.8103 32.313C40.8591 32.313 40.908 32.3255 40.9446 32.3379C40.9812 32.3504 41.0179 32.3753 41.0545 32.4127C41.0911 32.4501 41.1156 32.4875 41.1278 32.5249C41.14 32.5622 41.1522 32.6121 41.1522 32.6619C41.1522 32.7118 41.14 32.7492 41.1278 32.799C41.1156 32.8364 41.0789 32.8738 41.0545 32.9112C41.0179 32.9485 40.9812 32.961 40.9446 32.9859C40.908 32.9984 40.8591 33.0109 40.8103 33.0109C40.7614 33.0109 40.7126 32.9984 40.676 32.9859C40.6393 32.9735 40.6027 32.9485 40.5661 32.9112C40.5294 32.8738 40.505 32.8489 40.4928 32.799C40.4806 32.7616 40.4684 32.7118 40.4684 32.6619C40.4684 32.6121 40.4806 32.5747 40.4928 32.5249C40.505 32.4875 40.5294 32.4501 40.5661 32.4127C40.6027 32.3753 40.6393 32.3629 40.676 32.3379C40.7248 32.3255 40.7614 32.313 40.8103 32.313ZM40.8103 32.9361C40.8469 32.9361 40.8835 32.9236 40.908 32.9112C40.9446 32.8987 40.969 32.8738 40.9935 32.8489C41.0179 32.8239 41.0301 32.799 41.0545 32.7616C41.0667 32.7242 41.0789 32.6993 41.0789 32.6619C41.0789 32.6245 41.0667 32.5872 41.0545 32.5622C41.0423 32.5249 41.0179 32.4999 40.9935 32.475C40.969 32.4501 40.9446 32.4376 40.908 32.4127C40.8713 32.4002 40.8469 32.3878 40.8103 32.3878C40.7736 32.3878 40.737 32.4002 40.7004 32.4127C40.6637 32.4252 40.6393 32.4501 40.6149 32.475C40.5905 32.4999 40.5783 32.5249 40.5538 32.5622C40.5416 32.5996 40.5294 32.6245 40.5294 32.6619C40.5294 32.6993 40.5416 32.7367 40.5538 32.7616C40.5661 32.799 40.5905 32.8239 40.6149 32.8489C40.6393 32.8738 40.6637 32.8987 40.7004 32.9112C40.7492 32.9236 40.7736 32.9361 40.8103 32.9361ZM40.8347 32.4999C40.8713 32.4999 40.908 32.5124 40.9324 32.5249C40.9568 32.5373 40.969 32.5747 40.969 32.5996C40.969 32.6245 40.9568 32.6495 40.9446 32.6619C40.9324 32.6744 40.908 32.6869 40.8713 32.6993L40.969 32.8239H40.8835L40.7859 32.6993H40.7492V32.8239H40.676V32.4999H40.8347ZM40.7614 32.5622V32.6495H40.8347C40.8469 32.6495 40.8713 32.6495 40.8713 32.637C40.8835 32.6245 40.8835 32.6245 40.8835 32.5996C40.8835 32.5872 40.8835 32.5747 40.8713 32.5622C40.8591 32.5498 40.8469 32.5498 40.8347 32.5498H40.7614V32.5622Z" fill="#010101"/>
<path d="M26.4132 2.80371H15.1665V23.4277H26.4132V2.80371Z" fill="#F26522"/>
<path d="M15.8871 13.1097C15.8871 8.92254 17.8042 5.19651 20.796 2.80387C18.6102 1.04678 15.8504 0 12.8464 0C5.75158 0 0 5.86944 0 13.1097C0 20.3499 5.75158 26.2193 12.8464 26.2193C15.8382 26.2193 18.598 25.1725 20.7838 23.4154C17.8042 21.0228 15.8871 17.2968 15.8871 13.1097Z" fill="#E51B24"/>
<path d="M41.5797 13.1097C41.5797 20.3499 35.8282 26.2193 28.7333 26.2193C25.7415 26.2193 22.9817 25.1725 20.7959 23.4154C23.7877 21.0103 25.7049 17.2843 25.7049 13.1097C25.7049 8.935 23.7877 5.19651 20.7959 2.80387C22.9817 1.04678 25.7293 0 28.7333 0C35.8282 0 41.5797 5.86944 41.5797 13.1097ZM40.3586 21.2347V20.811H40.5295V20.7237H40.1021V20.811H40.2731V21.2347H40.3586ZM41.1768 21.2347V20.7237H41.0424L40.8959 21.0727L40.7494 20.7237H40.615V21.2347H40.7005V20.8483L40.8348 21.1848H40.9325L41.0668 20.8483V21.2347H41.1768Z" fill="#F99F1C"/>
</svg>
