<svg width="61" height="18" viewBox="0 0 61 18" fill="none" xmlns="http://www.w3.org/2000/svg">
<path fill-rule="evenodd" clip-rule="evenodd" d="M16.441 3.28519e-07V0.0075405C16.4336 0.0075405 14.1062 2.87635e-07 13.4855 2.26959C12.9166 4.35068 11.3132 10.0963 11.2689 10.2546H10.8255C10.8255 10.2546 9.18523 4.38084 8.60891 2.26205C7.98825 -0.00753991 5.65341 3.28519e-07 5.65341 3.28519e-07H0.333496V17.267H5.65341V7.01236H5.87507H6.09673L9.20001 17.267H12.8944L15.9977 7.0199H16.441V17.267H21.7609V3.28519e-07H16.441Z" fill="#4DB45E"/>
<path fill-rule="evenodd" clip-rule="evenodd" d="M35.8733 0C35.8733 0 34.3143 0.143263 33.5828 1.80964L29.8145 10.2546H29.3712V0H24.0513V17.267H29.0756C29.0756 17.267 30.7085 17.1162 31.44 15.4573L35.1344 7.01236H35.5777V17.267H40.8976V0H35.8733Z" fill="#4DB45E"/>
<path fill-rule="evenodd" clip-rule="evenodd" d="M43.2622 7.8418V17.267H48.5821V11.7627H54.3454C56.8575 11.7627 58.9855 10.1265 59.7761 7.8418H43.2622Z" fill="#4DB45E"/>
<path fill-rule="evenodd" clip-rule="evenodd" d="M54.345 0H42.5156C43.1067 3.28751 45.5229 5.92657 48.6483 6.78615C49.3576 6.9822 50.1039 7.08776 50.8723 7.08776H59.99C60.0713 6.69567 60.1083 6.29604 60.1083 5.88133C60.1083 2.63152 57.5296 0 54.345 0Z" fill="url(#paint0_linear)"/>
<defs>
<linearGradient id="paint0_linear" x1="42.5156" y1="3.54388" x2="60.1083" y2="3.54388" gradientUnits="userSpaceOnUse">
<stop offset="0.3" stop-color="#00B4E6"/>
<stop offset="1" stop-color="#088CCB"/>
</linearGradient>
</defs>
</svg>
