<svg width="64" height="22" viewBox="0 0 64 22" fill="none" xmlns="http://www.w3.org/2000/svg">
<path d="M27.9308 20.7215H22.7476L26.0071 0.327148H31.1903L27.9308 20.7215Z" fill="#0066B3"/>
<path d="M18.3663 0.326991L13.3968 14.3413L12.809 11.3421L11.0457 2.12649C11.0457 2.12649 10.8319 0.272461 8.58764 0.272461H0.412046L0.305176 0.654172C0.305176 0.654172 2.81663 1.19947 5.75557 2.99897L10.2976 20.7213H15.6945L23.977 0.326991H18.3663Z" fill="#0066B3"/>
<path d="M59.2444 20.7215H64.0001L59.8322 0.327148H55.6642C53.7405 0.327148 53.2596 1.85399 53.2596 1.85399L45.5649 20.7215H50.9619L52.0306 17.6678H58.6566L59.2444 20.7215ZM53.5268 13.4689L56.252 5.8347L57.8016 13.4689H53.5268Z" fill="#0066B3"/>
<path d="M45.9388 5.2349L46.6869 0.872484C46.6869 0.872484 44.3891 0 41.9846 0C39.4197 0 33.2746 1.14513 33.2746 6.76175C33.2746 12.0512 40.4884 12.1057 40.4884 14.8868C40.4884 17.6678 34.0227 17.177 31.8853 15.4321L31.1372 20.0126C31.1372 20.0126 33.4349 21.1577 37.0151 21.1577C40.5418 21.1577 45.9388 19.3037 45.9388 14.1779C45.9388 8.88843 38.6716 8.39765 38.6716 6.05286C38.6716 3.65352 43.6945 3.98071 45.9388 5.2349Z" fill="#0066B3"/>
<path d="M12.809 11.2876L11.0457 2.12649C11.0457 2.12649 10.8319 0.272461 8.58764 0.272461H0.412046L0.305176 0.654173C0.305176 0.654173 4.25938 1.47213 7.99985 4.63488C11.6334 7.57951 12.809 11.2876 12.809 11.2876Z" fill="#FAA634"/>
</svg>
