<svg width="20" height="21" viewBox="0 0 20 21" fill="none" xmlns="http://www.w3.org/2000/svg">
<path d="M12.0188 9.76506V6.76037H13.0047V9.76506H12.0188ZM1.97183 4.2721V18.3097H16.0094V20.2815H1.97183C1.43975 20.2815 0.970266 20.0937 0.56338 19.7181C0.187793 19.3112 0 18.8417 0 18.3097V4.2721H1.97183ZM6.99531 7.79323V6.76037H7.98122V7.79323H6.99531ZM18.4977 6.76037V5.25802H15.493V11.2674H16.9953V9.29558H18.4977V7.79323H16.9953V6.76037H18.4977ZM14.507 9.76506V6.76037C14.507 6.35348 14.3662 6.00919 14.0845 5.7275C13.8028 5.41451 13.4429 5.25802 13.0047 5.25802H10.5164V11.2674H13.0047C13.4429 11.2674 13.8028 11.1266 14.0845 10.8449C14.3662 10.5319 14.507 10.1719 14.507 9.76506ZM9.48357 7.79323V6.76037C9.48357 6.35348 9.32707 6.00919 9.01408 5.7275C8.73239 5.41451 8.38811 5.25802 7.98122 5.25802H5.49296V11.2674H6.99531V9.29558H7.98122C8.38811 9.29558 8.73239 9.15473 9.01408 8.87304C9.32707 8.56005 9.48357 8.20012 9.48357 7.79323ZM18.0282 0.281494C18.5603 0.281494 19.0141 0.484937 19.3897 0.891823C19.7966 1.26741 20 1.72124 20 2.25333V14.2721C20 14.8042 19.7966 15.2737 19.3897 15.6806C19.0141 16.0874 18.5603 16.2909 18.0282 16.2909H6.00939C5.47731 16.2909 5.00782 16.0874 4.60094 15.6806C4.19405 15.2737 3.99061 14.8042 3.99061 14.2721V2.25333C3.99061 1.72124 4.19405 1.26741 4.60094 0.891823C5.00782 0.484937 5.47731 0.281494 6.00939 0.281494H18.0282Z" fill="#6D6D6D"/>
</svg>
