<svg width="222" height="126" viewBox="0 0 222 126" fill="none" xmlns="http://www.w3.org/2000/svg">
<path d="M187.248 52.1677C180.148 62.7559 170.354 70.8818 160.56 79.0076C150.766 70.8818 140.972 62.7559 134.116 52.4139C130.443 46.7504 127.505 39.117 131.178 33.4536C134.851 27.7901 143.176 27.2976 149.052 30.4987C154.194 33.2073 160.56 41.5794 160.56 41.5794C160.56 41.5794 160.56 41.5794 160.805 41.3332C161.05 41.5794 161.05 41.5794 161.05 41.5794C161.05 41.5794 167.416 33.2073 172.558 30.4987C178.434 27.2976 186.759 27.7901 190.432 33.4536C193.859 38.8708 190.921 46.5042 187.248 52.1677Z" fill="#EF525E"/>
<path d="M31.9473 101.254H51.627" stroke="#2F2E78" stroke-width="4" stroke-miterlimit="10" stroke-linecap="round" stroke-linejoin="round"/>
<path d="M2 52.4828H68.7399" stroke="#2F2E78" stroke-width="4" stroke-miterlimit="10" stroke-linecap="round" stroke-linejoin="round"/>
<path d="M2 76.4407H60.1835" stroke="#2F2E78" stroke-width="4" stroke-miterlimit="10" stroke-linecap="round" stroke-linejoin="round"/>
<path d="M95.6865 43.1269L131.209 79.6272L155.92 105.075" stroke="#2F2E78" stroke-width="1.5" stroke-miterlimit="10" stroke-linecap="round" stroke-linejoin="round"/>
<path d="M140.476 121.268L155.92 105.075L180.888 79.6272L216.153 43.3839L216.411 43.1269" stroke="#2F2E78" stroke-width="4" stroke-miterlimit="10" stroke-linecap="round" stroke-linejoin="round"/>
<path d="M155.92 105.075L180.888 79.6272L216.153 43.3839L216.411 43.1269" stroke="#2F2E78" stroke-width="1.5" stroke-miterlimit="10" stroke-linecap="round" stroke-linejoin="round"/>
<path d="M95.6865 43.1269L131.209 79.6272L155.92 105.075" stroke="#2F2E78" stroke-width="4" stroke-miterlimit="10" stroke-linecap="round" stroke-linejoin="round"/>
<path d="M155.92 105.075L180.888 79.6272L216.153 43.3839L216.411 43.1269" stroke="#2F2E78" stroke-width="4" stroke-miterlimit="10" stroke-linecap="round" stroke-linejoin="round"/>
<path d="M175.907 58.9149C169.836 67.9781 161.093 75.3266 152.593 82.4301C144.093 75.3266 135.35 68.223 129.279 58.9149C125.879 54.0159 123.45 47.1573 126.85 42.2583C130.007 37.3593 137.293 36.8694 142.393 39.5638C147.007 42.0133 152.35 49.3618 152.35 49.3618C152.35 49.3618 152.35 49.3618 152.593 49.1169C152.836 49.3618 152.836 49.3618 152.836 49.3618C152.836 49.3618 158.421 42.0133 162.793 39.5638C167.893 36.8694 175.179 37.3593 178.336 42.2583C181.736 47.1573 179.307 54.0159 175.907 58.9149Z" stroke="#2F2E78" stroke-width="4" stroke-miterlimit="10" stroke-linecap="round" stroke-linejoin="round"/>
<path d="M216.411 43.1269L219.242 123.068L88.4795 121.268L95.6869 43.1269" stroke="#2F2E78" stroke-width="4" stroke-miterlimit="10" stroke-linecap="round" stroke-linejoin="round"/>
<path d="M95.6865 43.1271L158.494 2L216.153 43.3841" stroke="#2F2E78" stroke-width="4" stroke-miterlimit="10" stroke-linecap="round" stroke-linejoin="round"/>
</svg>
