<svg width="340" height="275" viewBox="0 0 340 275" fill="none" xmlns="http://www.w3.org/2000/svg">
<path d="M330.071 252.895C331.134 252.116 332.056 251.443 332.092 250.062C332.127 248.646 331.383 247.725 330.603 246.769C329.787 245.777 328.794 244.538 327.908 242.095C327.553 241.068 327.127 239.828 326.631 238.377C324.255 231.295 320.248 219.397 314.184 210.261C307.092 199.532 301.489 196.168 297.411 193.689C294.042 191.635 292.163 190.502 291.241 186.288C291.099 185.687 290.957 185.262 290.815 184.837C290.603 184.164 290.39 183.562 290.319 182.464C293.085 182.146 294.681 181.898 294.752 181.898C295.283 181.827 295.674 181.367 295.709 180.835C295.709 180.729 296.099 171.062 295.213 159.235C294.007 143.301 291.205 131.12 286.879 123.117C282.659 113.025 281.525 103.96 281.312 98.0821C281.134 93.3726 281.525 89.8315 281.844 87.9548C288.475 99.3923 293.617 111.042 294.432 116.035V116.07C295.213 120.036 296.631 125.065 298.156 130.376C300.142 137.352 302.234 144.611 302.624 149.179C302.801 150.985 302.092 153.853 300.709 157.252C299.964 159.094 300.638 160.404 301.631 160.864C301.915 161.006 302.269 161.077 302.624 161.077C303.191 161.077 303.794 160.9 304.397 160.475C304.752 164.405 306.064 166.848 308.227 167.734C308.369 167.804 308.51 167.804 308.652 167.804C308.723 167.804 308.83 167.804 308.9 167.769C309.361 168.442 309.929 168.902 310.709 168.902C310.744 168.902 310.78 168.902 310.815 168.902C311.064 168.902 311.312 168.796 311.489 168.619C311.631 168.761 311.737 168.831 311.879 168.902C312.092 169.008 312.305 169.044 312.517 169.044C312.766 169.044 313.014 168.973 313.262 168.831C313.404 168.725 313.51 168.619 313.581 168.477C314.574 168.229 315.071 167.38 315.354 166.282C315.461 166.317 315.603 166.353 315.709 166.353C315.957 166.353 316.241 166.246 316.454 166.069C319.184 163.661 316.95 158.492 314.787 153.463C313.865 151.339 313.014 149.32 312.695 147.869C311.844 143.938 310.957 138.768 310.035 133.35C308.546 124.604 306.844 114.654 304.752 107.041C300.425 91.3188 295.283 80.3063 291.737 73.8616C288.51 68.019 286.028 64.7967 285.177 63.7698C285.993 63.5927 286.879 63.4157 287.766 63.2032C293.156 61.9284 298.085 58.4228 298.298 58.2812C298.759 57.9625 298.9 57.3251 298.617 56.8294C298.333 56.3337 297.73 56.1212 297.198 56.3337C296.808 56.5107 296.56 56.4399 296.383 56.3337C294.255 55.2005 292.659 47.3041 291.099 39.6555C290.957 38.9827 290.815 38.2745 290.674 37.5663C291.312 29.5283 290.993 21.4548 288.298 14.9393C283.688 3.78516 267.269 -4.32374 256.418 2.51039C255.674 2.68744 254.929 2.8645 254.184 3.07696C247.659 5.02451 242.978 8.67174 241.915 12.6731C240.993 13.5937 238.688 16.639 237.482 25.2082C236.489 32.1486 238.936 40.0804 243.51 44.8962C246.702 48.2602 250.744 50.0307 255.283 50.0661C255.425 50.2077 255.674 50.491 255.78 50.9867C256.489 54.032 253.014 60.4412 246.241 68.5501C245.213 69.7541 244.397 71.2059 243.794 72.9055C242.411 75.4905 241.099 78.2171 239.858 80.8374C236.135 88.663 232.624 96.0637 228.439 96.0637C226.276 96.0637 223.262 93.5142 219.893 88.9109C217.198 85.1928 215.213 81.404 215.177 81.3686C215.177 81.3331 215.142 81.2977 215.106 81.2623C215.071 81.2269 215.071 81.1915 215.035 81.1561C215 81.1207 215 81.1207 214.964 81.0853C214.929 81.0499 214.893 81.0145 214.893 81.0145C214.858 80.979 214.858 80.979 214.822 80.979C214.787 80.9436 214.752 80.9436 214.716 80.9082C214.681 80.9082 214.681 80.8728 214.645 80.8728C214.61 80.8374 214.574 80.8374 214.503 80.8374C214.468 80.8374 214.468 80.8374 214.432 80.8374C214.397 80.8374 214.326 80.802 214.291 80.802C214.255 80.802 214.255 80.802 214.22 80.802C214.184 80.802 214.113 80.802 214.078 80.802C214.042 80.802 214.042 80.802 214.007 80.802C213.971 80.802 213.9 80.802 213.865 80.8374C213.83 80.8374 213.794 80.8728 213.794 80.8728C213.759 80.8728 213.723 80.9082 213.652 80.9082C213.759 80.4479 213.865 79.9521 213.971 79.4918C214.893 75.4905 215.461 72.5514 214.503 71.135C214.22 70.6747 213.759 70.4268 213.262 70.3206C212.163 70.1436 211.312 70.6747 210.603 71.4891C210.177 69.7541 209.468 67.6295 208.156 66.1776C206.737 64.5488 205.354 64.5842 204.574 64.9029C204.113 64.478 203.617 64.1947 203.085 64.1239C202.482 64.053 201.915 64.478 201.808 65.0799C201.808 65.1507 201.808 65.2216 201.808 65.2924C201.525 65.1507 201.205 65.1153 200.886 65.1153C200.283 65.1862 199.822 65.7173 199.858 66.3547C199.858 66.3547 199.858 66.3547 199.858 66.3901C199.432 66.1422 198.971 66.1068 198.51 66.2131C197.979 66.3547 197.021 66.815 196.702 68.4085C195.957 72.3036 200 82.3246 204.326 86.1135C204.078 86.4676 204.042 86.9279 204.291 87.3528C204.326 87.4237 207.943 93.4788 212.801 99.3214C219.149 107.041 224.61 110.936 229.078 110.936C229.291 110.936 229.503 110.936 229.716 110.901C234.255 110.511 238.51 108.139 242.092 104.102C243.262 102.756 244.184 101.446 244.858 100.384C245.674 103.783 246.702 107.43 247.908 111.325C251.489 122.834 248.794 127.756 245 134.625C243.51 137.352 241.808 140.432 240.354 144.257L239.787 145.709C235.354 157.429 227.908 177.046 226.986 188.094C226.737 190.998 226.631 196.168 226.454 202.719C226.241 212.138 225.957 223.894 225.177 233.809C224.078 247.831 222.411 252.01 221.241 253.107C218.439 255.621 213.652 256.932 209.822 257.994C207.73 258.56 205.957 259.056 204.645 259.658C202.766 260.543 201.986 261.676 202.376 263.057C202.73 264.332 204.184 265.217 209.716 265.217C210.496 265.217 211.347 265.217 212.269 265.182C217.163 265.005 223.085 264.368 227.234 263.836C228.688 263.659 229.858 263.695 230.815 263.73C232.447 263.801 234.007 263.872 234.787 262.314C235.815 260.366 235.461 259.092 235.071 257.569C234.503 255.48 233.652 252.293 236.135 244.113C243.652 219.255 243.12 205.764 242.766 196.841C242.624 193.689 242.553 191.175 242.837 188.944C242.943 187.988 244.255 184.695 245.248 182.677C250.425 183.527 256.489 184.164 262.801 184.164C265.532 184.164 268.227 184.093 270.78 184.022C274.432 194.043 277.943 199.142 284.361 203.923C291.347 209.093 299.822 217.98 307.624 228.249C314.858 237.775 318.9 244.998 319.007 246.981C319.113 248.787 315.957 252.116 313.404 254.771C310.177 258.171 307.411 261.074 307.517 263.589C307.553 264.438 307.943 265.182 308.617 265.749C309.22 266.244 309.893 266.457 310.673 266.457C312.943 266.457 315.78 264.651 317.908 263.128C321.418 260.614 325.248 257.144 327.837 254.63C328.759 253.851 329.468 253.32 330.071 252.895Z" fill="white"/>
<path d="M210.887 224.071C211.525 224.071 212.021 223.575 212.021 222.938C212.021 222.3 211.525 221.805 210.887 221.805H197.128C196.95 221.486 196.738 221.203 196.525 220.884C204.539 220.813 213.936 220.707 215.674 220.672C216.135 220.672 216.56 220.353 216.738 219.893C216.809 219.68 217.376 217.874 216.099 215.714C215.816 215.254 215.496 214.794 215.106 214.404C215.248 214.404 215.426 214.404 215.603 214.404C215.922 214.404 216.241 214.404 216.525 214.404C217.908 214.404 219.007 214.333 219.823 214.262C220.78 214.156 222.128 214.05 222.34 212.952C222.553 211.925 222.199 210.686 221.312 209.411C220.142 207.747 217.837 205.764 214.752 205.268C212.447 204.914 210.355 204.418 208.653 203.958C208.688 203.958 208.688 203.923 208.723 203.887C208.759 203.852 208.759 203.852 208.794 203.816C208.83 203.781 208.83 203.746 208.865 203.71C208.901 203.675 208.901 203.639 208.936 203.604C208.936 203.569 208.972 203.533 208.972 203.498C208.972 203.462 209.007 203.427 209.007 203.391C209.007 203.356 209.043 203.321 209.043 203.285C209.043 203.25 209.043 203.214 209.043 203.179C209.043 203.144 209.043 203.108 209.043 203.073C209.043 203.037 209.043 203.037 209.043 203.037V203.002C209.043 202.967 209.043 202.931 209.043 202.896C209.043 202.86 209.043 202.825 209.007 202.789C209.007 202.754 208.972 202.719 208.972 202.683C208.972 202.648 208.936 202.612 208.936 202.577C208.936 202.577 208.936 202.542 208.901 202.542C207.163 199.532 205.887 192.981 204.397 185.403C201.915 172.514 198.794 156.509 191.383 150.17C186.489 145.992 177.766 143.584 165.426 143.088C159.397 142.84 153.936 143.124 150.922 143.336C150.887 143.124 150.816 142.947 150.674 142.769C147.518 139.087 143.192 127.118 140.071 117.451C143.653 118.443 147.34 118.938 151.028 118.938C163.723 118.938 176.277 113.202 184.326 103.004C184.362 102.933 184.397 102.898 184.433 102.827C184.433 102.792 184.468 102.792 184.468 102.756C184.468 102.721 184.504 102.721 184.504 102.685V102.65C184.504 102.614 184.539 102.579 184.539 102.544C184.539 102.508 184.539 102.473 184.539 102.437C184.539 102.402 184.539 102.367 184.539 102.331C184.539 102.296 184.539 102.26 184.539 102.225C184.539 102.19 184.539 102.154 184.539 102.119C184.539 102.083 184.539 102.048 184.504 102.013C184.504 101.977 184.468 101.942 184.468 101.906C184.468 101.871 184.433 101.835 184.433 101.8C184.433 101.765 184.397 101.729 184.362 101.694C184.326 101.658 184.326 101.623 184.291 101.588C184.255 101.552 184.255 101.552 184.22 101.517C184.184 101.481 184.149 101.446 184.149 101.446L184.114 101.411L184.078 101.375C184.043 101.34 184.007 101.34 183.972 101.304C183.936 101.269 183.901 101.269 183.865 101.269L183.83 101.233C183.759 101.198 183.44 101.056 182.872 100.596C188.688 98.4007 197.27 90.0085 198.404 85.8301C198.83 84.3075 198.298 83.4576 197.801 83.0327C197.447 82.714 196.95 82.5724 196.454 82.6078C196.418 82.6078 196.383 82.6078 196.312 82.6432C196.348 82.6078 196.418 82.537 196.454 82.4662C196.773 81.935 196.631 81.2622 196.099 80.9081C195.78 80.6957 195.426 80.6248 195.071 80.6603C195.142 80.554 195.177 80.4832 195.213 80.377C195.39 79.775 195.071 79.1376 194.504 78.9606C194.007 78.7835 193.44 78.8189 192.801 79.0668C192.411 78.6065 191.206 77.5796 188.901 78.6419C186.773 79.5979 184.504 82.2183 182.943 84.2367C182.66 83.1035 182.092 82.1475 180.957 81.8288C180.461 81.6871 179.929 81.758 179.468 82.0058C177.943 82.8911 177.163 85.9718 176.241 90.2564C176.099 90.9292 175.922 91.7082 175.78 92.2393C175.426 91.8852 174.858 91.8144 174.397 92.0623C174.362 92.0977 174.326 92.0977 174.326 92.1331C174.114 92.1685 173.936 92.2747 173.794 92.4164C170.816 95.4616 166.206 99.5692 161.241 101.906C155.851 104.456 151.241 104.385 147.482 101.658C145.922 100.525 144.433 99.3568 143.014 98.259C136.418 93.1246 130.177 88.238 120.355 88.9816L119.291 84.9449C125.745 83.1035 129.504 79.4563 131.596 76.3402C135.532 70.533 136.56 62.5303 134.255 55.4483C131.489 46.8791 128.369 43.5505 126.844 42.382C128.121 41.3551 129.078 40.0803 129.645 38.5577C132.128 32.1485 127.199 24.0396 126.986 23.7209L126.95 23.6855C126.915 23.6501 126.915 23.6147 126.879 23.5793C126.844 23.5438 126.844 23.5439 126.809 23.5084C126.773 23.473 126.738 23.473 126.738 23.4376C126.702 23.4022 126.667 23.4022 126.631 23.3668C126.596 23.3314 126.56 23.3314 126.525 23.3314C126.489 23.296 126.454 23.296 126.418 23.296C126.418 23.296 126.383 23.296 126.383 23.2606H126.348C126.312 23.2606 126.277 23.2252 126.241 23.2252C126.206 23.2252 126.17 23.2252 126.135 23.2252C126.099 23.2252 126.064 23.2252 126.028 23.2252C125.993 23.2252 125.958 23.2252 125.922 23.2252C125.887 23.2252 125.851 23.2252 125.816 23.2606C125.78 23.2606 125.745 23.2606 125.709 23.296C125.674 23.296 125.638 23.3314 125.603 23.3314C125.567 23.3314 125.532 23.3668 125.497 23.4022C125.497 23.4022 125.461 23.4022 125.461 23.4376L125.426 23.473C125.39 23.5084 125.355 23.5084 125.319 23.5438C125.284 23.5793 125.284 23.5793 125.248 23.6147C125.213 23.6501 125.177 23.6855 125.177 23.7209C125.142 23.7563 125.142 23.7917 125.106 23.7917C125.071 23.8271 125.071 23.8625 125.036 23.898C125.036 23.9334 125 23.9688 125 24.0042C125 24.0396 124.965 24.0396 124.965 24.075C124.965 24.1104 124.255 26.0226 121.099 28.1472C119.965 28.9262 118.723 29.599 117.376 30.1655C116.099 30.0239 114.61 29.9531 112.837 29.9177C87.2696 29.4219 83.7589 41.5676 85.0001 45.8876C84.5391 48.2955 84.5036 51.022 84.9292 53.9611C85.1774 55.6962 85.532 57.2542 85.8866 58.4582C84.0426 59.8746 81.6313 63.0615 83.3689 66.8503C84.4327 69.1874 86.3476 70.2143 88.1561 70.5684C88.688 72.091 90.071 75.3133 92.8015 78.4648C95.1065 81.1206 98.7589 84.0596 104.149 85.4406L104.397 89.0878C102.908 89.1587 98.8299 89.4773 93.6526 90.9646C87.766 92.6643 79.3263 96.2053 72.5178 103.606C68.1916 102.933 63.759 102.756 59.3973 103.146C49.8228 103.995 41.5959 107.43 35.5675 113.06C29.5037 118.726 25.3547 126.375 23.5817 135.227C21.9505 143.407 22.4824 152.366 25.1065 160.439C25.1065 160.474 25.142 160.51 25.142 160.545C25.071 160.722 25.0001 160.935 25.0356 161.147C25.1065 161.714 25.603 162.139 26.1349 162.139C26.1703 162.139 26.2412 162.139 26.2767 162.139L35.1065 161.041C35.7093 160.97 36.1703 160.404 36.0994 159.802C36.0994 159.695 36.0639 159.589 36.0285 159.518C36.0994 159.306 36.0994 159.058 36.0285 158.846C34.1136 152.472 33.6881 145.425 34.8583 138.981C36.1349 132.04 39.1845 125.985 43.6526 121.559C48.0143 117.239 54.0427 114.618 61.0639 113.981C62.8015 113.839 64.5391 113.804 66.2767 113.91C65.1419 116.495 62.3051 124.746 66.4185 136.183C69.7873 145.567 71.6668 150.985 72.4824 153.357C70.6029 153.782 68.759 154.349 66.9504 155.021C54.681 159.483 44.8937 168.442 39.3618 180.269C33.8299 192.096 33.2625 205.339 37.7306 217.591C41.3831 227.612 48.0497 235.969 56.8086 241.705C65.2838 250.239 77.0568 255.515 90.0355 255.515C115.887 255.515 136.844 234.588 136.844 208.774C136.844 199.284 134.007 190.467 129.149 183.102C128.44 181.296 127.624 179.525 126.702 177.825C129.787 177.648 135.426 177.436 141.348 177.471C156.596 177.578 161.028 179.419 162.34 180.481C165.071 182.747 168.05 189.404 170.887 199.638C172.731 206.224 173.972 212.35 174.326 214.262C173.936 214.227 173.546 214.227 173.156 214.227C163.192 214.227 155.106 222.3 155.106 232.251C155.106 242.201 163.192 250.274 173.156 250.274C174.078 250.274 174.965 250.204 175.851 250.062C177.518 250.522 179.255 250.806 181.064 250.806C191.489 250.806 199.929 242.378 199.929 231.967C199.929 229.241 199.326 226.62 198.298 224.283H210.887V224.071Z" fill="white"/>
<path d="M33.2624 238.625H1.13475C0.496454 238.625 0 239.12 0 239.758C0 240.395 0.496454 240.891 1.13475 240.891H33.2624C33.9007 240.891 34.3971 240.395 34.3971 239.758C34.3617 239.12 33.8652 238.625 33.2624 238.625Z" fill="white"/>
<path d="M5.8867 231.365H28.4753C29.1136 231.365 29.6101 230.87 29.6101 230.232C29.6101 229.595 29.1136 229.099 28.4753 229.099H5.8867C5.24841 229.099 4.75195 229.595 4.75195 230.232C4.75195 230.87 5.24841 231.365 5.8867 231.365Z" fill="white"/>
<path d="M338.865 263.128H320.532C319.894 263.128 319.397 263.624 319.397 264.261C319.397 264.899 319.894 265.395 320.532 265.395H338.865C339.504 265.395 340 264.899 340 264.261C340 263.624 339.504 263.128 338.865 263.128Z" fill="white"/>
<path d="M209.716 265.111C204.184 265.111 202.73 264.226 202.376 262.951C201.986 261.57 202.766 260.437 204.645 259.552C205.957 258.95 207.766 258.454 209.822 257.887C213.652 256.825 218.44 255.515 221.241 253.001C222.447 251.939 224.078 247.725 225.177 233.702C225.957 223.788 226.241 212.067 226.454 202.612C226.596 196.061 226.737 190.892 226.986 187.988C227.908 176.905 235.354 157.287 239.787 145.602L240.354 144.15C241.808 140.326 243.51 137.245 245 134.519C248.759 127.685 251.489 122.727 247.908 111.219C245.035 101.977 243.227 94.0097 242.624 87.5297C241.808 78.8188 243.014 72.445 246.241 68.5853C253.014 60.4764 256.489 54.0672 255.78 51.022C255.603 50.2075 255.142 49.9951 255.106 49.9597C255.142 49.9597 255.142 49.9597 255.142 49.9597L255.886 47.8351C256.028 47.8705 257.411 48.4016 257.943 50.2783C259.042 54.1734 255.674 60.7951 248.014 70.0017C242.908 76.1277 243.581 89.7605 250.106 110.546C254.007 122.94 250.922 128.535 247.021 135.581C245.496 138.379 243.9 141.247 242.518 144.929L241.95 146.381C237.553 157.996 230.177 177.4 229.291 188.165C229.042 190.998 228.936 196.416 228.759 202.648C228.546 212.102 228.262 223.894 227.447 233.844C226.17 249.849 224.149 253.355 222.766 254.63C219.574 257.498 214.503 258.879 210.461 259.977C208.759 260.437 207.163 260.862 206.064 261.322C204.964 261.783 204.681 262.101 204.61 262.207C205.177 262.562 208.581 263.695 227.021 261.428C228.652 261.216 229.929 261.287 230.993 261.322C232.34 261.393 232.766 261.358 232.908 261.11C233.51 259.941 233.369 259.339 233.014 257.994C232.376 255.657 231.454 252.116 234.113 243.298C241.525 218.83 240.993 205.551 240.638 196.77C240.496 193.512 240.39 190.927 240.709 188.519C240.922 186.961 242.695 182.783 243.617 181.012C243.9 180.446 244.574 180.233 245.142 180.516C245.709 180.8 245.922 181.473 245.638 182.039C244.645 183.987 243.085 187.776 242.979 188.802C242.695 191.033 242.801 193.512 242.908 196.699C243.262 205.622 243.794 219.113 236.276 243.971C233.794 252.186 234.645 255.338 235.213 257.427C235.603 258.914 235.957 260.225 234.929 262.172C234.113 263.695 232.588 263.659 230.957 263.588C230 263.553 228.794 263.518 227.376 263.695C223.262 264.19 217.305 264.863 212.411 265.04C211.347 265.111 210.496 265.111 209.716 265.111Z" fill="#2E3079"/>
<path d="M285.851 124.71C285.425 124.71 285 124.462 284.822 124.038C280.354 113.379 279.22 103.748 279.042 97.5862C278.865 91.177 279.68 86.078 280.354 85.2635C280.638 84.9094 281.063 84.7678 281.489 84.8386C281.915 84.9094 282.234 85.2281 282.376 85.6531C282.482 86.0426 282.411 86.4675 282.127 86.7508C281.808 87.8485 281.099 92.0269 281.312 98.1174C281.524 103.995 282.659 113.096 286.879 123.188C287.127 123.754 286.844 124.427 286.276 124.64C286.134 124.675 285.993 124.71 285.851 124.71Z" fill="#2E3079"/>
<path d="M310.78 266.457C310 266.457 309.29 266.244 308.723 265.748C308.049 265.182 307.659 264.438 307.624 263.588C307.482 261.074 310.283 258.135 313.51 254.771C316.063 252.116 319.219 248.787 319.113 246.981C319.007 244.998 314.964 237.775 307.73 228.249C299.929 217.98 291.418 209.092 284.468 203.923C277.872 199.001 274.361 193.795 270.602 183.243C270.39 182.676 270.709 182.004 271.276 181.827C271.844 181.614 272.517 181.933 272.73 182.499C276.383 192.698 279.539 197.478 285.851 202.152C292.978 207.464 301.631 216.493 309.574 226.939C315.319 234.517 321.205 243.617 321.418 246.91C321.595 249.708 318.51 252.965 315.212 256.4C312.836 258.914 309.858 262.03 309.964 263.553C309.964 263.73 310 263.907 310.283 264.12C310.851 264.615 312.907 264.19 316.844 261.393C320.248 258.985 323.971 255.55 326.489 253.107C327.411 252.222 328.191 251.62 328.829 251.16C329.68 250.522 329.929 250.345 329.929 250.097C329.929 249.495 329.645 249.141 328.936 248.256C328.085 247.194 326.879 245.706 325.886 242.909C325.496 241.882 325.071 240.607 324.574 239.12C322.234 232.144 318.262 220.424 312.375 211.536C305.567 201.231 300.212 198.009 296.312 195.672C292.801 193.547 290.248 191.989 289.113 186.855C289.007 186.395 288.9 186.005 288.758 185.616C288.475 184.695 288.156 183.774 288.085 181.72C288.049 181.118 288.546 180.587 289.184 180.552C289.787 180.516 290.319 181.012 290.354 181.65C290.425 183.385 290.638 184.093 290.922 184.907C291.063 185.332 291.205 185.793 291.347 186.359C292.269 190.573 294.149 191.706 297.517 193.76C301.595 196.239 307.198 199.603 314.29 210.332C320.354 219.468 324.326 231.33 326.737 238.447C327.234 239.899 327.659 241.138 328.014 242.165C328.9 244.609 329.893 245.848 330.709 246.839C331.489 247.796 332.234 248.716 332.198 250.133C332.163 251.514 331.241 252.186 330.177 252.965C329.61 253.39 328.865 253.922 328.049 254.701C325.461 257.179 321.631 260.685 318.12 263.199C315.886 264.651 313.049 266.457 310.78 266.457Z" fill="#2E3079"/>
<path d="M256.383 24.9249C256.135 26.0226 256.808 27.1558 257.943 27.4036C259.042 27.6515 260.177 26.9787 260.425 25.8456C260.674 24.7479 260 23.6148 258.865 23.3669C257.73 23.119 256.631 23.8272 256.383 24.9249Z" fill="#2E3079"/>
<path d="M240.744 27.7577C241.312 28.7492 242.588 29.0679 243.581 28.4659C244.574 27.8994 244.893 26.6246 244.291 25.6331C243.723 24.6417 242.447 24.323 241.454 24.9249C240.496 25.5269 240.177 26.8017 240.744 27.7577Z" fill="#2E3079"/>
<path d="M252.695 5.69722C265.177 8.21133 274.255 14.7622 276.489 27.439C278.262 37.5663 271.028 57.6791 287.588 58.3873C289.964 45.5335 293.51 27.439 288.333 14.9746C283.12 2.40408 263.085 -6.23597 252.695 5.69722Z" fill="#B3569F"/>
<path d="M253.759 176.338C270.355 158.173 263.333 136.254 257.66 115.539C255.248 106.722 247.943 84.52 260.887 80.4833C279.539 74.676 279.22 109.236 279.255 118.549C279.397 142.557 275.39 162.67 253.759 176.338Z" fill="#B3569F"/>
<path d="M256.844 30.9445C257.057 32.6088 258.582 33.7773 260.249 33.5648C261.915 33.3524 263.085 31.8297 262.873 30.1655C262.66 28.5012 261.135 27.3327 259.468 27.5451C257.802 27.793 256.632 29.3156 256.844 30.9445Z" fill="#B3569F"/>
<path d="M239.823 32.5026C240.036 34.1669 241.56 35.3354 243.227 35.123C244.894 34.9105 246.064 33.3879 245.851 31.7236C245.638 30.0593 244.114 28.8908 242.447 29.1033C240.78 29.3157 239.61 30.8384 239.823 32.5026Z" fill="#B3569F"/>
<path d="M278.758 64.5134C275.39 64.5134 273.014 63.6989 271.276 62.0347C268.156 59.0248 267.34 53.3592 268.794 43.4798C265.744 47.3749 261.773 49.6411 257.234 50.0307C251.879 50.491 247.127 48.7559 243.51 44.9316C238.9 40.0804 236.489 32.184 237.482 25.2436C238.688 16.6744 240.992 13.5937 241.914 12.7085C243.014 8.70713 247.659 5.0599 254.184 3.11235C258.475 1.83759 263.12 1.44808 267.305 2.05005C272.127 2.72284 276.312 4.7058 279.397 7.71565C285.992 14.2311 288.865 28.3243 291.17 39.6909C292.73 47.3395 294.326 55.2359 296.453 56.369C296.631 56.4753 296.879 56.5461 297.269 56.369C297.801 56.1566 298.404 56.3691 298.687 56.8648C298.971 57.3605 298.829 57.9979 298.368 58.3166C298.156 58.4582 293.227 61.9638 287.836 63.2386C284.184 64.0884 281.205 64.5134 278.758 64.5134ZM272.127 37.5309C272.092 37.8142 272.021 38.0975 271.985 38.3453C269.574 50.7034 269.858 57.5376 272.836 60.4058C275.177 62.6366 279.645 62.8491 287.269 61.0432C290.106 60.3704 292.872 58.9894 294.751 57.8917C292.127 55.6963 290.78 49.0392 288.936 40.1158C286.702 29.0679 283.9 15.3288 277.766 9.3091C275.035 6.61794 271.312 4.88285 266.95 4.24547C263.085 3.67891 258.758 4.03301 254.822 5.23695C249.007 6.97204 244.751 10.1944 244.007 13.4875C243.971 13.7354 243.936 15.1518 245.07 16.2495C246.524 17.6305 249.432 18.02 253.475 17.3826C259.219 16.4265 264.361 17.9137 267.907 21.561C271.56 25.3144 273.085 30.98 272.127 37.2122C272.163 37.3184 272.163 37.4247 272.127 37.5309ZM242.269 16.0724C241.418 17.7013 240.39 20.6049 239.68 25.5269C238.936 30.7676 240.319 38.3099 245.141 43.3736C248.297 46.6667 252.411 48.2247 257.056 47.7998C265.957 47.0208 269.503 38.1329 269.929 36.9643C270.78 31.3696 269.503 26.3767 266.312 23.119C263.297 20.0029 258.865 18.7636 253.865 19.578C249.007 20.3924 245.496 19.7905 243.475 17.8429C242.943 17.2764 242.553 16.6744 242.269 16.0724Z" fill="#2E3079"/>
<path d="M261.064 23.0834C260.709 23.0834 260.319 22.9064 260.106 22.5523C259.681 21.8795 259.184 21.49 258.652 21.4192C257.837 21.2775 257.092 21.8441 257.056 21.8795C256.56 22.269 255.851 22.1982 255.461 21.7024C255.071 21.2067 255.142 20.4985 255.638 20.109C255.78 20.0028 257.198 18.9051 258.971 19.2237C260.142 19.4008 261.134 20.1444 261.95 21.3838C262.269 21.9149 262.127 22.5877 261.595 22.9418C261.489 23.0126 261.276 23.0834 261.064 23.0834Z" fill="#2E3079"/>
<path d="M250.071 34.7688C248.794 34.7688 247.34 34.3438 246.702 32.892C246.17 31.6173 246.418 30.6966 246.737 30.1655C247.518 28.8199 249.326 28.5366 249.539 28.5366C250.142 28.4658 250.709 28.8907 250.78 29.5281C250.851 30.13 250.425 30.6966 249.787 30.7674C249.432 30.8028 248.83 31.0153 248.652 31.2986C248.546 31.4756 248.652 31.8297 248.759 32.0068C249.042 32.715 250.567 32.5025 250.957 32.3963C251.56 32.2546 252.163 32.6088 252.305 33.2107C252.447 33.8127 252.092 34.4147 251.489 34.5563C251.099 34.6979 250.603 34.7688 250.071 34.7688Z" fill="#2E3079"/>
<path d="M250.567 42.4174C249.149 42.4174 247.979 41.9925 247.198 41.5676C245.815 40.824 245.106 39.8679 245.035 39.7262C244.681 39.2305 244.787 38.5223 245.319 38.1682C245.815 37.8141 246.525 37.9203 246.879 38.4161C246.986 38.5223 248.901 41.0718 252.624 39.7971C256.418 38.4869 256.95 35.0875 256.95 34.9459C257.021 34.3439 257.588 33.919 258.227 33.9898C258.83 34.0606 259.291 34.6272 259.184 35.2292C259.149 35.4416 258.51 40.1512 253.369 41.9217C252.34 42.2758 251.418 42.4174 250.567 42.4174Z" fill="#2E3079"/>
<path d="M245.106 25.1728C244.751 25.1728 244.361 24.9957 244.149 24.6416C243.723 23.9689 243.227 23.5793 242.695 23.5085C241.879 23.3669 241.134 23.9334 241.099 23.9689C240.603 24.3584 239.893 24.2875 239.503 23.7918C239.113 23.2961 239.184 22.5879 239.681 22.1984C239.822 22.0921 241.241 20.9944 243.014 21.3131C244.184 21.4902 245.177 22.2338 245.993 23.4731C246.312 24.0043 246.17 24.6771 245.638 25.0312C245.532 25.1374 245.319 25.1728 245.106 25.1728Z" fill="#2E3079"/>
<path d="M228.475 98.3652C225.496 98.3652 222.021 95.6386 218.085 90.2563C215.283 86.3966 213.298 82.6077 213.227 82.4661C212.943 81.8995 213.156 81.2267 213.688 80.9434C214.255 80.6602 214.929 80.8726 215.212 81.4038C215.248 81.4392 217.198 85.2281 219.929 88.9461C223.298 93.5848 226.312 96.0989 228.475 96.0989C232.624 96.0989 236.17 88.6982 239.893 80.8726C241.241 78.0044 242.659 75.03 244.184 72.2326C244.468 71.7014 245.177 71.489 245.709 71.7723C246.241 72.0555 246.454 72.7637 246.17 73.2949C244.681 76.0569 243.262 78.9959 241.915 81.8287C237.695 90.7166 234.042 98.3652 228.475 98.3652Z" fill="#2E3079"/>
<path d="M229.078 110.865C224.609 110.865 219.148 106.97 212.801 99.2505C207.978 93.4078 204.326 87.3527 204.29 87.2819C203.971 86.7507 204.148 86.0779 204.68 85.7592C205.212 85.4405 205.886 85.6176 206.205 86.1488C210.07 92.6288 221.808 109.307 229.503 108.599C239.078 107.749 244.007 97.1967 244.042 97.0905C244.29 96.5239 244.964 96.276 245.531 96.5239C246.099 96.7718 246.347 97.4445 246.099 98.0111C246.028 98.1173 244.716 101.021 242.092 104.031C238.546 108.103 234.255 110.44 229.716 110.83C229.539 110.865 229.326 110.865 229.078 110.865Z" fill="#2E3079"/>
<path d="M206.099 86.857C205.638 86.857 205.177 86.5737 205.035 86.0779C204.822 85.476 205.142 84.8386 205.744 84.6615C208.049 83.8825 213.652 80.9789 213.723 80.9789C214.291 80.6956 214.964 80.9081 215.248 81.4746C215.532 82.0412 215.319 82.714 214.752 82.9972C214.503 83.1035 208.936 86.0071 206.454 86.8215C206.347 86.8215 206.205 86.857 206.099 86.857Z" fill="#2E3079"/>
<path d="M212.411 83.2097C211.808 83.2097 211.312 82.7494 211.276 82.112C211.276 81.5454 211.454 80.6602 211.808 79.0313C212.163 77.4024 213.014 73.7198 212.73 72.5867C212.376 72.7283 211.667 73.4365 210.603 76.4818C210.284 77.3316 210.071 78.0398 209.184 78.0044C208.546 78.0044 208.085 77.4733 208.085 76.8359C208.085 76.588 208.156 76.3755 208.298 76.1985C208.333 76.0923 208.404 75.8798 208.475 75.7028C209.149 73.7906 210.532 69.8601 213.262 70.285C213.794 70.3558 214.22 70.6391 214.503 71.0994C215.461 72.5159 214.893 75.4549 213.971 79.4562C213.759 80.4477 213.475 81.6516 213.475 81.9703C213.546 82.6785 213.049 83.1743 212.411 83.2097Z" fill="#2E3079"/>
<path d="M210 75.8444C209.433 75.8444 208.936 75.3841 208.865 74.8175C208.865 74.7467 208.475 70.0017 206.454 67.7001C205.922 67.0981 205.567 66.9919 205.426 67.0273C204.929 67.3106 204.291 67.1335 203.972 66.6378C203.617 66.1066 203.794 65.4338 204.291 65.0797C204.965 64.6548 206.56 64.3715 208.156 66.2129C210.674 69.0811 211.099 74.428 211.099 74.6405C211.135 75.2424 210.674 75.809 210.071 75.8444C210.071 75.8444 210.036 75.8444 210 75.8444Z" fill="#2E3079"/>
<path d="M206.454 72.7637C205.922 72.7637 205.461 72.4096 205.355 71.8784C204.752 69.1518 203.511 66.4607 202.802 66.3544C202.199 66.2836 201.773 65.6817 201.844 65.0797C201.915 64.4777 202.518 64.0528 203.121 64.1236C205.851 64.5131 207.199 69.7538 207.553 71.3827C207.695 71.9847 207.305 72.5866 206.702 72.7283C206.631 72.7283 206.525 72.7637 206.454 72.7637Z" fill="#2E3079"/>
<path d="M204.042 73.9677C203.652 73.9677 203.298 73.7907 203.085 73.4366C202.978 73.2595 202.943 73.1179 202.766 72.4805C201.808 68.6208 201.17 67.6293 200.886 67.3815C200.354 67.346 199.893 66.9211 199.858 66.3546C199.787 65.7526 200.248 65.186 200.886 65.1152C202.837 64.9382 203.865 67.5939 204.964 71.9139C205 72.1264 205.071 72.3389 205.106 72.4097C205.319 72.9054 205.106 73.5074 204.645 73.7907C204.432 73.9323 204.255 73.9677 204.042 73.9677Z" fill="#2E3079"/>
<path d="M205.638 86.7862C205.425 86.7862 205.177 86.7153 204.964 86.5737C200.425 83.2452 195.922 72.4451 196.702 68.3729C196.986 66.8149 197.943 66.3192 198.51 66.1775C199.007 66.0359 199.539 66.1421 199.964 66.4254C201.276 67.2398 201.844 69.6477 202.34 72.268C202.411 72.5513 202.447 72.9054 202.518 73.0825C202.624 73.2595 202.659 73.472 202.659 73.6845C202.624 74.2864 202.092 74.7822 201.454 74.7113C200.532 74.6405 200.39 73.9323 200.142 72.693C199.716 70.533 199.326 69.152 198.971 68.55C198.9 68.727 198.83 69.0811 198.865 69.6477C199.007 73.7553 202.872 82.2183 206.276 84.7324C206.773 85.0865 206.879 85.7947 206.525 86.2904C206.347 86.6445 205.993 86.7862 205.638 86.7862ZM201.631 72.4805C201.702 72.4805 201.773 72.4805 201.808 72.5159C201.773 72.5159 201.702 72.4805 201.631 72.4805Z" fill="#2E3079"/>
<path d="M308.723 167.84C308.582 167.84 308.44 167.804 308.298 167.769C305.993 166.813 304.681 164.122 304.433 159.766C304.255 156.756 304.61 154.03 304.645 153.924C304.716 153.322 305.319 152.897 305.922 152.968C306.525 153.038 306.95 153.605 306.879 154.242C306.525 156.827 306.17 164.44 309.184 165.715C309.752 165.963 310.035 166.6 309.787 167.167C309.574 167.592 309.149 167.84 308.723 167.84Z" fill="#2E3079"/>
<path d="M310.744 168.938C308.794 168.938 307.978 166.069 307.446 163.236C306.985 160.793 306.808 158.35 306.808 158.244C306.773 157.642 307.234 157.075 307.836 157.04C308.439 157.004 309.007 157.465 309.042 158.067C309.361 162.068 310.212 165.998 310.886 166.671C311.418 166.707 311.879 167.167 311.914 167.734C311.95 168.336 311.453 168.867 310.851 168.902C310.815 168.938 310.78 168.938 310.744 168.938Z" fill="#2E3079"/>
<path d="M312.553 169.114C312.34 169.114 312.128 169.079 311.915 168.973C311.241 168.619 310.638 167.911 310.177 162.776C309.965 160.297 309.858 157.925 309.858 157.819C309.823 157.217 310.319 156.686 310.958 156.65C311.596 156.615 312.092 157.11 312.128 157.748C312.305 162.316 312.731 165.857 313.085 166.954C313.298 167.025 313.475 167.202 313.617 167.379C313.936 167.911 313.794 168.583 313.262 168.937C313.085 169.008 312.801 169.114 312.553 169.114Z" fill="#2E3079"/>
<path d="M313.297 168.584C312.765 168.584 312.304 168.229 312.198 167.698C312.092 167.132 312.411 166.565 312.978 166.388C313.085 166.247 313.581 165.326 313.226 161.714C313.014 159.519 312.624 157.465 312.624 157.429C312.517 156.827 312.907 156.225 313.51 156.119C314.113 156.013 314.716 156.403 314.822 157.004C314.858 157.111 315.319 159.519 315.496 162.068C315.709 164.866 315.673 168.088 313.475 168.548C313.439 168.584 313.368 168.584 313.297 168.584Z" fill="#2E3079"/>
<path d="M315.744 166.388C315.425 166.388 315.106 166.246 314.893 165.998C314.468 165.538 314.539 164.83 315 164.405C316.489 163.095 314.326 158.031 312.73 154.348C311.773 152.118 310.851 149.993 310.496 148.329C309.61 144.327 308.759 139.158 307.801 133.704C306.312 124.993 304.645 115.114 302.588 107.607C294.432 77.9335 283.298 65.0089 283.191 64.9027C282.766 64.4423 282.837 63.7341 283.298 63.3092C283.759 62.8843 284.468 62.9551 284.893 63.4154C285 63.5571 287.837 66.8148 291.737 73.8614C295.283 80.306 300.461 91.2831 304.752 107.041C306.844 114.654 308.546 124.604 310.035 133.35C310.957 138.803 311.844 143.938 312.695 147.868C313.014 149.32 313.865 151.339 314.787 153.463C316.95 158.491 319.184 163.697 316.454 166.069C316.276 166.317 316.028 166.388 315.744 166.388Z" fill="#2E3079"/>
<path d="M302.659 161.076C302.305 161.076 301.95 161.006 301.666 160.864C300.673 160.404 299.964 159.093 300.744 157.252C302.127 153.853 302.836 150.984 302.659 149.179C302.234 144.611 300.177 137.352 298.191 130.376C296.666 125.064 295.248 120.036 294.468 116.07V116.035C293.404 109.59 285.177 92.0622 275.815 78.2522C275.461 77.7565 275.602 77.0483 276.099 76.6942C276.595 76.3401 277.305 76.4817 277.659 76.9775C286.383 89.7959 295.425 108.209 296.666 115.61C297.411 119.505 298.829 124.462 300.354 129.703C302.375 136.785 304.468 144.115 304.893 148.931C305.141 151.693 303.9 155.411 302.801 158.066C302.624 158.456 302.624 158.704 302.659 158.81C302.907 158.81 303.687 158.491 304.432 157.11C304.716 156.579 305.425 156.367 305.957 156.65C306.489 156.933 306.702 157.642 306.418 158.173C305.319 160.262 303.865 161.076 302.659 161.076Z" fill="#2E3079"/>
<path d="M262.837 184.093C245.425 184.093 230.035 179.136 229.893 179.1C229.291 178.923 228.971 178.286 229.184 177.684C229.361 177.082 230 176.763 230.603 176.976C230.744 177.011 245.78 181.862 262.837 181.862C277.482 181.862 290.035 180.304 293.475 179.844C293.546 177.153 293.688 169.008 292.943 159.412C291.773 143.973 288.971 131.792 284.858 124.144C284.574 123.613 284.751 122.904 285.319 122.621C285.851 122.338 286.56 122.515 286.844 123.082C291.205 131.12 294.007 143.265 295.212 159.271C296.099 171.133 295.709 180.8 295.709 180.871C295.673 181.402 295.283 181.862 294.751 181.933C294.574 181.933 280.177 184.093 262.837 184.093Z" fill="#2E3079"/>
<path d="M268.829 127.295C258.971 127.295 250.993 125.206 250.461 125.064C249.858 124.887 249.503 124.285 249.681 123.683C249.858 123.081 250.461 122.727 251.063 122.904C251.241 122.94 270.141 127.862 285.461 122.515C286.063 122.302 286.702 122.621 286.879 123.188C287.092 123.79 286.773 124.427 286.205 124.604C280.461 126.622 274.361 127.295 268.829 127.295Z" fill="#2E3079"/>
<path d="M251.915 82.4306C251.56 82.4306 251.205 82.2536 250.993 81.9349C250.957 81.864 250.886 81.7224 250.815 81.5454C247.34 75.7027 250.673 63.7341 250.815 63.203C250.993 62.601 251.595 62.2469 252.198 62.4239C252.801 62.601 253.156 63.203 252.978 63.8049C252.127 66.8148 250.532 74.8529 252.234 79.3145C253.723 77.6148 256.631 74.1801 259.574 70.1433C264.61 63.2384 267.695 57.679 268.404 54.0672C268.51 53.4652 269.113 53.0757 269.716 53.1819C270.319 53.2882 270.709 53.8901 270.603 54.4921C269.574 59.5911 264.858 66.8148 261.028 71.9492C258.794 74.9945 256.737 77.5086 255.39 79.0667C252.695 82.2536 252.517 82.289 252.127 82.3598C252.056 82.3952 251.986 82.4306 251.915 82.4306Z" fill="#2E3079"/>
<path d="M261.241 71.6305C260.709 71.6305 260.213 71.241 260.142 70.6745C260.035 70.0725 260.461 69.4705 261.064 69.3997L270.426 67.9479L271.773 61.9636C271.915 61.3616 272.518 60.9721 273.121 61.1138C273.723 61.2554 274.113 61.8574 273.972 62.4593L272.447 69.1872C272.34 69.6476 271.986 69.9663 271.525 70.0371L261.418 71.6305C261.383 71.6305 261.312 71.6305 261.241 71.6305Z" fill="#2E3079"/>
<path d="M216.879 260.437C213.404 260.437 210.958 260.118 210.745 260.118C210.142 260.047 209.681 259.481 209.787 258.879C209.858 258.277 210.426 257.817 211.028 257.923C211.135 257.923 223.156 259.41 232.27 255.621C232.837 255.373 233.511 255.657 233.723 256.223C233.972 256.79 233.688 257.463 233.121 257.675C227.66 259.941 221.383 260.437 216.879 260.437Z" fill="#2E3079"/>
<path d="M311.631 260.331C311.17 260.331 310.745 260.047 310.567 259.587C310.355 259.02 310.638 258.348 311.241 258.135C311.347 258.1 320.603 254.559 327.482 247.123C327.908 246.662 328.617 246.627 329.078 247.052C329.539 247.477 329.574 248.185 329.149 248.645C321.915 256.471 312.447 260.083 312.057 260.224C311.879 260.295 311.738 260.331 311.631 260.331Z" fill="#2E3079"/>
<path d="M276.738 78.748C276.312 78.748 275.886 78.5002 275.709 78.0752C274.326 75.03 274.964 71.489 277.589 67.8417C279.468 65.2214 281.702 63.4863 281.808 63.4155C282.305 63.026 283.014 63.1322 283.369 63.5925C283.759 64.0883 283.652 64.7965 283.191 65.1506C283.12 65.2214 275.213 71.489 277.766 77.1192C278.014 77.6857 277.766 78.3585 277.199 78.6064C277.021 78.7126 276.879 78.748 276.738 78.748Z" fill="#2E3079"/>
<path d="M86.2411 47.3746C83.2624 47.1975 81.844 29.28 112.837 29.8466C143.83 30.4486 96.7731 47.9411 86.2411 47.3746Z" fill="#F9A130"/>
<path d="M86.3833 99.9586C86.3833 99.9586 110.816 90.0083 125.142 96.0635C139.468 102.083 137.873 153.18 137.873 153.18C137.873 153.18 98.05 156.013 86.3833 99.9586Z" fill="#F9A130"/>
<path d="M181.1 250.593C191.519 250.593 199.965 242.159 199.965 231.755C199.965 221.351 191.519 212.917 181.1 212.917C170.681 212.917 162.234 221.351 162.234 231.755C162.234 242.159 170.681 250.593 181.1 250.593Z" fill="#F9A130"/>
<path d="M123.203 241.606C141.483 223.353 141.483 193.758 123.203 175.505C104.923 157.251 75.2862 157.251 57.0065 175.505C38.7268 193.758 38.7268 223.353 57.0065 241.606C75.2862 259.86 104.923 259.86 123.203 241.606Z" fill="#F9A130"/>
<path d="M106.95 57.8913C107.411 59.0953 106.773 60.4409 105.567 60.9012C104.362 61.3615 103.014 60.7241 102.553 59.5202C102.092 58.3163 102.73 56.9707 103.936 56.5104C105.177 56.0854 106.525 56.6874 106.95 57.8913Z" fill="#2E3079"/>
<path d="M124.894 58.812C124.398 59.9806 123.015 60.5471 121.844 60.016C120.674 59.5202 120.107 58.1392 120.639 56.9707C121.135 55.8022 122.518 55.2356 123.688 55.7668C124.859 56.2625 125.426 57.6435 124.894 58.812Z" fill="#2E3079"/>
<path d="M103.866 64.761C103.866 66.6378 102.341 68.1958 100.426 68.1958C98.5466 68.1958 96.9863 66.6732 96.9863 64.761C96.9863 62.8843 98.5112 61.3263 100.426 61.3263C102.341 61.3263 103.866 62.8489 103.866 64.761Z" fill="#F9A130"/>
<path d="M126.773 68.1958C128.673 68.1958 130.213 66.658 130.213 64.761C130.213 62.8641 128.673 61.3263 126.773 61.3263C124.874 61.3263 123.333 62.8641 123.333 64.761C123.333 66.658 124.874 68.1958 126.773 68.1958Z" fill="#F9A130"/>
<path d="M92.7662 159.731C91.8443 159.731 90.745 159.447 89.5038 158.775C88.9719 158.491 88.7592 157.783 89.0783 157.252C89.362 156.721 90.0712 156.508 90.6031 156.827C91.8443 157.5 92.8017 157.571 93.2982 157.429C93.4755 157.358 93.5464 157.287 93.5464 157.287C93.5464 157.252 93.4755 156.933 92.8726 156.508C89.6811 154.277 85.5677 150.666 85.4258 150.489C84.9648 150.064 84.9294 149.355 85.3194 148.895C85.745 148.435 86.4542 148.399 86.9152 148.789C86.9506 148.824 91.0996 152.472 94.1847 154.632C95.9577 155.871 96.0996 157.429 95.4613 158.456C94.9648 159.199 94.0428 159.731 92.7662 159.731Z" fill="#2E3079"/>
<path d="M92.4469 169.468C92.2342 169.468 91.9859 169.398 91.8086 169.256C91.3122 168.902 91.1703 168.194 91.5249 167.698C93.6881 164.582 88.6526 157.5 86.7023 155.234C86.3122 154.773 86.3476 154.065 86.8086 153.64C87.2696 153.251 87.9788 153.286 88.4044 153.746C88.4753 153.853 90.4966 156.19 92.1632 159.164C94.5391 163.413 94.9292 166.706 93.3689 168.973C93.1561 169.327 92.8015 169.468 92.4469 169.468Z" fill="#2E3079"/>
<path d="M91.1353 171.805C90.7453 171.805 90.3552 171.593 90.1424 171.239C89.8587 170.743 90.0006 170.106 90.4616 169.787C90.5325 169.539 90.6389 168.406 89.0431 164.688C88.0857 162.422 86.9509 160.368 86.9509 160.333C86.6673 159.801 86.8446 159.093 87.4119 158.81C87.9439 158.527 88.6531 158.704 88.9368 159.27C89.0077 159.377 90.2843 161.784 91.3481 164.369C91.9864 165.927 92.4119 167.238 92.5892 168.264C92.9084 169.964 92.5892 171.097 91.6672 171.664C91.5254 171.735 91.3126 171.805 91.1353 171.805Z" fill="#2E3079"/>
<path d="M89.4327 173.045C88.7944 173.045 88.2979 172.549 88.2979 171.912C88.2979 171.629 88.4043 171.381 88.5462 171.204C88.2625 170 86.5249 166.317 83.8298 161.784C83.5107 161.253 83.688 160.545 84.2199 160.262C84.7518 159.943 85.4611 160.12 85.7447 160.651C85.7447 160.687 87.1632 163.059 88.4752 165.538C91.1348 170.637 91.0284 171.629 90.6384 172.337C90.3901 172.797 89.9291 173.045 89.4327 173.045Z" fill="#2E3079"/>
<path d="M88.1916 173.045C86.2413 173.045 84.4682 170.248 83.2626 168.052C81.8796 165.538 80.8867 162.953 80.8158 162.847C80.603 162.28 80.8867 161.608 81.4541 161.395C82.0214 161.183 82.6952 161.466 82.908 162.033C82.908 162.068 83.8299 164.334 85.0002 166.6C87.0214 170.389 88.0143 170.779 88.1562 170.814C88.7236 170.602 89.3619 170.92 89.5746 171.487C89.7874 172.054 89.5037 172.726 88.9363 172.939C88.7236 173.01 88.4399 173.045 88.1916 173.045Z" fill="#2E3079"/>
<path d="M84.8938 172.372C84.8229 172.372 84.7874 172.372 84.7165 172.372C82.3051 172.018 80.0356 168.76 77.7307 162.493C76.1349 158.102 75.1065 153.888 75.0711 153.711C74.9292 153.109 75.2839 152.507 75.9222 152.366C76.525 152.224 77.1278 152.578 77.2697 153.215C77.2697 153.251 78.298 157.5 79.8583 161.749C82.6243 169.256 84.5392 170.106 85.0711 170.177C85.6739 170.283 86.0995 170.85 86.0285 171.452C85.9221 171.983 85.4257 172.372 84.8938 172.372Z" fill="#2E3079"/>
<path d="M153.937 106.085C151.277 106.085 148.653 105.341 146.171 103.535C144.575 102.402 143.086 101.198 141.632 100.065C134.929 94.8242 129.114 90.2917 119.646 91.3186C119.043 91.3894 118.476 90.9291 118.405 90.3271C118.334 89.7251 118.795 89.1586 119.398 89.0878C129.823 87.9546 136.242 92.9829 143.015 98.2944C144.468 99.4275 145.958 100.596 147.483 101.694C151.206 104.385 155.851 104.491 161.242 101.942C166.206 99.6045 170.816 95.4616 173.795 92.4517C174.22 92.0268 174.929 91.9914 175.39 92.4517C175.851 92.9121 175.851 93.5848 175.39 94.0452C170.426 99.1088 162.057 106.085 153.937 106.085Z" fill="#2E3079"/>
<path d="M151.064 119.009C146.667 119.009 142.234 118.301 137.979 116.849C137.376 116.637 137.092 115.999 137.269 115.433C137.447 114.866 138.121 114.547 138.688 114.724C146.206 117.274 154.716 117.38 162.66 115.043C170.567 112.671 177.66 107.926 182.589 101.694C182.979 101.198 183.688 101.127 184.184 101.517C184.681 101.906 184.752 102.614 184.362 103.11C176.312 113.273 163.759 119.009 151.064 119.009Z" fill="#2E3079"/>
<path d="M183.476 103.5C183.334 103.5 183.228 103.464 183.086 103.429C182.66 103.287 181.384 102.791 177.873 98.6485C176.1 96.5593 174.504 94.3639 174.043 93.6557C173.724 93.1245 173.866 92.4517 174.398 92.0976C174.93 91.7789 175.604 91.9206 175.958 92.4517C176.313 93.0183 177.838 95.0721 179.575 97.1612C182.554 100.702 183.653 101.233 183.866 101.304C184.433 101.517 184.752 102.154 184.54 102.756C184.362 103.216 183.937 103.5 183.476 103.5Z" fill="#2E3079"/>
<path d="M176.596 94.5761C176.418 94.5761 176.241 94.5407 176.099 94.4699C175.532 94.1866 175.319 93.5138 175.603 92.9827C175.744 92.6994 176.028 91.3892 176.276 90.3269C177.198 86.0423 177.979 82.9616 179.503 82.0764C179.964 81.7931 180.496 81.7577 180.993 81.8993C183.688 82.7137 183.262 86.9275 183.014 89.1938C182.978 89.4062 182.978 89.6187 182.943 89.7603C182.978 89.9728 182.943 90.2207 182.872 90.4331C182.624 90.9997 181.95 91.2476 181.383 90.9643C180.603 90.6102 180.674 89.902 180.78 88.9459C181.135 85.4757 180.78 84.4134 180.496 84.1301C179.716 85.0862 178.865 89.0167 178.475 90.7872C178.085 92.5223 177.872 93.443 177.624 93.9741C177.411 94.3282 176.986 94.5761 176.596 94.5761ZM182.305 88.9105C182.411 88.9459 182.482 89.0167 182.588 89.0876C182.482 89.0167 182.411 88.9813 182.305 88.9105Z" fill="#2E3079"/>
<path d="M182.056 88.5919C181.844 88.5919 181.631 88.5211 181.454 88.4148C180.922 88.0961 180.78 87.3879 181.099 86.8568C181.276 86.5735 185.319 80.2705 188.865 78.6771C191.737 77.4023 192.872 79.2436 192.907 79.3144C193.227 79.8456 193.049 80.5538 192.517 80.8371C192.021 81.1204 191.347 80.9787 191.028 80.5184C190.922 80.4476 190.567 80.3413 189.787 80.6954C187.34 81.7931 184.042 86.361 182.978 88.0607C182.801 88.4148 182.411 88.5919 182.056 88.5919Z" fill="#2E3079"/>
<path d="M186.703 87.2464C186.455 87.2464 186.206 87.1756 185.994 86.9985C185.497 86.609 185.426 85.9008 185.816 85.4051C185.887 85.3343 187.199 83.6346 188.83 82.0411C191.384 79.4916 193.121 78.5709 194.504 78.9959C195.107 79.1729 195.426 79.8103 195.213 80.4123C195.036 80.9788 194.398 81.3329 193.83 81.1205C193.76 81.1205 192.838 81.1559 190.32 83.7408C188.866 85.228 187.625 86.7861 187.625 86.7861C187.376 87.1048 187.057 87.2464 186.703 87.2464Z" fill="#2E3079"/>
<path d="M188.404 89.5127C188.05 89.5127 187.695 89.3356 187.482 89.0169C187.163 88.5566 187.234 87.9192 187.624 87.5651C187.695 87.4943 187.872 87.2464 188.085 87.0339C192.553 81.5454 194.574 80.0227 196.099 80.9788C196.631 81.2975 196.773 82.0057 196.454 82.5369C196.17 82.9972 195.638 83.1742 195.142 82.9972C194.681 83.1742 193.369 84.0595 189.787 88.4503C189.255 89.1231 189.184 89.194 189.007 89.3356C188.83 89.4418 188.617 89.5127 188.404 89.5127Z" fill="#2E3079"/>
<path d="M181.241 101.127C180.709 101.127 180.248 100.738 180.141 100.207C180.035 99.6046 180.425 99.0026 181.028 98.8964C182.978 98.5069 185.993 96.6656 189.149 93.9744C192.163 91.3895 194.716 88.4858 195.815 86.3966C196.134 85.7947 196.276 85.3697 196.312 85.1219C195.532 85.653 194.184 87.2111 192.269 89.7606C191.985 90.1147 191.773 90.4334 191.595 90.6813C191.347 90.9999 190.815 91.6727 190 91.354C189.432 91.1062 189.149 90.4688 189.397 89.9022C189.468 89.6898 189.61 89.5481 189.787 89.4065C189.929 89.2294 190.248 88.8045 190.532 88.4504C193.227 84.8386 195 82.891 196.524 82.714C197.021 82.6786 197.517 82.8202 197.872 83.1389C198.368 83.5992 198.9 84.4491 198.475 85.9363C197.234 90.4688 187.234 100.03 181.489 101.127C181.383 101.127 181.312 101.127 181.241 101.127ZM190.78 89.2294C190.815 89.2294 190.815 89.2294 190.78 89.2294C190.815 89.2294 190.815 89.2294 190.78 89.2294ZM190.638 89.194C190.709 89.194 190.744 89.2294 190.815 89.2294C190.744 89.2294 190.673 89.194 190.638 89.194Z" fill="#2E3079"/>
<path d="M89.7873 111.432C89.3263 111.432 88.9008 111.148 88.7235 110.723C88.5107 110.157 88.7944 109.484 89.3618 109.272L98.688 105.695C99.2554 105.483 99.9291 105.766 100.142 106.332C100.355 106.899 100.071 107.572 99.5036 107.784L90.1774 111.361C90.071 111.396 89.9291 111.432 89.7873 111.432Z" fill="#2E3079"/>
<path d="M86.5955 148.718C86.1345 148.718 85.709 148.435 85.5317 148.01C85.4962 147.975 83.6877 143.265 79.787 133.456C75.6026 123.01 80.709 117.451 80.9572 117.239C81.3827 116.778 82.0919 116.778 82.5529 117.203C83.0139 117.628 83.0139 118.336 82.5884 118.797C82.4111 119.009 78.2622 123.612 81.8792 132.642C85.8153 142.451 87.6238 147.16 87.6238 147.196C87.8366 147.762 87.5529 148.435 86.9856 148.647C86.8437 148.683 86.7019 148.718 86.5955 148.718Z" fill="#2E3079"/>
<path d="M74.078 155.34C73.617 155.34 73.156 155.057 73.0141 154.561C72.9787 154.49 71.1702 149.072 66.4893 135.971C61.6312 122.373 66.5602 113.237 66.773 112.883C67.0922 112.352 67.7659 112.14 68.2978 112.458C68.8297 112.742 69.0425 113.45 68.7234 113.981C68.6879 114.052 64.078 122.657 68.617 135.227C73.3333 148.364 75.1418 153.817 75.1773 153.853C75.39 154.455 75.0709 155.092 74.468 155.269C74.3262 155.34 74.2198 155.34 74.078 155.34Z" fill="#2E3079"/>
<path d="M73.2984 105.447C73.0147 105.447 72.7664 105.341 72.5537 105.164C72.0927 104.739 72.0572 104.031 72.4828 103.57C79.3267 96.0989 87.8019 92.5225 93.6884 90.8583C100.071 89.0169 104.823 88.9461 105 88.9461C105.603 88.9461 106.135 89.4418 106.135 90.0438C106.135 90.6458 105.639 91.1769 105.036 91.1769C105 91.1769 100.355 91.2478 94.2203 93.0183C88.6175 94.6471 80.5679 98.0465 74.114 105.093C73.9012 105.341 73.582 105.447 73.2984 105.447Z" fill="#2E3079"/>
<path d="M105.816 93.9744C105.213 93.9744 104.752 93.5141 104.681 92.9475L104.078 84.4491C104.043 83.8471 104.504 83.2805 105.106 83.2451C105.709 83.2097 106.277 83.6701 106.312 84.272L106.915 92.7704C106.95 93.3724 106.489 93.939 105.887 93.9744C105.851 93.9744 105.851 93.9744 105.816 93.9744Z" fill="#2E3079"/>
<path d="M119.503 91.3895C119.007 91.3895 118.546 91.0708 118.404 90.5396L116.95 85.0511C116.808 84.4491 117.163 83.8472 117.73 83.6701C118.333 83.493 118.936 83.8826 119.113 84.4491L120.567 89.9377C120.709 90.5396 120.354 91.1416 119.787 91.3187C119.681 91.3541 119.61 91.3895 119.503 91.3895Z" fill="#2E3079"/>
<path d="M111.276 94.5409C108.298 94.5409 105.78 94.0098 105.567 93.939C104.964 93.7973 104.574 93.1954 104.716 92.5934C104.858 91.9914 105.461 91.6019 106.064 91.7435C108.83 92.3455 116.454 93.1599 118.546 89.6544C118.865 89.1232 119.539 88.9462 120.071 89.2649C120.603 89.5835 120.78 90.2563 120.461 90.7875C118.652 93.8327 114.681 94.5409 111.276 94.5409Z" fill="#2E3079"/>
<path d="M110.745 86.1485C101.596 86.1485 95.9577 82.0056 92.8017 78.3937C89.1137 74.1799 87.908 69.7891 87.8371 69.6121C87.6598 69.0101 88.0499 68.4081 88.6173 68.2311C89.2201 68.054 89.8229 68.4435 90.0002 69.0101C90.0002 69.0455 91.135 73.1176 94.5393 76.9773C99.0428 82.0764 105.178 84.378 112.837 83.8115C120.355 83.2803 126.206 80.2705 129.681 75.136C133.227 69.8953 134.149 62.6363 132.092 56.1917C130.355 50.8093 128.511 47.7287 127.27 46.1352C125.922 44.4001 125 43.9398 125 43.9044H125.036L125.958 41.8506C126.419 42.063 130.639 44.2231 134.256 55.4834C136.525 62.5655 135.497 70.5681 131.596 76.3754C128.901 80.3767 123.475 85.2987 113.05 86.0423C112.234 86.1131 111.49 86.1485 110.745 86.1485Z" fill="#2E3079"/>
<path d="M99.2561 55.9794C99.0788 55.9794 98.937 55.944 98.7597 55.8732C98.1923 55.6253 97.944 54.9525 98.2277 54.3859C99.1497 52.4738 100.781 51.3761 102.873 51.3407C104.327 51.3053 105.497 51.801 105.639 51.8364C106.206 52.0843 106.49 52.7571 106.242 53.3236C105.994 53.8902 105.355 54.1735 104.753 53.9256C104.433 53.784 101.526 52.6863 100.249 55.342C100.107 55.7315 99.6816 55.9794 99.2561 55.9794Z" fill="#2E3079"/>
<path d="M125.248 54.7755C124.965 54.7755 124.681 54.6693 124.468 54.4568C122.199 52.1906 119.681 52.9342 119.645 52.9696C119.043 53.1467 118.44 52.828 118.227 52.226C118.05 51.624 118.369 51.0221 118.972 50.8096C119.114 50.7742 122.837 49.6411 126.064 52.8634C126.489 53.2883 126.489 53.9965 126.064 54.4568C125.816 54.6693 125.532 54.7755 125.248 54.7755Z" fill="#2E3079"/>
<path d="M115.709 67.7354C114.468 67.7354 113.298 67.3104 112.588 66.8855C112.057 66.5668 111.879 65.894 112.198 65.3629C112.518 64.8317 113.191 64.6547 113.723 64.9734C113.971 65.115 116.312 66.3898 117.837 64.4422C118.049 64.1943 118.475 63.557 118.333 63.2029C117.943 62.353 115.071 61.7511 112.766 61.7156C112.127 61.7156 111.667 61.1845 111.667 60.5825C111.667 59.9451 112.198 59.4494 112.801 59.4848C113.865 59.4848 119.149 59.6973 120.354 62.2822C120.709 63.0258 120.886 64.2652 119.61 65.8586C118.44 67.275 117.021 67.7354 115.709 67.7354Z" fill="#2E3079"/>
<path d="M112.695 79.5271C106.738 79.5271 102.66 73.1179 102.483 72.87C102.27 72.5159 102.27 72.091 102.447 71.7369C102.66 71.3828 103.015 71.1703 103.44 71.1703C103.547 71.1703 114.646 71.2058 120.71 71.2058C121.064 71.2058 121.419 71.3828 121.632 71.7015C121.844 72.0202 121.88 72.3743 121.773 72.7284C121.667 73.0117 119.22 79.3501 112.979 79.5625C112.908 79.5271 112.802 79.5271 112.695 79.5271ZM105.71 73.4012C107.199 75.1009 109.823 77.4025 112.908 77.2963C114.859 77.2255 116.561 76.3402 118.015 74.6051C118.369 74.1802 118.653 73.7907 118.866 73.4012C114.539 73.4012 108.83 73.4012 105.71 73.4012Z" fill="#2E3079"/>
<path d="M89.7518 66.8502C89.5036 66.8502 89.2199 66.744 89.0071 66.5669C87.695 65.4338 87.5887 64.3715 87.695 63.6633C87.766 63.3446 88.156 61.6804 90.7092 60.6889C91.2766 60.4764 91.9504 60.7597 92.1631 61.3263C92.3759 61.8928 92.0922 62.5656 91.5248 62.7781C90.8156 63.0614 89.9645 63.6633 89.8936 64.0174C89.8582 64.1945 90.0709 64.5132 90.461 64.8319C90.922 65.2214 90.9929 65.9296 90.5674 66.4253C90.3901 66.7086 90.0709 66.8502 89.7518 66.8502Z" fill="#2E3079"/>
<path d="M89.7165 70.6391C87.5179 70.6391 84.7519 69.8247 83.3689 66.7794C81.4895 62.6365 84.5037 59.2725 86.3477 58.0332C86.8796 57.679 87.5533 57.8561 87.9079 58.3518C88.2625 58.883 88.0852 59.5558 87.5888 59.9099C87.5533 59.9099 86.5604 60.5827 85.8157 61.6804C84.8938 63.0614 84.7519 64.407 85.3902 65.8234C86.9505 69.2581 91.0285 68.2312 91.2058 68.1604C91.8087 67.9834 92.4115 68.3375 92.5888 68.9394C92.7661 69.5414 92.4115 70.1434 91.8086 70.3204C91.2767 70.5329 90.5321 70.6391 89.7165 70.6391Z" fill="#2E3079"/>
<path d="M87.7662 61.7158C87.3052 61.7158 86.8797 61.4325 86.7024 61.0076C86.6669 60.8659 85.4967 57.8915 84.9293 53.9256C84.1492 48.5432 84.8939 43.9399 86.9861 40.576C89.5747 36.5038 94.1137 34.2022 100.568 33.7418C106.809 33.3169 115.461 31.9713 121.1 28.1116C124.256 25.9516 124.965 24.0395 124.965 24.0395C125.178 23.4375 125.78 23.1188 126.383 23.3313C126.986 23.5437 127.305 24.1457 127.092 24.7477C126.951 25.1372 123.617 34.3792 100.709 36.0081C95.0357 36.3976 91.0641 38.3451 88.8655 41.8153C84.3974 48.8973 88.7237 60.1223 88.7591 60.2286C88.9719 60.7951 88.6882 61.4679 88.1208 61.6804C88.0499 61.6804 87.9081 61.7158 87.7662 61.7158Z" fill="#2E3079"/>
<path d="M93.1207 51.1989C92.8725 51.1989 92.6243 51.1281 92.4115 50.9511C91.915 50.5616 91.8441 49.8534 92.2342 49.3576C95.6739 45.0376 100.461 44.8605 106.525 44.6127C110.816 44.4356 115.674 44.2586 121.383 42.6297C124.575 41.7091 126.667 40.0802 127.553 37.7785C129.646 32.4316 125.142 24.9955 125.071 24.9247C124.752 24.3935 124.929 23.7208 125.426 23.3667C125.958 23.048 126.631 23.1896 126.986 23.7208C127.199 24.0749 132.128 32.1838 129.646 38.5576C128.475 41.5674 125.887 43.6566 121.986 44.7897C116.028 46.4894 110.816 46.7019 106.596 46.8435C100.887 47.056 96.7732 47.233 94.0072 50.7386C93.7945 51.0573 93.4399 51.1989 93.1207 51.1989Z" fill="#2E3079"/>
<path d="M149.858 144.682C149.539 144.682 149.22 144.54 149.007 144.292C143.156 137.458 134.256 106.191 133.866 104.845C133.688 104.243 134.043 103.641 134.646 103.464C135.249 103.287 135.851 103.641 136.029 104.243C136.135 104.562 145.178 136.36 150.71 142.84C151.1 143.301 151.064 144.009 150.568 144.434C150.39 144.575 150.107 144.682 149.858 144.682Z" fill="#2E3079"/>
<path d="M117.908 155.765C117.554 155.765 117.199 155.588 116.986 155.304C116.632 154.809 116.738 154.101 117.234 153.746C125.674 147.727 147.483 143.832 148.44 143.655C149.043 143.548 149.646 143.938 149.752 144.575C149.858 145.177 149.468 145.779 148.83 145.885C148.617 145.921 126.596 149.887 118.546 155.588C118.369 155.694 118.121 155.765 117.908 155.765Z" fill="#2E3079"/>
<path d="M207.943 204.276C207.553 204.276 207.163 204.064 206.986 203.71C205.035 200.381 203.759 193.653 202.234 185.899C199.787 173.364 196.773 157.783 189.964 151.94C179.149 142.663 149.078 145.85 148.794 145.885C148.191 145.956 147.624 145.496 147.553 144.894C147.482 144.292 147.943 143.725 148.546 143.655C148.617 143.655 156.418 142.805 165.496 143.194C177.837 143.69 186.56 146.062 191.454 150.276C198.865 156.615 201.95 172.655 204.468 185.509C205.922 193.087 207.198 199.638 208.972 202.648C209.291 203.179 209.113 203.887 208.581 204.17C208.298 204.206 208.12 204.276 207.943 204.276Z" fill="#2E3079"/>
<path d="M199.61 207.817C199.078 207.817 198.581 207.428 198.511 206.861C198.475 206.507 193.298 171.983 185.39 161.43C180.78 155.269 173.121 154.596 165.709 153.923H165.567C159.255 153.357 152.624 153.109 145.284 153.18C144.681 153.18 144.149 152.684 144.149 152.082C144.149 151.445 144.645 150.949 145.248 150.949C152.66 150.914 159.362 151.161 165.745 151.728H165.886C173.404 152.401 181.95 153.144 187.163 160.12C195.39 171.097 200.496 205.126 200.709 206.578C200.816 207.18 200.39 207.747 199.752 207.853C199.716 207.817 199.645 207.817 199.61 207.817Z" fill="#2E3079"/>
<path d="M188.794 220.955C186.56 220.955 184.964 220.955 184.574 220.884C183.971 220.813 183.511 220.246 183.581 219.645C183.652 219.043 184.22 218.582 184.823 218.653C186.028 218.795 202.943 218.618 214.61 218.476C214.574 218.051 214.468 217.449 214.078 216.812C213.227 215.395 210.993 213.483 205.106 212.35C195.815 210.544 194.22 208.951 193.83 207.747C193.617 207.039 193.901 206.401 194.184 206.118C194.61 205.693 195.319 205.693 195.78 206.118C196.064 206.401 196.17 206.826 196.064 207.18C196.489 207.57 198.298 208.774 205.496 210.155C210.922 211.217 214.468 213.094 216.028 215.749C217.305 217.909 216.737 219.751 216.666 219.928C216.525 220.388 216.099 220.671 215.603 220.707C213.333 220.742 196.808 220.955 188.794 220.955ZM195.851 207.676C195.851 207.676 195.815 207.711 195.851 207.676C195.815 207.711 195.815 207.676 195.851 207.676Z" fill="#2E3079"/>
<path d="M179.362 216.918C178.866 216.918 178.405 216.599 178.263 216.104C177.128 212.067 180.462 207.428 180.603 207.216C180.958 206.72 181.667 206.614 182.164 206.968C182.66 207.322 182.767 208.03 182.412 208.526C182.412 208.561 181.667 209.588 181.064 210.969C180.532 212.208 180.001 213.979 180.426 215.466C180.603 216.068 180.249 216.67 179.646 216.847C179.575 216.918 179.469 216.918 179.362 216.918Z" fill="#2E3079"/>
<path d="M215.568 214.404C213.617 214.404 211.88 214.333 211.844 214.333C211.241 214.297 210.745 213.802 210.745 213.164C210.78 212.562 211.277 212.067 211.915 212.067C215 212.173 218.653 212.137 220.071 211.925C219.965 211.571 219.788 211.146 219.433 210.65C218.546 209.34 216.738 207.853 214.397 207.463C208.121 206.472 203.546 204.701 203.369 204.631C202.802 204.418 202.518 203.745 202.731 203.179C202.944 202.612 203.617 202.329 204.185 202.541C204.256 202.577 208.724 204.312 214.752 205.233C217.802 205.728 220.142 207.676 221.312 209.375C222.199 210.65 222.554 211.89 222.341 212.916C222.128 214.014 220.78 214.12 219.823 214.227C219.007 214.297 217.908 214.333 216.525 214.368C216.171 214.404 215.887 214.404 215.568 214.404Z" fill="#2E3079"/>
<path d="M177.801 209.517C177.234 209.517 176.737 209.092 176.702 208.526L176.56 207.357C175.425 197.584 173.51 181.225 165.106 176.019C159.823 172.762 150.993 173.045 143.936 173.293C142.589 173.328 141.347 173.364 140.142 173.399C134.326 173.47 128.581 173.753 122.979 174.213C122.376 174.249 121.808 173.789 121.773 173.187C121.737 172.585 122.198 172.018 122.801 171.983C128.44 171.522 134.291 171.239 140.142 171.168C141.276 171.168 142.553 171.097 143.865 171.062C151.241 170.814 160.461 170.495 166.312 174.143C175.638 179.914 177.624 196.947 178.794 207.145L178.936 208.313C179.007 208.915 178.581 209.482 177.943 209.553C177.872 209.517 177.837 209.517 177.801 209.517Z" fill="#2E3079"/>
<path d="M177.801 209.517C177.234 209.517 176.773 209.092 176.702 208.526C176.631 207.924 177.057 207.357 177.66 207.251C177.766 207.251 187.553 205.941 199.574 205.551C200.177 205.516 200.709 206.012 200.745 206.649C200.78 207.251 200.284 207.782 199.645 207.818C187.73 208.207 178.05 209.482 177.943 209.482C177.872 209.517 177.837 209.517 177.801 209.517Z" fill="#2E3079"/>
<path d="M199.787 204.843C199.256 204.843 198.759 204.454 198.688 203.887C198.582 203.285 199.007 202.718 199.646 202.612C199.752 202.612 202.412 202.223 207.908 202.01C208.511 201.975 209.043 202.471 209.078 203.108C209.114 203.71 208.617 204.241 207.979 204.277C202.624 204.454 200 204.843 199.965 204.843C199.894 204.843 199.858 204.843 199.787 204.843Z" fill="#2E3079"/>
<path d="M83.6883 249.531C76.6315 249.531 69.6457 248.008 63.05 244.927C51.206 239.403 42.2344 229.63 37.7663 217.378C33.2982 205.126 33.8656 191.883 39.3975 180.056C44.9294 168.229 54.7167 159.27 66.9862 154.809C68.972 154.065 71.0287 153.463 73.1209 153.038C73.7238 152.897 74.3266 153.286 74.4684 153.888C74.6103 154.49 74.2202 155.092 73.6174 155.234C71.667 155.658 69.6812 156.26 67.7663 156.933C56.0642 161.182 46.7025 169.752 41.4543 181.012C36.206 192.272 35.6387 204.949 39.894 216.635C44.1493 228.32 52.7309 237.668 64.0074 242.909C70.284 245.812 76.9862 247.3 83.6883 247.3C89.0784 247.3 94.4684 246.344 99.6812 244.467C111.383 240.218 120.745 231.648 125.993 220.388C131.241 209.128 131.809 196.451 127.554 184.766C121.986 169.468 108.653 158.102 92.7663 155.127C92.1635 155.021 91.7379 154.419 91.8798 153.817C91.9862 153.215 92.589 152.79 93.1918 152.932C109.858 156.048 123.83 167.981 129.681 183.987C134.149 196.238 133.582 209.482 128.05 221.309C122.518 233.136 112.731 242.094 100.461 246.556C95.0003 248.539 89.3266 249.531 83.6883 249.531Z" fill="#2E3079"/>
<path d="M83.8651 234.092C72.6239 234.092 61.702 228.426 55.4608 218.582C50.6736 211.04 49.1488 202.116 51.0991 193.406C53.0495 184.695 58.2977 177.259 65.8154 172.514C67.8722 171.204 70.0353 170.141 72.3048 169.327C74.9644 168.371 77.7303 167.733 80.5672 167.485C81.17 167.415 81.7374 167.875 81.7729 168.512C81.8438 169.114 81.3828 169.681 80.7445 169.716C78.1204 169.964 75.5317 170.531 73.0495 171.451C70.9573 172.23 68.9005 173.222 66.9857 174.426C59.9644 178.887 55.0708 185.792 53.2623 193.937C51.4183 202.081 52.8722 210.402 57.3403 217.414C65.1417 229.701 80.6736 235.012 94.3261 230.055C96.4183 229.276 98.475 228.284 100.39 227.081C114.929 217.874 119.255 198.611 110.071 184.093C105.709 177.223 98.9005 172.372 90.8509 170.495C90.2481 170.354 89.858 169.752 90.0353 169.15C90.1771 168.548 90.78 168.158 91.3828 168.335C99.9998 170.389 107.305 175.559 111.95 182.924C121.808 198.469 117.163 219.149 101.596 229.028C99.5388 230.338 97.3757 231.401 95.1062 232.215C91.4537 233.454 87.6239 234.092 83.8651 234.092Z" fill="#2E3079"/>
<path d="M88.4399 198.965C89.3973 201.585 88.0498 204.454 85.4257 205.41C82.8016 206.366 79.9292 205.02 78.9718 202.4C78.0143 199.779 79.3618 196.911 81.986 195.955C84.6101 195.035 87.5179 196.38 88.4399 198.965Z" fill="#2E3079"/>
<path d="M91.3121 209.057L84.0426 198.328C83.7589 197.903 83.227 197.726 82.7306 197.903C82.2341 198.08 81.9504 198.576 81.9859 199.071L83.3334 211.961C83.3689 212.315 83.5462 212.598 83.8653 212.81C84.0426 212.917 84.2554 212.987 84.4682 212.987C84.61 212.987 84.7164 212.952 84.8582 212.917L90.8157 210.757C91.1348 210.65 91.383 210.367 91.4894 210.048C91.5249 209.694 91.4894 209.34 91.3121 209.057Z" fill="#2E3079"/>
<path d="M173.227 250.062C163.262 250.062 155.177 241.988 155.177 232.038C155.177 222.088 163.262 214.014 173.227 214.014C183.191 214.014 191.277 222.088 191.277 232.038C191.277 241.953 183.191 250.062 173.227 250.062ZM173.227 216.245C164.503 216.245 157.411 223.327 157.411 232.038C157.411 240.749 164.503 247.831 173.227 247.831C181.95 247.831 189.042 240.749 189.042 232.038C189.042 223.327 181.95 216.245 173.227 216.245Z" fill="#2E3079"/>
<path d="M177.979 231.719C177.979 234.481 175.709 236.748 172.943 236.748C170.177 236.748 167.908 234.481 167.908 231.719C167.908 228.957 170.177 226.691 172.943 226.691C175.709 226.691 177.979 228.957 177.979 231.719Z" fill="#2E3079"/>
<path d="M120.709 171.416C120.213 171.416 119.787 171.097 119.645 170.637C118.936 168.335 118.121 165.715 117.305 162.953C115.071 155.623 112.589 147.337 110.816 142.734C104.823 126.941 98.0143 115.185 84.1845 109.165C76.7022 105.908 67.9434 104.527 59.61 105.27C50.532 106.085 42.7661 109.307 37.0923 114.583C31.3831 119.93 27.4469 127.189 25.7803 135.546C24.22 143.371 24.7519 151.905 27.2342 159.625C27.4115 160.227 27.0923 160.864 26.5249 161.041C25.9221 161.218 25.2838 160.899 25.1065 160.333C22.4824 152.295 21.9505 143.336 23.5817 135.121C25.3547 126.304 29.4682 118.62 35.5675 112.954C41.5959 107.324 49.8228 103.889 59.3973 103.039C68.1207 102.26 77.2341 103.712 85.071 107.111C92.1632 110.192 97.9433 114.937 102.731 121.594C107.376 128.074 110.497 135.51 112.908 141.955C114.681 146.629 117.199 154.95 119.433 162.316C120.284 165.078 121.064 167.663 121.773 169.964C121.95 170.566 121.631 171.168 121.028 171.381C120.922 171.381 120.816 171.416 120.709 171.416Z" fill="#2E3079"/>
<path d="M34.9996 160.12C34.5031 160.12 34.0776 159.802 33.9358 159.306C31.9145 152.613 31.489 145.177 32.7301 138.378C34.0776 130.978 37.34 124.533 42.1627 119.753C46.9145 115.043 53.4038 112.21 60.957 111.538C67.8719 110.936 75.0705 112.21 81.2053 115.149C93.5102 121.098 98.5102 132.925 102.553 144.54C103.971 148.577 105.319 152.861 106.595 157.287C106.773 157.889 106.418 158.491 105.815 158.668C105.212 158.845 104.609 158.491 104.432 157.889C103.156 153.534 101.808 149.285 100.425 145.283C96.5244 134.129 91.7372 122.727 80.2123 117.168C74.4322 114.37 67.6592 113.167 61.1343 113.768C54.1131 114.406 48.0847 117.026 43.723 121.346C39.2549 125.808 36.2053 131.828 34.9287 138.768C33.7585 145.213 34.1485 152.259 36.0989 158.633C36.2762 159.235 35.957 159.837 35.3542 160.049C35.2124 160.12 35.106 160.12 34.9996 160.12Z" fill="#2E3079"/>
<path d="M73.9005 155.163C73.5813 155.163 73.2622 155.021 73.014 154.738C72.6239 154.242 72.6948 153.534 73.1913 153.144C77.4466 149.71 85.8509 146.664 86.2055 146.523C86.7728 146.31 87.4466 146.629 87.6594 147.195C87.8721 147.762 87.553 148.435 86.9856 148.647C86.9147 148.683 78.5813 151.693 74.6097 154.915C74.3969 155.092 74.1487 155.163 73.9005 155.163Z" fill="#2E3079"/>
<path d="M26.2061 162.032C25.6387 162.032 25.1777 161.607 25.1068 161.041C25.0359 160.439 25.4614 159.872 26.0997 159.801L34.9295 158.704C35.5324 158.633 36.0997 159.058 36.1707 159.695C36.2416 160.297 35.816 160.864 35.1777 160.935L26.348 162.032C26.3125 162.032 26.2416 162.032 26.2061 162.032Z" fill="#2E3079"/>
<path d="M101.241 157.535C100.816 157.535 100.39 157.287 100.213 156.862L82.766 118.053C82.5178 117.486 82.766 116.814 83.3334 116.566C83.9007 116.318 84.5745 116.566 84.8227 117.132L102.27 155.942C102.518 156.508 102.27 157.181 101.702 157.429C101.56 157.5 101.418 157.535 101.241 157.535Z" fill="#2E3079"/>
<path d="M175.603 215.537C175.071 215.537 174.61 215.147 174.504 214.616C174.504 214.545 173.156 207.286 170.958 199.39C168.086 189.121 165.142 182.499 162.412 180.233C161.135 179.171 156.667 177.329 141.419 177.223C132.589 177.152 124.433 177.719 124.327 177.719C123.724 177.754 123.157 177.294 123.121 176.692C123.086 176.09 123.547 175.524 124.149 175.488C124.22 175.488 132.518 174.922 141.419 174.992C153.759 175.099 161.064 176.232 163.83 178.533C171.206 184.659 176.49 213.023 176.703 214.227C176.809 214.829 176.419 215.431 175.816 215.537C175.745 215.537 175.674 215.537 175.603 215.537Z" fill="#2E3079"/>
<path d="M210.887 224.071H187.695C187.057 224.071 186.561 223.575 186.561 222.938C186.561 222.3 187.057 221.805 187.695 221.805H210.887C211.525 221.805 212.022 222.3 212.022 222.938C212.022 223.575 211.525 224.071 210.887 224.071Z" fill="#2E3079"/>
<path d="M33.2624 240.891H1.13475C0.496454 240.891 0 240.395 0 239.758C0 239.12 0.496454 238.625 1.13475 238.625H33.2624C33.9007 238.625 34.3971 239.12 34.3971 239.758C34.3617 240.36 33.8652 240.891 33.2624 240.891Z" fill="#2E3079"/>
<path d="M28.4753 231.365H5.8867C5.24841 231.365 4.75195 230.87 4.75195 230.232C4.75195 229.595 5.24841 229.099 5.8867 229.099H28.4753C29.1136 229.099 29.6101 229.595 29.6101 230.232C29.6101 230.87 29.1136 231.365 28.4753 231.365Z" fill="#2E3079"/>
<path d="M338.865 265.394H320.532C319.894 265.394 319.397 264.899 319.397 264.261C319.397 263.624 319.894 263.128 320.532 263.128H338.865C339.504 263.128 340 263.624 340 264.261C340 264.863 339.504 265.394 338.865 265.394Z" fill="#2E3079"/>
</svg>
