<svg width="25" height="25" viewBox="0 0 25 25" fill="none" xmlns="http://www.w3.org/2000/svg">
<path d="M12.1001 6.29759C8.84514 6.29759 6.15625 8.98648 6.15625 12.2415C6.15625 15.4964 8.84514 18.1853 12.1001 18.1853C15.3551 18.1853 18.044 15.4964 18.044 12.2415C18.1147 8.91572 15.4258 6.29759 12.1001 6.29759ZM12.1001 16.0625C9.9773 16.0625 8.27906 14.3643 8.27906 12.2415C8.27906 10.1186 9.9773 8.4204 12.1001 8.4204C14.2229 8.4204 15.9212 10.1186 15.9212 12.2415C15.9212 14.3643 14.2229 16.0625 12.1001 16.0625Z" fill="white"/>
<path d="M19.8831 5.87296C19.8831 6.65132 19.2463 7.28817 18.4679 7.28817C17.6896 7.28817 17.0527 6.65132 17.0527 5.87296C17.0527 5.0946 17.6896 4.45776 18.4679 4.45776C19.1755 4.45776 19.8831 5.0946 19.8831 5.87296Z" fill="white"/>
<path d="M16.9117 0H7.2883C3.25497 0 0 3.25497 0 7.2883V16.9117C0 20.945 3.25497 24.2 7.2883 24.2H16.9117C20.945 24.2 24.2 20.945 24.2 16.9117V7.2883C24.1292 3.25497 20.8743 0 16.9117 0ZM21.8649 16.9117C21.8649 19.6713 19.6006 21.9357 16.8409 21.9357H7.2883C4.52866 21.9357 2.26433 19.6713 2.26433 16.9117V7.2883C2.26433 4.52866 4.52866 2.26433 7.2883 2.26433H16.9117C19.6713 2.26433 21.9357 4.52866 21.9357 7.2883V16.9117H21.8649Z" fill="white"/>
<path d="M12.1001 6.29759C8.84514 6.29759 6.15625 8.98648 6.15625 12.2415C6.15625 15.4964 8.84514 18.1853 12.1001 18.1853C15.3551 18.1853 18.044 15.4964 18.044 12.2415C18.1147 8.91572 15.4258 6.29759 12.1001 6.29759ZM12.1001 16.0625C9.9773 16.0625 8.27906 14.3643 8.27906 12.2415C8.27906 10.1186 9.9773 8.4204 12.1001 8.4204C14.2229 8.4204 15.9212 10.1186 15.9212 12.2415C15.9212 14.3643 14.2229 16.0625 12.1001 16.0625Z" fill="white"/>
<path d="M19.8831 5.87296C19.8831 6.65132 19.2463 7.28817 18.4679 7.28817C17.6896 7.28817 17.0527 6.65132 17.0527 5.87296C17.0527 5.0946 17.6896 4.45776 18.4679 4.45776C19.1755 4.45776 19.8831 5.0946 19.8831 5.87296Z" fill="white"/>
</svg>
