<svg width="250" height="88" viewBox="0 0 250 88" fill="none" xmlns="http://www.w3.org/2000/svg">
<path d="M75.7136 12.8689H69.8043H62.5105H40.6704C37.1218 12.8689 33.951 15.1164 32.7371 18.4934L19.1598 56.2652C17.9415 59.6323 14.7779 61.8725 11.2346 61.8725H17.1439H23.3846H46.2769C49.8255 61.8725 52.9963 59.6251 54.2093 56.248L67.7874 18.4744C69.0075 15.1082 72.1712 12.8689 75.7136 12.8689Z" fill="#CDA673"/>
<path d="M30.2584 17.5799C31.8456 13.1646 36.0293 10.1981 40.6693 10.1981H44.167L46.1874 4.57812C47.1833 1.82872 49.7664 0 52.6594 0H47.8327H41.8751H24.04C21.1417 0 18.5523 1.83595 17.5609 4.5935L6.4729 35.4411C5.4779 38.1914 2.89302 40.021 0 40.021H4.82587H9.92327H22.192L30.2584 17.5799Z" fill="#E0CDAF"/>
<path d="M90.8568 22.2041H89.4687V14.3149H84.7108V22.2041H83.3228V13.0596H90.8577V22.2041H90.8568Z" fill="#58595B"/>
<path d="M98.3101 13.2775C98.7281 13.4412 99.0916 13.6465 99.3882 13.9332C99.6981 14.2064 99.9268 14.5338 100.103 14.9299C100.278 15.3251 100.358 15.7484 100.358 16.2259C100.358 16.7315 100.264 17.1819 100.088 17.5635C99.9 17.9723 99.6436 18.3006 99.3203 18.5738C98.997 18.8605 98.6191 19.0649 98.1743 19.215C97.7429 19.3651 97.2847 19.4339 96.7863 19.4339H94.481V22.2041H93.093V13.0596H96.9346C97.4339 13.0596 97.8921 13.141 98.3101 13.2775ZM96.7595 18.2328C97.4473 18.2328 97.9868 18.0555 98.3905 17.701C98.7808 17.3591 98.9836 16.868 98.9836 16.2404C98.9836 15.6263 98.7942 15.1352 98.4307 14.7798C98.0663 14.4388 97.5411 14.2615 96.8533 14.2615H94.481V18.2337H96.7595V18.2328Z" fill="#58595B"/>
<path d="M103.539 20.1293L108.728 13.0596H109.969V22.2041H108.621V15.3116L103.553 22.2041H102.192V13.0596H103.54V20.1293H103.539Z" fill="#58595B"/>
<path d="M123.783 22.2041H122.395V14.3149H117.636V22.2041H116.248V13.0596H123.783V22.2041Z" fill="#58595B"/>
<path d="M132.299 13.2233C132.879 13.4693 133.377 13.8102 133.796 14.2335C134.214 14.6568 134.523 15.1614 134.765 15.7484C134.982 16.3354 135.103 16.963 135.103 17.6323C135.103 18.2871 134.982 18.9021 134.765 19.4746C134.523 20.0615 134.199 20.5662 133.796 21.003C133.364 21.4263 132.878 21.7672 132.285 22.0123C131.719 22.2719 131.072 22.3949 130.358 22.3949C129.643 22.3949 128.996 22.2719 128.43 22.0259C127.837 21.7799 127.351 21.4389 126.921 21.0021C126.516 20.5788 126.193 20.0742 125.95 19.5008C125.735 18.9138 125.613 18.2997 125.613 17.6305C125.613 16.9612 125.735 16.3471 125.963 15.7602C126.192 15.1868 126.515 14.6821 126.947 14.2588C127.351 13.8356 127.864 13.4946 128.43 13.2486C129.023 12.989 129.657 12.8669 130.358 12.8669C131.073 12.8688 131.72 12.9908 132.299 13.2233ZM128.944 14.3565C128.512 14.5338 128.162 14.7933 127.879 15.1072C127.596 15.421 127.366 15.8036 127.218 16.2259C127.07 16.6628 126.989 17.1276 126.989 17.6323C126.989 18.1369 127.07 18.6018 127.218 19.0377C127.38 19.461 127.609 19.8427 127.892 20.1574C128.175 20.4712 128.538 20.7308 128.943 20.9081C129.374 21.0853 129.832 21.1812 130.358 21.1812C130.884 21.1812 131.369 21.0853 131.773 20.9216C132.205 20.7299 132.555 20.4848 132.851 20.171C133.135 19.8571 133.364 19.4746 133.512 19.0377C133.661 18.6145 133.741 18.1369 133.741 17.6323C133.741 17.1131 133.661 16.6356 133.499 16.1988C133.351 15.7755 133.121 15.4074 132.838 15.08C132.555 14.7789 132.191 14.5338 131.773 14.3429C131.355 14.1783 130.884 14.0843 130.358 14.0843C129.833 14.0834 129.347 14.1783 128.944 14.3565Z" fill="#58595B"/>
<path d="M144.996 20.9894H146.317V21.6035L146.182 24.1829H145.037L144.942 22.2041H137.717L137.596 24.1829H136.436L136.342 21.6171V21.003H136.706C136.922 21.003 137.151 20.8936 137.394 20.6756C137.636 20.4712 137.839 20.1429 137.987 19.7196C138.109 19.3787 138.202 18.9826 138.297 18.5457C138.392 18.1089 138.459 17.6449 138.527 17.1538C138.58 16.6618 138.62 16.1572 138.648 15.6245C138.675 15.1062 138.688 14.5736 138.688 14.0418V13.0596H144.997V20.9894H144.996ZM139.685 18.4508C139.482 19.6247 139.172 20.4703 138.782 20.9885H143.635V14.2606H140.022C140.008 15.8849 139.9 17.2768 139.685 18.4508Z" fill="#58595B"/>
<path d="M156.262 20.9894H157.583V21.6035L157.449 24.1829H156.304L156.209 22.2041H148.984L148.862 24.1829H147.703L147.608 21.6171V21.003H147.973C148.189 21.003 148.418 20.8936 148.661 20.6756C148.903 20.4712 149.105 20.1429 149.254 19.7196C149.375 19.3787 149.469 18.9826 149.564 18.5457C149.658 18.1089 149.725 17.6449 149.793 17.1538C149.847 16.6618 149.887 16.1572 149.915 15.6245C149.941 15.1062 149.955 14.5736 149.955 14.0418V13.0596H156.263V20.9894H156.262ZM150.952 18.4508C150.75 19.6247 150.44 20.4703 150.049 20.9885H154.902V14.2606H151.289C151.276 15.8849 151.168 17.2768 150.952 18.4508Z" fill="#58595B"/>
<path d="M165.846 14.2742H160.696V16.8545H165.226V18.0555H160.696V20.9759H166.089V22.2041H159.349V13.0596H165.846V14.2742Z" fill="#58595B"/>
<path d="M173.204 13.2775C173.622 13.4412 173.986 13.6465 174.283 13.9332C174.592 14.2064 174.822 14.5338 174.997 14.9299C175.172 15.3251 175.253 15.7484 175.253 16.2259C175.253 16.7315 175.159 17.1819 174.983 17.5635C174.794 17.9723 174.538 18.3006 174.215 18.5738C173.891 18.8605 173.514 19.0649 173.07 19.215C172.638 19.3651 172.18 19.4339 171.681 19.4339H169.376V22.2041H167.988V13.0596H171.829C172.327 13.0596 172.786 13.141 173.204 13.2775ZM171.653 18.2328C172.341 18.2328 172.879 18.0555 173.285 17.701C173.675 17.3591 173.878 16.868 173.878 16.2404C173.878 15.6263 173.689 15.1352 173.325 14.7798C172.961 14.4388 172.435 14.2615 171.748 14.2615H169.375V18.2337H171.653V18.2328Z" fill="#58595B"/>
<path d="M180.333 16.6899L181.789 16.7713V13.0596H183.11V16.7713L184.567 16.6899L186.993 13.0596H188.61L185.658 17.2361L189.028 22.2041H187.424L184.634 17.9181H183.11V22.2041H181.789V17.9181H180.266L177.489 22.2041H175.872L179.242 17.2361L176.29 13.0596H177.907L180.333 16.6899Z" fill="#58595B"/>
<path d="M191.802 16.8129L193.204 16.7034L196.142 13.0596H197.841L194.324 17.2904L198.179 22.2041H196.426L193.231 17.9452H191.802V22.2041H190.455V13.0596H191.802V16.8129H191.802Z" fill="#58595B"/>
<path d="M206.291 14.2742H201.141V16.8545H205.671V18.0555H201.141V20.9759H206.534V22.2041H199.794V13.0596H206.291V14.2742Z" fill="#58595B"/>
<path d="M91.3549 33.2505H92.4151C93.1341 33.2505 93.7986 33.3418 94.3917 33.5598C95.0026 33.7416 95.5233 34.0509 95.9726 34.4335C96.404 34.8341 96.7452 35.3252 96.9792 35.8886C97.2133 36.453 97.3383 37.1078 97.3383 37.8358C97.3383 38.582 97.2124 39.2368 96.9426 39.8192C96.6729 40.3836 96.3317 40.8738 95.8645 41.2744C95.4331 41.6742 94.8945 41.9844 94.3015 42.1842C93.7084 42.385 93.0796 42.4936 92.4151 42.4936H91.3549V44.0763H88.678V42.4936H87.6178C86.8988 42.4936 86.2342 42.4022 85.6233 42.1842C85.0302 42.0025 84.5095 41.6932 84.0781 41.3115C83.6467 40.9108 83.3055 40.4197 83.0715 39.8554C82.8383 39.291 82.7124 38.6362 82.7124 37.9091C82.7124 37.163 82.8383 36.5073 83.1081 35.9257C83.3769 35.3614 83.719 34.8703 84.1862 34.4705C84.6176 34.0699 85.1571 33.7606 85.7314 33.5607C86.3423 33.3608 86.9532 33.2514 87.6178 33.2514H88.678V31.6316H91.3549V33.2505ZM87.7071 35.5965C86.9523 35.5965 86.3771 35.7964 85.9824 36.2151C85.5867 36.6339 85.3893 37.1801 85.3893 37.8892C85.3893 38.5983 85.5867 39.1635 86.0181 39.5452C86.4129 39.9268 86.9881 40.1267 87.7071 40.1267H88.6771V35.5965H87.7071ZM92.3248 40.1457C93.0796 40.1457 93.6548 39.9449 94.0496 39.5262C94.4453 39.1074 94.6427 38.5621 94.6427 37.8521C94.6427 37.1431 94.4274 36.5787 94.0317 36.1971C93.6003 35.8154 93.0439 35.6146 92.3248 35.6146H91.3549V40.1457H92.3248Z" fill="#414042"/>
<path d="M108.156 32.1039C108.947 32.4313 109.63 32.8862 110.169 33.4505C110.744 34.0149 111.174 34.6878 111.481 35.452C111.786 36.2343 111.948 37.0718 111.948 37.9807C111.948 38.8544 111.786 39.6729 111.481 40.4371C111.175 41.2194 110.726 41.8923 110.169 42.4747C109.611 43.0382 108.929 43.4931 108.156 43.8214C107.366 44.1669 106.503 44.3306 105.551 44.3306C104.617 44.3306 103.754 44.1669 102.981 43.8576C102.209 43.5302 101.526 43.0762 100.969 42.5109C100.394 41.9475 99.9445 41.2737 99.639 40.4914C99.3335 39.709 99.1719 38.8716 99.1719 37.9807C99.1719 37.1071 99.3335 36.2886 99.639 35.5063C99.9445 34.7239 100.394 34.0511 100.969 33.4867C101.526 32.9224 102.209 32.4674 102.981 32.14C103.754 31.7937 104.617 31.6309 105.551 31.6309C106.503 31.6309 107.366 31.7946 108.156 32.1039ZM103.988 34.3785C103.539 34.5783 103.143 34.8696 102.838 35.215C102.515 35.5605 102.263 35.9793 102.102 36.4523C101.94 36.9253 101.85 37.4345 101.85 37.9807C101.85 38.527 101.94 39.0362 102.102 39.5273C102.263 40.0012 102.515 40.419 102.838 40.7645C103.162 41.11 103.557 41.3831 104.007 41.6011C104.456 41.7829 104.977 41.8923 105.552 41.8923C106.145 41.8923 106.666 41.7838 107.115 41.583C107.582 41.3831 107.977 41.0919 108.301 40.7283C108.607 40.3828 108.841 39.9641 109.02 39.4911C109.164 39.0172 109.253 38.508 109.253 37.9807C109.253 37.4164 109.163 36.9072 109.001 36.4342C108.84 35.9431 108.588 35.5243 108.264 35.1789C107.959 34.8334 107.563 34.5602 107.114 34.3595C106.647 34.1596 106.125 34.0682 105.551 34.0682C104.976 34.0682 104.455 34.1777 103.988 34.3785Z" fill="#414042"/>
<path d="M116.926 36.6531H122.191V31.8859H124.905V44.0765H122.191V39.1818H116.926V44.0765H114.212V31.885H116.926V36.6531Z" fill="#414042"/>
<path d="M138.993 41.6191H140.735V42.3652L140.502 46.6232H138.077L137.969 44.0755H129.829L129.686 46.6232H127.242L127.098 42.3833V41.6372H127.601C127.852 41.6372 128.104 41.5458 128.356 41.3641C128.608 41.1823 128.823 40.8911 128.985 40.5085C129.308 39.7813 129.542 38.8344 129.686 37.6885C129.83 36.5417 129.902 35.2683 129.902 33.8674V31.884H138.994V41.6191H138.993ZM132.236 38.7449C132.037 39.964 131.751 40.9272 131.41 41.6191H136.297V34.3232H132.56C132.541 36.0525 132.433 37.5257 132.236 38.7449Z" fill="#414042"/>
<path d="M155.093 44.0753H152.11L151.194 41.6551H146.037L145.138 44.0753H142.209L147.15 31.8667H150.115L155.093 44.0753ZM150.313 39.2539L148.713 34.6143H148.534L146.916 39.2539H150.313Z" fill="#414042"/>
<path d="M93.8522 65.9108H91.1387V56.2499H86.035V65.9108H83.3215V53.7202H93.8513V65.9108H93.8522Z" fill="#414042"/>
<path d="M103.988 54.0476C104.581 54.2484 105.084 54.5568 105.515 54.9213C105.929 55.3219 106.252 55.7759 106.486 56.3041C106.719 56.8495 106.827 57.45 106.827 58.1238C106.827 58.8328 106.702 59.4515 106.451 60.0158C106.181 60.5621 105.84 61.0351 105.372 61.3987C104.941 61.7993 104.402 62.0905 103.792 62.2723C103.181 62.4912 102.516 62.5816 101.815 62.5816H99.3712V65.9108H96.6755V53.7202H102.03C102.747 53.7202 103.394 53.8296 103.988 54.0476ZM101.813 60.1614C102.532 60.1614 103.089 59.9796 103.502 59.6152C103.916 59.2507 104.113 58.7596 104.113 58.141C104.113 57.5404 103.934 57.0493 103.574 56.7039C103.198 56.3403 102.658 56.1585 101.921 56.1585H99.3694V60.1614H101.813Z" fill="#414042"/>
<path d="M118.094 56.1766H111.752V58.4693H117.412V60.8524H111.752V63.4544H118.4V65.9108H109.093V53.7202H118.095V56.1766H118.094Z" fill="#414042"/>
<path d="M126.737 58.1599C126.971 57.9591 127.097 57.6679 127.097 57.3043C127.097 56.8494 126.935 56.4858 126.629 56.2669C126.306 56.0128 125.785 55.9034 125.066 55.9034C123.935 55.9034 122.892 56.285 121.904 57.0502L120.502 55.1762C121.167 54.5938 121.886 54.157 122.677 53.8838C123.432 53.6107 124.294 53.4651 125.228 53.4651C125.947 53.4651 126.594 53.5564 127.151 53.7192C127.708 53.8829 128.193 54.1199 128.589 54.4292C128.984 54.7385 129.289 55.1021 129.505 55.5027C129.703 55.9396 129.81 56.3945 129.81 56.9037C129.81 57.4309 129.703 57.9039 129.505 58.3046C129.289 58.7414 128.966 59.0688 128.552 59.3049V59.4686C129.127 59.6684 129.576 59.9958 129.9 60.4507C130.224 60.9238 130.386 61.5053 130.386 62.1791C130.386 62.7425 130.278 63.2707 130.044 63.7618C129.828 64.2529 129.505 64.6716 129.074 65.0171C128.625 65.3626 128.086 65.6538 127.421 65.8537C126.774 66.0536 126.019 66.163 125.14 66.163C124.618 66.163 124.115 66.1268 123.648 66.0545C123.181 66.0002 122.732 65.8908 122.318 65.7452C121.904 65.5996 121.491 65.4178 121.114 65.1817C120.736 64.9638 120.359 64.6906 119.981 64.3632L121.401 62.3618C122.03 62.8529 122.64 63.2164 123.251 63.4163C123.88 63.6171 124.563 63.7256 125.317 63.7256C126.109 63.7256 126.702 63.58 127.097 63.2888C127.473 62.9795 127.672 62.5969 127.672 62.1058C127.672 61.2512 127.132 60.8324 126.036 60.8324H123V58.4665H125.749C126.162 58.4692 126.503 58.3598 126.737 58.1599Z" fill="#414042"/>
<path d="M135.237 61.8355L141.06 53.7211H143.431V65.9117H140.754V58.2522L135.22 65.9117H132.578V53.7202H135.238V61.8355H135.237Z" fill="#414042"/>
<path d="M157.52 63.4543H159.263V64.2004L159.03 68.4584H156.605L156.497 65.9107H148.357L148.213 68.4584H145.768L145.624 64.2185V63.4724H146.127C146.378 63.4724 146.63 63.381 146.881 63.1993C147.133 63.0175 147.349 62.7263 147.51 62.3437C147.834 61.6165 148.068 60.6705 148.211 59.5237C148.355 58.377 148.427 57.1035 148.427 55.7026V53.7192H157.52V63.4543ZM150.763 60.5801C150.565 61.7992 150.277 62.7624 149.937 63.4543H154.824V56.1584H151.087C151.069 57.8877 150.961 59.3609 150.763 60.5801Z" fill="#414042"/>
<path d="M170.457 56.1766H164.114V58.4693H169.775V60.8524H164.114V63.4544H170.762V65.9108H161.455V53.7202H170.456V56.1766H170.457Z" fill="#414042"/>
<path d="M175.849 58.4883H181.114V53.7211H183.827V65.9117H181.114V61.017H175.849V65.9117H173.136V53.7202H175.849V58.4883Z" fill="#414042"/>
<path d="M196.91 56.1947H192.795V65.9108H190.118V56.1947H186.003V53.7202H196.91V56.1947Z" fill="#414042"/>
<path d="M206.343 56.2677C205.804 56.0488 205.193 55.9584 204.528 55.9584C203.935 55.9584 203.415 56.0497 202.93 56.2315C202.462 56.4314 202.067 56.6864 201.725 57.0319C201.383 57.3964 201.132 57.7961 200.953 58.2691C200.773 58.7421 200.683 59.2513 200.683 59.8157C200.683 60.3981 200.773 60.9254 200.953 61.3984C201.15 61.8714 201.401 62.2721 201.743 62.5995C202.085 62.9449 202.48 63.2 202.947 63.3999C203.415 63.5816 203.935 63.673 204.493 63.673C205.175 63.673 205.804 63.5455 206.415 63.3275C206.99 63.0725 207.529 62.7451 207.997 62.2901L209.524 64.2003C208.158 65.5098 206.434 66.1655 204.349 66.1655C203.415 66.1655 202.552 66.0199 201.78 65.7287C201.007 65.4194 200.342 65.0007 199.768 64.4553C199.228 63.891 198.779 63.2362 198.474 62.4538C198.169 61.6715 198.006 60.816 198.006 59.8519C198.006 58.9782 198.151 58.1597 198.474 57.3774C198.762 56.5951 199.211 55.9222 199.786 55.3398C200.361 54.7582 201.061 54.3033 201.869 53.975C202.679 53.6286 203.612 53.4658 204.637 53.4658C205.572 53.4658 206.434 53.6114 207.206 53.9026C207.979 54.1758 208.68 54.5945 209.291 55.1399L207.799 57.1223C207.386 56.7407 206.901 56.4495 206.343 56.2677Z" fill="#414042"/>
<path d="M214.376 58.3598L215.687 58.2142L219.083 53.7202H222.407L217.933 59.4153L222.839 65.9108H219.37L215.705 60.7068H214.375V65.9108H211.715V53.7202H214.375V58.3598H214.376Z" fill="#414042"/>
<path d="M227.421 61.8355L233.244 53.7211H235.616V65.9117H232.939V58.2522L227.404 65.9117H224.762V53.7202H227.422V61.8355H227.421Z" fill="#414042"/>
<path d="M243.649 58.0695H243.828L246.219 53.7202H249.543L245.698 59.7246L249.92 65.9108H246.435L243.739 61.216H243.56L240.9 65.9108H237.432L241.655 59.579L237.809 53.7202H241.169L243.649 58.0695Z" fill="#414042"/>
<path d="M92.4327 78.0287H86.0179V87.7456H83.3223V75.5542H92.4327V78.0287Z" fill="#414042"/>
<path d="M101.813 75.8825C102.406 76.0833 102.909 76.3917 103.34 76.7562C103.754 77.1568 104.077 77.6108 104.31 78.139C104.544 78.6844 104.652 79.2849 104.652 79.9587C104.652 80.6686 104.526 81.2863 104.275 81.8507C104.005 82.397 103.664 82.87 103.197 83.2335C102.765 83.6342 102.227 83.9254 101.615 84.1072C101.004 84.3261 100.339 84.4165 99.6382 84.4165H97.1944V87.7456H94.4988V75.5542H99.8534C100.573 75.5542 101.22 75.6645 101.813 75.8825ZM99.6391 81.9963C100.358 81.9963 100.915 81.8145 101.328 81.45C101.742 81.0865 101.939 80.5945 101.939 79.9759C101.939 79.3753 101.759 78.8842 101.4 78.5387C101.023 78.1752 100.484 77.9934 99.7471 77.9934H97.1953V81.9963H99.6391Z" fill="#414042"/>
<path d="M118.363 87.746H115.38L114.463 85.3258H109.306L108.408 87.746H105.479L110.42 75.5374H113.384L118.363 87.746ZM113.584 82.9237L111.984 78.284H111.804L110.187 82.9237H113.584Z" fill="#414042"/>
<path d="M123.162 80.3222H128.426V75.5542H131.14V87.7456H128.426V82.851H123.162V87.7456H120.448V75.5542H123.162V80.3222Z" fill="#414042"/>
<path d="M144.222 78.0287H140.107V87.7456H137.429V78.0287H133.314V75.5542H144.221V78.0287H144.222Z" fill="#414042"/>
<path d="M154.303 75.7733C155.093 76.1007 155.777 76.5556 156.315 77.12C156.89 77.6843 157.322 78.3572 157.627 79.1214C157.933 79.9037 158.094 80.7412 158.094 81.6502C158.094 82.5238 157.932 83.3423 157.627 84.1065C157.322 84.8888 156.873 85.5617 156.315 86.1442C155.758 86.7085 155.075 87.1634 154.303 87.4908C153.512 87.8363 152.65 88 151.697 88C150.762 88 149.9 87.8363 149.128 87.527C148.355 87.1996 147.672 86.7447 147.115 86.1803C146.541 85.616 146.091 84.9431 145.785 84.1608C145.48 83.3785 145.318 82.541 145.318 81.6502C145.318 80.7765 145.48 79.958 145.785 79.1757C146.091 78.3934 146.54 77.7205 147.115 77.1561C147.673 76.5918 148.355 76.1369 149.128 75.8095C149.9 75.4631 150.762 75.3003 151.697 75.3003C152.65 75.3003 153.512 75.464 154.303 75.7733ZM150.134 78.0479C149.685 78.2478 149.289 78.539 148.984 78.8845C148.661 79.23 148.409 79.6487 148.247 80.1217C148.085 80.5947 147.995 81.1039 147.995 81.6502C147.995 82.1964 148.085 82.7056 148.247 83.1967C148.409 83.6697 148.661 84.0884 148.984 84.4339C149.307 84.7794 149.702 85.0525 150.151 85.2705C150.601 85.4523 151.121 85.5617 151.697 85.5617C152.29 85.5617 152.81 85.4532 153.26 85.2524C153.727 85.0525 154.122 84.7613 154.445 84.3977C154.75 84.0523 154.984 83.6335 155.164 83.1605C155.308 82.6866 155.398 82.1774 155.398 81.6502C155.398 81.0867 155.308 80.5766 155.147 80.1036C154.985 79.6125 154.733 79.1938 154.41 78.8483C154.105 78.5028 153.709 78.2297 153.26 78.0289C152.792 77.829 152.271 77.7377 151.697 77.7377C151.122 77.7386 150.602 77.848 150.134 78.0479Z" fill="#414042"/>
<path d="M168.769 76.4459C169.506 77.0465 169.865 77.8478 169.865 78.8842C169.865 79.3934 169.758 79.8483 169.559 80.249C169.344 80.6496 169.056 80.9409 168.696 81.1407V81.3044C169.29 81.5043 169.758 81.8498 170.099 82.359C170.458 82.851 170.638 83.4325 170.638 84.1063C170.638 84.5974 170.548 85.0704 170.386 85.5253C170.207 85.9621 169.937 86.3447 169.56 86.6721C169.201 86.9995 168.733 87.2536 168.177 87.4544C167.619 87.6543 166.955 87.7456 166.182 87.7456H160.36V75.5542H165.679C167.025 75.5542 168.05 75.8463 168.769 76.4459ZM165.786 80.3575C166.235 80.3575 166.595 80.249 166.864 80.0301C167.115 79.7932 167.241 79.4848 167.241 79.1022C167.241 78.2837 166.719 77.8831 165.695 77.8831H163.035V80.3575H165.786ZM166.217 85.4159C167.402 85.4159 167.995 84.9429 167.995 83.9788C167.995 83.5239 167.834 83.1603 167.528 82.9423C167.223 82.6873 166.773 82.5778 166.198 82.5778H163.035V85.4159H166.217Z" fill="#414042"/>
</svg>
