<svg width="107" height="83" viewBox="0 0 107 83" fill="none" xmlns="http://www.w3.org/2000/svg">
<path d="M3.80711 0.295288H0V83H3.80711V0.295288Z" fill="#A90533"/>
<path d="M15.4529 6.30946L22.9557 25.5528H26.7254L34.0437 6.30946V25.5528H38.4417V0.597168H32.011L24.9136 20.1222L17.5587 0.597168H11.0906V25.5528H15.4529V6.30946Z" fill="black"/>
<path d="M54.2958 26.1488C61.8004 26.1488 66.9371 20.8545 66.9371 13.0748C66.9371 5.3279 61.8004 0 54.3698 0C46.3126 0 41.6562 5.74864 41.6562 13.0748C41.6562 20.8545 46.7564 26.1488 54.2958 26.1488ZM54.2958 3.68037C59.1759 3.68037 62.2798 7.3262 62.2798 13.0394C62.2798 18.7535 59.1759 22.4693 54.3698 22.4693C49.4175 22.4693 46.3126 18.8235 46.3126 13.0031C46.3126 7.36164 49.4549 3.68037 54.2958 3.68037Z" fill="black"/>
<path d="M92.7347 16.0544H88.1149C87.6336 19.7365 85.6748 22.4346 81.3874 22.4346C75.7694 22.4346 73.627 17.7028 73.627 13.0755C73.627 8.48371 75.8808 3.75194 81.4239 3.75194C84.8264 3.75194 87.3003 5.54033 87.9304 8.55459H92.5128C91.6252 2.77051 86.746 0.0361328 81.4988 0.0361328C73.5147 0.0361328 68.9697 5.9956 68.9697 13.0755C68.9697 20.9633 73.848 26.1495 81.275 26.1495C87.8546 26.1486 92.2544 22.1183 92.7347 16.0544Z" fill="black"/>
<path d="M11.1279 54.275H15.7487V33.1051H28.98V29.3193H11.1279V54.275Z" fill="black"/>
<path d="M54.8892 41.7981C54.8892 34.0511 49.7506 28.7241 42.3218 28.7241C34.2647 28.7241 29.6064 34.4709 29.6064 41.7981C29.6064 49.5786 34.7076 54.872 42.2478 54.872C49.7506 54.872 54.8892 49.5795 54.8892 41.7981ZM34.2637 41.7272C34.2637 36.083 37.406 32.4036 42.2469 32.4036C47.1252 32.4036 50.23 36.0494 50.23 41.7626C50.23 47.474 47.1261 51.1907 42.3209 51.1907C37.3686 51.1907 34.2637 47.5449 34.2637 41.7272Z" fill="black"/>
<path d="M58.2134 54.275H62.8351V44.6696H70.2621C75.586 44.6696 78.8023 41.6581 78.8023 36.9263C78.8023 31.7029 75.0691 29.3193 69.6347 29.3193H58.2134V54.275ZM62.8351 32.9643H68.8585C71.778 32.9643 74.292 33.8057 74.292 37.0308C74.292 39.9751 72.2592 41.1329 69.2649 41.1329H62.8351V32.9643Z" fill="black"/>
<path d="M11.0176 82.9998H15.6365V61.8273H27.687V82.9998H32.306V58.0415H11.0176V82.9998Z" fill="black"/>
<path d="M43.9475 58.0063L33.7827 83.0001H38.5514L41.1385 76.3727H51.5617L54.0757 83.0001H59.028L48.8623 58.0063H43.9475ZM42.322 73.0786L46.425 62.5645L50.3426 73.0786H42.322Z" fill="black"/>
<path d="M72.0748 58.0415H60.6516V82.9998H65.2733V73.3945H72.703C78.0252 73.3945 81.2405 70.3812 81.2405 65.6476C81.2396 60.4251 77.5065 58.0415 72.0748 58.0415ZM71.7049 69.855H65.2733V61.6873H71.2986C74.2171 61.6873 76.7312 62.5288 76.7312 65.7539C76.7302 68.6964 74.6984 69.855 71.7049 69.855Z" fill="black"/>
<path d="M95.8004 67.9967L106.334 58.0415H100.495L88.8537 69.3634V58.0415H84.2686V82.9998H88.8537V74.6204L92.6225 71.0464L101.27 82.9998H107L95.8004 67.9967Z" fill="black"/>
</svg>
