<svg width="162" height="39" viewBox="0 0 162 39" fill="none" xmlns="http://www.w3.org/2000/svg">
<path fill-rule="evenodd" clip-rule="evenodd" d="M57.1995 13.2939C57.1995 11.9843 57.4507 10.7556 57.9531 9.60781C58.4555 8.46003 59.139 7.45574 60.0034 6.59491C60.8679 5.73408 61.8764 5.05351 63.0291 4.5532C64.1817 4.05289 65.4156 3.80273 66.7308 3.80273H81.3159V10.1376H66.7308C66.2874 10.1376 65.8737 10.2185 65.4895 10.3803C65.1053 10.5422 64.7691 10.7666 64.4809 11.0536C64.1928 11.3405 63.9674 11.6753 63.8049 12.0579C63.6423 12.4405 63.5611 12.8525 63.5611 13.2939C63.5611 13.7354 63.6423 14.1511 63.8049 14.541C63.9674 14.931 64.1928 15.2694 64.4809 15.5564C64.7691 15.8433 65.1053 16.0677 65.4895 16.2296C65.8737 16.3914 66.2874 16.4724 66.7308 16.4724H73.0924C74.4075 16.4724 75.6451 16.7188 76.8051 17.2118C77.9652 17.7048 78.9774 18.3816 79.8418 19.2425C80.7063 20.1033 81.3861 21.1113 81.8811 22.2664C82.3761 23.4215 82.6237 24.6539 82.6237 25.9636C82.6237 27.2732 82.3761 28.5019 81.8811 29.6497C81.3861 30.7974 80.7063 31.8017 79.8418 32.6626C78.9774 33.5234 77.9652 34.204 76.8051 34.7043C75.6451 35.2046 74.4075 35.4547 73.0924 35.4547H58.9727V29.1199H73.0924C73.5357 29.1199 73.9494 29.039 74.3336 28.8771C74.7179 28.7153 75.054 28.4909 75.3422 28.2039C75.6303 27.917 75.8557 27.5822 76.0182 27.1996C76.1808 26.817 76.2621 26.405 76.2621 25.9636C76.2621 25.5221 76.1808 25.1101 76.0182 24.7275C75.8557 24.3449 75.6303 24.0101 75.3422 23.7232C75.054 23.4362 74.7179 23.2118 74.3336 23.05C73.9494 22.8881 73.5357 22.8072 73.0924 22.8072H66.7308C65.4156 22.8072 64.1817 22.557 63.0291 22.0567C61.8764 21.5564 60.8679 20.8758 60.0034 20.015C59.139 19.1542 58.4555 18.1462 57.9531 16.9911C57.4507 15.8359 57.1995 14.6036 57.1995 13.2939ZM108.587 22.8072C108.587 24.5583 108.254 26.2027 107.589 27.7404C106.924 29.2781 106.015 30.6172 104.863 31.7576C103.71 32.898 102.362 33.7993 100.818 34.4615C99.2733 35.1237 97.622 35.4547 95.8635 35.4547C94.105 35.4547 92.4536 35.1237 90.9094 34.4615C89.3652 33.7993 88.0205 32.898 86.8752 31.7576C85.73 30.6172 84.8249 29.2781 84.1599 27.7404C83.4949 26.2027 83.1625 24.5583 83.1625 22.8072V3.80273H89.5019V22.8072C89.5019 23.6754 89.6681 24.492 90.0006 25.2572C90.3331 26.0224 90.7875 26.6919 91.3638 27.2658C91.9401 27.8397 92.6162 28.2922 93.392 28.6233C94.1678 28.9544 94.9916 29.1199 95.8635 29.1199C96.7353 29.1199 97.5592 28.9544 98.335 28.6233C99.1108 28.2922 99.7868 27.8397 100.363 27.2658C100.939 26.6919 101.394 26.0224 101.726 25.2572C102.059 24.492 102.225 23.6754 102.225 22.8072V3.80273H108.587V22.8072ZM117.194 10.1376V22.8072H123.555C124.427 22.8072 125.247 22.6416 126.016 22.3105C126.784 21.9795 127.457 21.527 128.033 20.9531C128.609 20.3792 129.064 19.706 129.396 18.9335C129.729 18.1609 129.895 17.3406 129.895 16.4724C129.895 15.6042 129.729 14.7838 129.396 14.0113C129.064 13.2387 128.609 12.5655 128.033 11.9916C127.457 11.4178 126.784 10.9653 126.016 10.6342C125.247 10.3031 124.427 10.1376 123.555 10.1376H117.194ZM117.194 35.4547H110.832V3.80273H123.555C124.723 3.80273 125.846 3.95356 126.925 4.25522C128.003 4.55688 129.012 4.98361 129.95 5.53543C130.889 6.08724 131.746 6.74941 132.521 7.52196C133.297 8.2945 133.962 9.15164 134.516 10.0934C135.071 11.0352 135.499 12.0431 135.802 13.1173C136.105 14.1915 136.256 15.3099 136.256 16.4724C136.256 18.2087 135.924 19.8458 135.259 21.3835C134.594 22.9212 133.685 24.264 132.533 25.4117C131.38 26.5595 130.032 27.4645 128.487 28.1267C126.943 28.7888 125.299 29.1199 123.555 29.1199H117.194V35.4547ZM155.415 22.8072V16.4724C155.415 15.6042 155.248 14.7838 154.916 14.0113C154.583 13.2387 154.129 12.5655 153.553 11.9916C152.976 11.4178 152.3 10.9653 151.524 10.6342C150.749 10.3031 149.925 10.1376 149.053 10.1376C148.181 10.1376 147.357 10.3031 146.581 10.6342C145.806 10.9653 145.13 11.4178 144.553 11.9916C143.977 12.5655 143.523 13.2387 143.19 14.0113C142.858 14.7838 142.691 15.6042 142.691 16.4724V22.8072H155.415ZM161.776 35.4547H155.415V29.1199H142.691V35.4547H136.352V16.4724C136.352 14.7213 136.684 13.0769 137.349 11.5392C138.014 10.0014 138.919 8.6587 140.065 7.51092C141.21 6.36314 142.555 5.45818 144.099 4.796C145.643 4.13382 147.294 3.80273 149.053 3.80273C150.811 3.80273 152.463 4.13382 154.007 4.796C155.551 5.45818 156.9 6.36314 158.052 7.51092C159.205 8.6587 160.114 10.0014 160.779 11.5392C161.444 13.0769 161.776 14.7213 161.776 16.4724V35.4547Z" fill="black"/>
<path fill-rule="evenodd" clip-rule="evenodd" d="M0.604733 15.1769C1.60488 14.0218 2.23287 13.4843 5.41938 19.1913C8.59425 24.8983 18.7585 19.0083 20.6658 17.5215C22.2706 16.2634 21.1658 13.7473 20.7821 12.9925C20.7588 12.9467 20.7355 12.9124 20.7123 12.8667C20.6774 12.8095 20.6541 12.7637 20.6541 12.7637H20.6658C20.0494 11.5743 19.6889 10.2362 19.6889 8.80655C19.6889 4.00303 23.6546 0.103027 28.539 0.103027C33.4234 0.103027 37.3891 4.00303 37.3891 8.80655C37.3891 11.2884 36.3308 13.5071 34.6445 15.0969H34.6561C34.6561 15.0969 34.6329 15.1083 34.598 15.1426C34.4817 15.2456 34.3654 15.3599 34.2375 15.4629C33.7258 15.9661 32.9698 16.9611 33.3536 18.1162C33.9118 19.7975 39.7034 22.9312 37.3775 30.7884C35.0515 38.6455 19.5609 41.4934 9.21062 36.4954C-1.12807 31.5089 -0.395409 16.3435 0.604733 15.1769Z" fill="#FBD984"/>
<path d="M31.5279 8.57797C30.224 8.57797 29.1671 7.53851 29.1671 6.25627C29.1671 4.97403 30.224 3.93457 31.5279 3.93457C32.8317 3.93457 33.8887 4.97403 33.8887 6.25627C33.8887 7.53851 32.8317 8.57797 31.5279 8.57797Z" fill="#EFF3F5"/>
<path d="M32.2141 8.06329C31.4433 8.06329 30.8185 7.25426 30.8185 6.25626C30.8185 5.25826 31.4433 4.44922 32.2141 4.44922C32.9848 4.44922 33.6096 5.25826 33.6096 6.25626C33.6096 7.25426 32.9848 8.06329 32.2141 8.06329Z" fill="#41B3E2"/>
<path d="M32.6443 7.29686C32.2012 7.29686 31.8419 6.83089 31.8419 6.25609C31.8419 5.6813 32.2012 5.21533 32.6443 5.21533C33.0875 5.21533 33.4468 5.6813 33.4468 6.25609C33.4468 6.83089 33.0875 7.29686 32.6443 7.29686Z" fill="#445C6C"/>
<path fill-rule="evenodd" clip-rule="evenodd" d="M44.8203 10.9566C44.8203 10.9566 41.6338 16.1947 33.9699 13.8044C33.9699 13.8044 32.7604 12.5806 34.7607 11.5284C36.761 10.4762 44.8203 10.9566 44.8203 10.9566Z" fill="#D45947"/>
<path fill-rule="evenodd" clip-rule="evenodd" d="M35.8657 7.12549C35.8657 7.12549 40.4594 8.29206 43.9482 7.45716C47.4371 6.62226 46.4835 9.43575 44.2622 11.5058C42.041 13.5759 36.075 13.5874 35.0167 12.1349C33.9584 10.6824 35.8657 7.12549 35.8657 7.12549Z" fill="#F1786B"/>
</svg>
