<svg width="165" height="60" viewBox="0 0 165 60" fill="none" xmlns="http://www.w3.org/2000/svg">
<path d="M148.591 60H0L6.37639 8.04917C6.94122 3.45333 10.8434 0 15.472 0H164.062L157.686 51.9508C157.121 56.5467 153.219 60 148.591 60Z" fill="black"/>
<path d="M120.205 40L119.847 42.915L103.967 33.3708L103.153 40H94.7003L96.3015 26.9592H110.224L110.525 24.5042H96.6039L97.1562 20H114.872C117.5 20 119.459 22.5858 119.38 24.8208C119.31 26.8758 118.26 28.655 116.613 29.8125C115.503 30.5858 113.472 31.1675 113.472 31.1675L120.829 34.9167L122.66 20H144.069L143.516 24.5042H131.983L131.682 26.9592H143.215L142.606 31.9233H131.073L130.746 34.5825H142.279L141.614 39.9992H120.205V40ZM84.5442 20L82.8497 33.8075H80.2389L81.9334 20H72.0822L70.8017 30.43C70.0895 36.9417 74.0166 40.86 80.3888 40.86H81.0936C88.3197 40.5275 92.4651 35.2975 93.2316 30.43L94.5112 20H84.5442ZM55.8655 26.9592L56.7202 20H47.0448L44.5897 40H54.2643L55.1257 32.9867H58.1589L57.2975 40H66.9862L69.4413 20H59.7526L58.8987 26.9592H55.8655ZM36.8596 40C41.2699 40.0058 43.7125 36.5992 43.7342 33.3667C43.7458 31.6275 43.0985 30.4533 41.1308 29.5058C39.2955 28.6367 32.6076 25.7892 29.5768 24.5033H44.0257L44.5789 20H27.4275C24.1968 20.0058 21.6459 22.84 21.6459 25.955C21.6459 27.755 22.5231 29.5267 24.6075 30.5575L34.4053 34.5833H20.6587L19.9939 40H36.8596Z" fill="#9ACD70"/>
</svg>
