<svg width="20" height="20" viewBox="0 0 20 20" fill="none" xmlns="http://www.w3.org/2000/svg">
<path d="M19.8871 14.9201V17.9201C19.8881 18.1981 19.8311 18.4741 19.7201 18.7291C19.6091 18.9841 19.4451 19.2131 19.2401 19.4021C19.0351 19.5901 18.7921 19.7341 18.5291 19.8231C18.2651 19.9121 17.9861 19.9451 17.7081 19.9201C14.6311 19.5861 11.6751 18.5341 9.07811 16.8501C6.66211 15.3151 4.61311 13.2661 3.07811 10.8501C1.38811 8.24111 0.336102 5.27111 0.00810202 2.18011C-0.016898 1.90311 0.0161021 1.62511 0.105102 1.36211C0.194102 1.09911 0.336105 0.857106 0.523105 0.652106C0.710105 0.447106 0.938104 0.283106 1.1921 0.171106C1.4451 0.058106 1.7191 0.000106022 1.9971 0.000106022H4.9971C5.4821 -0.00489398 5.9531 0.167106 6.3211 0.484106C6.6891 0.800106 6.9291 1.23911 6.9971 1.72011C7.1241 2.68011 7.3581 3.62311 7.6971 4.53011C7.83211 4.88811 7.8611 5.27711 7.7811 5.65111C7.7011 6.02511 7.5161 6.36811 7.2471 6.64011L5.9771 7.91011C7.4011 10.4131 9.4731 12.4861 11.9771 13.9101L13.2471 12.6401C13.5191 12.3711 13.8621 12.1861 14.2361 12.1061C14.6101 12.0261 14.9991 12.0551 15.3571 12.1901C16.2641 12.5291 17.2071 12.7631 18.1671 12.8901C18.6531 12.9591 19.0961 13.2031 19.4141 13.5781C19.7311 13.9521 19.8991 14.4301 19.8871 14.9201Z" fill="#6D6D6D"/>
</svg>
