<svg width="11" height="23" viewBox="0 0 11 23" fill="none" xmlns="http://www.w3.org/2000/svg">
<path fill-rule="evenodd" clip-rule="evenodd" d="M2.331 11.535V22.716C2.331 22.858 2.477 22.999 2.622 22.999H6.92001C7.06601 22.999 7.21101 22.857 7.21101 22.716V11.394H10.343C10.489 11.394 10.634 11.252 10.634 11.111L10.925 7.714C10.925 7.572 10.779 7.431 10.634 7.431H7.21V5.025C7.21 4.459 7.72 3.963 8.303 3.963H10.707C10.853 3.963 10.998 3.821 10.998 3.68V0.283C11 0.142 10.854 0 10.709 0H6.702C4.298 0 2.404 1.84 2.404 4.175V7.501H0.291C0.145 7.501 0 7.643 0 7.784V11.039C0 11.18 0.146 11.322 0.291 11.322H2.404V11.534H2.331V11.535Z" fill="#6D6D6D"/>
</svg>
