<svg width="21" height="18" viewBox="0 0 21 18" fill="none" xmlns="http://www.w3.org/2000/svg">
<path d="M20.3657 0C20.2911 0 20.2147 0.0141589 20.1379 0.0446551L0.409843 7.87963C-0.147633 8.10109 -0.132698 8.93029 0.432072 9.12997L5.00615 10.7455L7.76436 16.5155C7.76505 16.5173 7.7661 16.5184 7.76679 16.5202L7.77408 16.5355L7.77582 16.5344C7.82584 16.6407 7.92969 16.7097 8.04119 16.7097C8.10649 16.7097 8.17317 16.6868 8.23083 16.6357L10.8147 14.3455L7.92934 12.0569L8.15511 15.0626L6.08116 10.5742L17.1046 3.65337L7.92934 12.0569L15.072 17.7226C15.3113 17.9121 15.585 18 15.8538 18C16.4203 18 16.9653 17.6115 17.1188 16.97L20.9802 0.826664C21.0847 0.389189 20.7579 0 20.3657 0Z" fill="#6D6D6D"/>
</svg>
