<svg width="24" height="14" viewBox="0 0 24 14" fill="none" xmlns="http://www.w3.org/2000/svg">
<path d="M11.7394 12.9453H13.1724C13.1724 12.9453 13.6084 12.8993 13.8254 12.6753C14.0314 12.4683 14.0254 12.0783 14.0254 12.0783C14.0254 12.0783 13.9954 10.2523 14.8904 9.98234C15.7734 9.71834 16.9044 11.7513 18.1014 12.5323C19.0094 13.1233 19.6984 12.9913 19.6984 12.9913L22.9034 12.9513C22.9034 12.9513 24.5794 12.8533 23.7864 11.6013C23.7204 11.4983 23.3214 10.6763 21.4044 8.98234C19.3964 7.20734 19.6623 7.49534 22.0873 4.43334C23.5633 2.56734 24.1494 1.43034 23.9684 0.941341C23.7934 0.476341 22.7104 0.59634 22.7104 0.59634L19.0994 0.61934C19.0994 0.61934 18.8334 0.58534 18.6344 0.69934C18.4404 0.80834 18.3133 1.06634 18.3133 1.06634C18.3133 1.06634 17.7394 2.50734 16.9834 3.73634C15.3744 6.32634 14.7334 6.46434 14.4734 6.30334C13.8624 5.93034 14.0134 4.79834 14.0134 3.99434C14.0134 1.48434 14.4124 0.433341 13.2334 0.163341C12.8404 0.0713407 12.5494 0.0143404 11.5454 0.00234045C10.2574 -0.00865955 9.16936 0.00834066 8.55236 0.295341C8.14036 0.485341 7.82636 0.91034 8.01936 0.93834C8.25536 0.96734 8.80036 1.07634 9.08436 1.44934C9.45336 1.92634 9.44135 3.00034 9.44135 3.00034C9.44135 3.00034 9.65235 5.95834 8.94535 6.32534C8.46135 6.57834 7.79035 6.06134 6.35635 3.71234C5.62435 2.50634 5.06835 1.17434 5.06835 1.17434C5.06835 1.17434 4.95335 0.91034 4.76035 0.77834C4.53035 0.61734 4.20936 0.566341 4.20936 0.566341L0.780357 0.58934C0.780357 0.58934 0.266354 0.60134 0.0783539 0.81334C-0.0906461 1.00334 0.0663529 1.39334 0.0663529 1.39334C0.0663529 1.39334 2.75235 7.36034 5.79435 10.3643C8.57635 13.1233 11.7394 12.9453 11.7394 12.9453Z" fill="#6D6D6D"/>
</svg>
