<svg width="17" height="29" viewBox="0 0 17 29" fill="none" xmlns="http://www.w3.org/2000/svg">
<path d="M6.83995 19.72C4.73195 19.486 2.82395 18.958 1.19995 17.64C1.00095 17.464 0.80096 17.318 0.60196 17.142C-0.11004 16.439 -0.196052 15.618 0.373948 14.798C0.857948 14.095 1.65595 13.89 2.50995 14.3C2.68095 14.388 2.82396 14.476 2.96596 14.593C5.98596 16.732 10.1729 16.791 13.2209 14.681C13.5349 14.447 13.8479 14.242 14.2189 14.154C14.9589 13.949 15.614 14.242 16.013 14.887C16.469 15.62 16.44 16.352 15.899 16.938C15.045 17.817 14.048 18.462 12.908 18.931C11.854 19.341 10.686 19.576 9.51796 19.722C9.68896 19.927 9.77496 20.015 9.88896 20.132C11.455 21.744 13.022 23.355 14.589 24.996C15.13 25.553 15.244 26.227 14.931 26.871C14.617 27.574 13.9049 28.043 13.1929 27.984C12.7369 27.955 12.395 27.72 12.082 27.398C10.914 26.167 9.68896 24.966 8.54996 23.735C8.20796 23.383 8.03695 23.442 7.75195 23.764C6.55595 25.024 5.35896 26.255 4.13396 27.485C3.59296 28.042 2.93796 28.13 2.31096 27.837C1.62696 27.515 1.19996 26.782 1.25696 26.079C1.28596 25.61 1.51295 25.229 1.82695 24.907C3.36495 23.325 4.93196 21.713 6.46996 20.131C6.58396 19.983 6.66995 19.866 6.83995 19.72Z" fill="#6D6D6D"/>
<path d="M8.1241 14.152C4.3641 14.152 1.28711 10.929 1.28711 7.061C1.31611 3.135 4.39211 0 8.20911 0C12.0271 0 15.0751 3.223 15.0461 7.179C15.0181 11.046 11.9131 14.182 8.1241 14.152ZM11.5421 7.061C11.5421 5.127 10.0331 3.604 8.18111 3.604C6.30111 3.604 4.79111 5.157 4.81911 7.091C4.81911 8.996 6.32911 10.519 8.20911 10.519C10.0611 10.548 11.5421 8.995 11.5421 7.061Z" fill="#6D6D6D"/>
</svg>
